<?xml version="1.0" encoding="UTF-8" standalone="no"?>
<!DOCTYPE svg PUBLIC "-//W3C//DTD SVG 1.1//EN"
 "http://www.w3.org/Graphics/SVG/1.1/DTD/svg11.dtd">
<!-- Generated by graphviz version 9.0.0 (0)
 -->
<!-- Title: dependency&#45;cruiser output Pages: 1 -->
<svg width="941pt" height="1271pt"
 viewBox="0.00 0.00 940.88 1271.01" xmlns="http://www.w3.org/2000/svg" xmlns:xlink="http://www.w3.org/1999/xlink">
<g id="graph0" class="graph" transform="scale(1 1) rotate(0) translate(4 1267.01)">
<title>dependency&#45;cruiser output</title>
<polygon fill="white" stroke="none" points="-4,4 -4,-1267.01 936.88,-1267.01 936.88,4 -4,4"/>
<g id="clust1" class="cluster">
<title>cluster_node_modules</title>
<path fill="#ffffff" stroke="black" stroke-width="2" d="M816.75,-179.01C816.75,-179.01 908.25,-179.01 908.25,-179.01 914.25,-179.01 920.25,-185.01 920.25,-191.01 920.25,-191.01 920.25,-665.01 920.25,-665.01 920.25,-671.01 914.25,-677.01 908.25,-677.01 908.25,-677.01 816.75,-677.01 816.75,-677.01 810.75,-677.01 804.75,-671.01 804.75,-665.01 804.75,-665.01 804.75,-191.01 804.75,-191.01 804.75,-185.01 810.75,-179.01 816.75,-179.01"/>
<text text-anchor="middle" x="862.5" y="-664.46" font-family="Helvetica,sans-Serif" font-weight="bold" font-size="9.00">node_modules</text>
</g>
<g id="clust2" class="cluster">
<title>cluster_node_modules/@nestjs</title>
<path fill="#ffffff" stroke="black" stroke-width="2" d="M824.75,-243.01C824.75,-243.01 900.25,-243.01 900.25,-243.01 906.25,-243.01 912.25,-249.01 912.25,-255.01 912.25,-255.01 912.25,-493.01 912.25,-493.01 912.25,-499.01 906.25,-505.01 900.25,-505.01 900.25,-505.01 824.75,-505.01 824.75,-505.01 818.75,-505.01 812.75,-499.01 812.75,-493.01 812.75,-493.01 812.75,-255.01 812.75,-255.01 812.75,-249.01 818.75,-243.01 824.75,-243.01"/>
<text text-anchor="middle" x="862.5" y="-492.46" font-family="Helvetica,sans-Serif" font-weight="bold" font-size="9.00">@nestjs</text>
</g>
<g id="clust3" class="cluster">
<title>cluster_src</title>
<path fill="#ffffff" stroke="black" stroke-width="2" d="M20,-685.01C20,-685.01 912.88,-685.01 912.88,-685.01 918.88,-685.01 924.88,-691.01 924.88,-697.01 924.88,-697.01 924.88,-1243.01 924.88,-1243.01 924.88,-1249.01 918.88,-1255.01 912.88,-1255.01 912.88,-1255.01 20,-1255.01 20,-1255.01 14,-1255.01 8,-1249.01 8,-1243.01 8,-1243.01 8,-697.01 8,-697.01 8,-691.01 14,-685.01 20,-685.01"/>
<text text-anchor="middle" x="466.44" y="-1242.46" font-family="Helvetica,sans-Serif" font-weight="bold" font-size="9.00">src</text>
</g>
<g id="clust4" class="cluster">
<title>cluster_src/auth</title>
<path fill="#ffffff" stroke="black" stroke-width="2" d="M389.88,-897.01C389.88,-897.01 675,-897.01 675,-897.01 681,-897.01 687,-903.01 687,-909.01 687,-909.01 687,-997.01 687,-997.01 687,-1003.01 681,-1009.01 675,-1009.01 675,-1009.01 389.88,-1009.01 389.88,-1009.01 383.88,-1009.01 377.88,-1003.01 377.88,-997.01 377.88,-997.01 377.88,-909.01 377.88,-909.01 377.88,-903.01 383.88,-897.01 389.88,-897.01"/>
<text text-anchor="middle" x="532.44" y="-996.46" font-family="Helvetica,sans-Serif" font-weight="bold" font-size="9.00">auth</text>
</g>
<g id="clust8" class="cluster">
<title>cluster_src/mongodb</title>
<path fill="#ffffff" stroke="black" stroke-width="2" d="M28,-940.01C28,-940.01 115.5,-940.01 115.5,-940.01 121.5,-940.01 127.5,-946.01 127.5,-952.01 127.5,-952.01 127.5,-1010.01 127.5,-1010.01 127.5,-1016.01 121.5,-1022.01 115.5,-1022.01 115.5,-1022.01 28,-1022.01 28,-1022.01 22,-1022.01 16,-1016.01 16,-1010.01 16,-1010.01 16,-952.01 16,-952.01 16,-946.01 22,-940.01 28,-940.01"/>
<text text-anchor="middle" x="71.75" y="-1009.46" font-family="Helvetica,sans-Serif" font-weight="bold" font-size="9.00">mongodb</text>
</g>
<g id="clust5" class="cluster">
<title>cluster_src/config</title>
<path fill="#ffffff" stroke="black" stroke-width="2" d="M607,-1147.01C607,-1147.01 677.25,-1147.01 677.25,-1147.01 683.25,-1147.01 689.25,-1153.01 689.25,-1159.01 689.25,-1159.01 689.25,-1217.01 689.25,-1217.01 689.25,-1223.01 683.25,-1229.01 677.25,-1229.01 677.25,-1229.01 607,-1229.01 607,-1229.01 601,-1229.01 595,-1223.01 595,-1217.01 595,-1217.01 595,-1159.01 595,-1159.01 595,-1153.01 601,-1147.01 607,-1147.01"/>
<text text-anchor="start" x="629" y="-1216.46" font-family="Helvetica,sans-Serif" font-weight="bold" font-size="9.00">config</text>
</g>
<g id="clust6" class="cluster">
<title>cluster_src/image</title>
<path fill="#ffffff" stroke="black" stroke-width="2" d="M257.75,-747.01C257.75,-747.01 575,-747.01 575,-747.01 581,-747.01 587,-753.01 587,-759.01 587,-759.01 587,-877.01 587,-877.01 587,-883.01 581,-889.01 575,-889.01 575,-889.01 257.75,-889.01 257.75,-889.01 251.75,-889.01 245.75,-883.01 245.75,-877.01 245.75,-877.01 245.75,-759.01 245.75,-759.01 245.75,-753.01 251.75,-747.01 257.75,-747.01"/>
<text text-anchor="middle" x="416.38" y="-876.46" font-family="Helvetica,sans-Serif" font-weight="bold" font-size="9.00">image</text>
</g>
<g id="clust7" class="cluster">
<title>cluster_src/image/entities</title>
<path fill="#ffffff" stroke="black" stroke-width="2" d="M276.5,-811.01C276.5,-811.01 342.25,-811.01 342.25,-811.01 348.25,-811.01 354.25,-817.01 354.25,-823.01 354.25,-823.01 354.25,-851.01 354.25,-851.01 354.25,-857.01 348.25,-863.01 342.25,-863.01 342.25,-863.01 276.5,-863.01 276.5,-863.01 270.5,-863.01 264.5,-857.01 264.5,-851.01 264.5,-851.01 264.5,-823.01 264.5,-823.01 264.5,-817.01 270.5,-811.01 276.5,-811.01"/>
<text text-anchor="middle" x="309.38" y="-850.46" font-family="Helvetica,sans-Serif" font-weight="bold" font-size="9.00">entities</text>
</g>
<g id="clust9" class="cluster">
<title>cluster_src/user</title>
<path fill="#ffffff" stroke="black" stroke-width="2" d="M505.5,-1017.01C505.5,-1017.01 904.88,-1017.01 904.88,-1017.01 910.88,-1017.01 916.88,-1023.01 916.88,-1029.01 916.88,-1029.01 916.88,-1127.01 916.88,-1127.01 916.88,-1133.01 910.88,-1139.01 904.88,-1139.01 904.88,-1139.01 505.5,-1139.01 505.5,-1139.01 499.5,-1139.01 493.5,-1133.01 493.5,-1127.01 493.5,-1127.01 493.5,-1029.01 493.5,-1029.01 493.5,-1023.01 499.5,-1017.01 505.5,-1017.01"/>
<text text-anchor="middle" x="705.19" y="-1126.46" font-family="Helvetica,sans-Serif" font-weight="bold" font-size="9.00">user</text>
</g>
<g id="clust10" class="cluster">
<title>cluster_src/user/dto</title>
<path fill="#ffffff" stroke="black" stroke-width="2" d="M709.25,-1051.01C709.25,-1051.01 784.75,-1051.01 784.75,-1051.01 790.75,-1051.01 796.75,-1057.01 796.75,-1063.01 796.75,-1063.01 796.75,-1091.01 796.75,-1091.01 796.75,-1097.01 790.75,-1103.01 784.75,-1103.01 784.75,-1103.01 709.25,-1103.01 709.25,-1103.01 703.25,-1103.01 697.25,-1097.01 697.25,-1091.01 697.25,-1091.01 697.25,-1063.01 697.25,-1063.01 697.25,-1057.01 703.25,-1051.01 709.25,-1051.01"/>
<text text-anchor="middle" x="747" y="-1090.46" font-family="Helvetica,sans-Serif" font-weight="bold" font-size="9.00">dto</text>
</g>
<g id="clust11" class="cluster">
<title>cluster_src/user/schemas</title>
<path fill="#ffffff" stroke="black" stroke-width="2" d="M828.12,-1025.01C828.12,-1025.01 896.88,-1025.01 896.88,-1025.01 902.88,-1025.01 908.88,-1031.01 908.88,-1037.01 908.88,-1037.01 908.88,-1065.01 908.88,-1065.01 908.88,-1071.01 902.88,-1077.01 896.88,-1077.01 896.88,-1077.01 828.12,-1077.01 828.12,-1077.01 822.12,-1077.01 816.12,-1071.01 816.12,-1065.01 816.12,-1065.01 816.12,-1037.01 816.12,-1037.01 816.12,-1031.01 822.12,-1025.01 828.12,-1025.01"/>
<text text-anchor="middle" x="862.5" y="-1064.46" font-family="Helvetica,sans-Serif" font-weight="bold" font-size="9.00">schemas</text>
</g>
<!-- fs -->
<g id="node1" class="node">
<title>fs</title>
<g id="a_node1"><a xlink:href="https://nodejs.org/api/fs.html" xlink:title="fs">
<path fill="#ffffcc" stroke="grey" d="M559.83,-468.89C559.83,-468.89 517.67,-468.89 517.67,-468.89 514.71,-468.89 511.75,-465.93 511.75,-462.97 511.75,-462.97 511.75,-457.05 511.75,-457.05 511.75,-454.09 514.71,-451.14 517.67,-451.14 517.67,-451.14 559.83,-451.14 559.83,-451.14 562.79,-451.14 565.75,-454.09 565.75,-457.05 565.75,-457.05 565.75,-462.97 565.75,-462.97 565.75,-465.93 562.79,-468.89 559.83,-468.89"/>
<text text-anchor="middle" x="538.75" y="-456.34" font-family="Helvetica,sans-Serif" font-size="9.00" fill="grey">fs</text>
</a>
</g>
</g>
<!-- node_modules/@nestjs/common -->
<g id="node2" class="node">
<title>node_modules/@nestjs/common</title>
<g id="a_node2"><a xlink:href="https://www.npmjs.com/package/@nestjs/common" xlink:title="common">
<polygon fill="#c40b0a" fill-opacity="0.101961" stroke="black" points="889.5,-388.89 837.47,-388.89 835.5,-386.91 835.5,-371.14 887.53,-371.14 889.5,-373.11 889.5,-388.89"/>
<polyline fill="none" stroke="black" points="887.53,-386.91 835.5,-386.91"/>
<polyline fill="none" stroke="black" points="887.53,-386.91 887.53,-371.14"/>
<polyline fill="none" stroke="black" points="887.53,-386.91 889.5,-388.89"/>
<text text-anchor="start" x="844.88" y="-376.34" font-family="Helvetica,sans-Serif" font-size="9.00" fill="#c40b0a">common</text>
</a>
</g>
</g>
<!-- node_modules/@nestjs/config -->
<g id="node3" class="node">
<title>node_modules/@nestjs/config</title>
<g id="a_node3"><a xlink:href="https://www.npmjs.com/package/@nestjs/config" xlink:title="config">
<polygon fill="#c40b0a" fill-opacity="0.101961" stroke="black" points="889.5,-298.89 837.47,-298.89 835.5,-296.91 835.5,-281.14 887.53,-281.14 889.5,-283.11 889.5,-298.89"/>
<polyline fill="none" stroke="black" points="887.53,-296.91 835.5,-296.91"/>
<polyline fill="none" stroke="black" points="887.53,-296.91 887.53,-281.14"/>
<polyline fill="none" stroke="black" points="887.53,-296.91 889.5,-298.89"/>
<text text-anchor="start" x="850.12" y="-286.34" font-family="Helvetica,sans-Serif" font-size="9.00" fill="#c40b0a">config</text>
</a>
</g>
</g>
<!-- node_modules/@nestjs/core -->
<g id="node4" class="node">
<title>node_modules/@nestjs/core</title>
<g id="a_node4"><a xlink:href="https://www.npmjs.com/package/@nestjs/core" xlink:title="core">
<polygon fill="#c40b0a" fill-opacity="0.101961" stroke="black" points="889.5,-268.89 837.47,-268.89 835.5,-266.91 835.5,-251.14 887.53,-251.14 889.5,-253.11 889.5,-268.89"/>
<polyline fill="none" stroke="black" points="887.53,-266.91 835.5,-266.91"/>
<polyline fill="none" stroke="black" points="887.53,-266.91 887.53,-251.14"/>
<polyline fill="none" stroke="black" points="887.53,-266.91 889.5,-268.89"/>
<text text-anchor="start" x="853.5" y="-256.34" font-family="Helvetica,sans-Serif" font-size="9.00" fill="#c40b0a">core</text>
</a>
</g>
</g>
<!-- node_modules/@nestjs/jwt -->
<g id="node5" class="node">
<title>node_modules/@nestjs/jwt</title>
<g id="a_node5"><a xlink:href="https://www.npmjs.com/package/@nestjs/jwt" xlink:title="jwt">
<polygon fill="#c40b0a" fill-opacity="0.101961" stroke="black" points="889.5,-448.89 837.47,-448.89 835.5,-446.91 835.5,-431.14 887.53,-431.14 889.5,-433.11 889.5,-448.89"/>
<polyline fill="none" stroke="black" points="887.53,-446.91 835.5,-446.91"/>
<polyline fill="none" stroke="black" points="887.53,-446.91 887.53,-431.14"/>
<polyline fill="none" stroke="black" points="887.53,-446.91 889.5,-448.89"/>
<text text-anchor="start" x="856.88" y="-436.34" font-family="Helvetica,sans-Serif" font-size="9.00" fill="#c40b0a">jwt</text>
</a>
</g>
</g>
<!-- node_modules/@nestjs/mongoose -->
<g id="node6" class="node">
<title>node_modules/@nestjs/mongoose</title>
<g id="a_node6"><a xlink:href="https://www.npmjs.com/package/@nestjs/mongoose" xlink:title="mongoose">
<polygon fill="#c40b0a" fill-opacity="0.101961" stroke="black" points="892.25,-478.89 834.72,-478.89 832.75,-476.91 832.75,-461.14 890.28,-461.14 892.25,-463.11 892.25,-478.89"/>
<polyline fill="none" stroke="black" points="890.28,-476.91 832.75,-476.91"/>
<polyline fill="none" stroke="black" points="890.28,-476.91 890.28,-461.14"/>
<polyline fill="none" stroke="black" points="890.28,-476.91 892.25,-478.89"/>
<text text-anchor="start" x="840.75" y="-466.34" font-family="Helvetica,sans-Serif" font-size="9.00" fill="#c40b0a">mongoose</text>
</a>
</g>
</g>
<!-- node_modules/@nestjs/passport -->
<g id="node7" class="node">
<title>node_modules/@nestjs/passport</title>
<g id="a_node7"><a xlink:href="https://www.npmjs.com/package/@nestjs/passport" xlink:title="passport">
<polygon fill="#c40b0a" fill-opacity="0.101961" stroke="black" points="889.5,-418.89 837.47,-418.89 835.5,-416.91 835.5,-401.14 887.53,-401.14 889.5,-403.11 889.5,-418.89"/>
<polyline fill="none" stroke="black" points="887.53,-416.91 835.5,-416.91"/>
<polyline fill="none" stroke="black" points="887.53,-416.91 887.53,-401.14"/>
<polyline fill="none" stroke="black" points="887.53,-416.91 889.5,-418.89"/>
<text text-anchor="start" x="844.88" y="-406.34" font-family="Helvetica,sans-Serif" font-size="9.00" fill="#c40b0a">passport</text>
</a>
</g>
</g>
<!-- node_modules/@nestjs/platform&#45;express -->
<g id="node8" class="node">
<title>node_modules/@nestjs/platform&#45;express</title>
<g id="a_node8"><a xlink:href="https://www.npmjs.com/package/@nestjs/platform-express" xlink:title="platform&#45;express">
<polygon fill="#c40b0a" fill-opacity="0.101961" stroke="black" points="904.25,-358.89 822.72,-358.89 820.75,-356.91 820.75,-341.14 902.28,-341.14 904.25,-343.11 904.25,-358.89"/>
<polyline fill="none" stroke="black" points="902.28,-356.91 820.75,-356.91"/>
<polyline fill="none" stroke="black" points="902.28,-356.91 902.28,-341.14"/>
<polyline fill="none" stroke="black" points="902.28,-356.91 904.25,-358.89"/>
<text text-anchor="start" x="828.75" y="-346.34" font-family="Helvetica,sans-Serif" font-size="9.00" fill="#c40b0a">platform&#45;express</text>
</a>
</g>
</g>
<!-- node_modules/@nestjs/testing -->
<g id="node9" class="node">
<title>node_modules/@nestjs/testing</title>
<g id="a_node9"><a xlink:href="https://www.npmjs.com/package/@nestjs/testing" xlink:title="testing">
<polygon fill="#c40b0a" fill-opacity="0.101961" stroke="black" points="889.5,-328.89 837.47,-328.89 835.5,-326.91 835.5,-311.14 887.53,-311.14 889.5,-313.11 889.5,-328.89"/>
<polyline fill="none" stroke="black" points="887.53,-326.91 835.5,-326.91"/>
<polyline fill="none" stroke="black" points="887.53,-326.91 887.53,-311.14"/>
<polyline fill="none" stroke="black" points="887.53,-326.91 889.5,-328.89"/>
<text text-anchor="start" x="849" y="-316.34" font-family="Helvetica,sans-Serif" font-size="9.00" fill="#c40b0a">testing</text>
</a>
</g>
</g>
<!-- node_modules/dotenv -->
<g id="node10" class="node">
<title>node_modules/dotenv</title>
<g id="a_node10"><a xlink:href="https://www.npmjs.com/package/dotenv" xlink:title="dotenv">
<polygon fill="#c40b0a" fill-opacity="0.101961" stroke="black" points="889.5,-590.89 837.47,-590.89 835.5,-588.91 835.5,-573.14 887.53,-573.14 889.5,-575.11 889.5,-590.89"/>
<polyline fill="none" stroke="black" points="887.53,-588.91 835.5,-588.91"/>
<polyline fill="none" stroke="black" points="887.53,-588.91 887.53,-573.14"/>
<polyline fill="none" stroke="black" points="887.53,-588.91 889.5,-590.89"/>
<text text-anchor="start" x="848.62" y="-578.34" font-family="Helvetica,sans-Serif" font-size="9.00" fill="#c40b0a">dotenv</text>
</a>
</g>
</g>
<!-- node_modules/express -->
<g id="node11" class="node">
<title>node_modules/express</title>
<g id="a_node11"><a xlink:href="https://www.npmjs.com/package/express" xlink:title="express">
<polygon fill="#c40b0a" fill-opacity="0.101961" stroke="black" points="889.5,-204.89 837.47,-204.89 835.5,-202.91 835.5,-187.14 887.53,-187.14 889.5,-189.11 889.5,-204.89"/>
<polyline fill="none" stroke="black" points="887.53,-202.91 835.5,-202.91"/>
<polyline fill="none" stroke="black" points="887.53,-202.91 887.53,-187.14"/>
<polyline fill="none" stroke="black" points="887.53,-202.91 889.5,-204.89"/>
<text text-anchor="start" x="846.75" y="-192.34" font-family="Helvetica,sans-Serif" font-size="9.00" fill="#c40b0a">express</text>
</a>
</g>
</g>
<!-- node_modules/joi -->
<g id="node12" class="node">
<title>node_modules/joi</title>
<g id="a_node12"><a xlink:href="https://www.npmjs.com/package/joi" xlink:title="joi">
<polygon fill="#c40b0a" fill-opacity="0.101961" stroke="black" points="889.5,-620.89 837.47,-620.89 835.5,-618.91 835.5,-603.14 887.53,-603.14 889.5,-605.11 889.5,-620.89"/>
<polyline fill="none" stroke="black" points="887.53,-618.91 835.5,-618.91"/>
<polyline fill="none" stroke="black" points="887.53,-618.91 887.53,-603.14"/>
<polyline fill="none" stroke="black" points="887.53,-618.91 889.5,-620.89"/>
<text text-anchor="start" x="857.62" y="-608.34" font-family="Helvetica,sans-Serif" font-size="9.00" fill="#c40b0a">joi</text>
</a>
</g>
</g>
<!-- node_modules/mongoose -->
<g id="node13" class="node">
<title>node_modules/mongoose</title>
<g id="a_node13"><a xlink:href="https://www.npmjs.com/package/mongoose" xlink:title="mongoose">
<polygon fill="#c40b0a" fill-opacity="0.101961" stroke="black" points="892.25,-650.89 834.72,-650.89 832.75,-648.91 832.75,-633.14 890.28,-633.14 892.25,-635.11 892.25,-650.89"/>
<polyline fill="none" stroke="black" points="890.28,-648.91 832.75,-648.91"/>
<polyline fill="none" stroke="black" points="890.28,-648.91 890.28,-633.14"/>
<polyline fill="none" stroke="black" points="890.28,-648.91 892.25,-650.89"/>
<text text-anchor="start" x="840.75" y="-638.34" font-family="Helvetica,sans-Serif" font-size="9.00" fill="#c40b0a">mongoose</text>
</a>
</g>
</g>
<!-- node_modules/multer -->
<g id="node14" class="node">
<title>node_modules/multer</title>
<g id="a_node14"><a xlink:href="https://www.npmjs.com/package/multer" xlink:title="multer">
<polygon fill="#c40b0a" fill-opacity="0.101961" stroke="black" points="889.5,-234.89 837.47,-234.89 835.5,-232.91 835.5,-217.14 887.53,-217.14 889.5,-219.11 889.5,-234.89"/>
<polyline fill="none" stroke="black" points="887.53,-232.91 835.5,-232.91"/>
<polyline fill="none" stroke="black" points="887.53,-232.91 887.53,-217.14"/>
<polyline fill="none" stroke="black" points="887.53,-232.91 889.5,-234.89"/>
<text text-anchor="start" x="849.75" y="-222.34" font-family="Helvetica,sans-Serif" font-size="9.00" fill="#c40b0a">multer</text>
</a>
</g>
</g>
<!-- node_modules/passport&#45;jwt -->
<g id="node15" class="node">
<title>node_modules/passport&#45;jwt</title>
<g id="a_node15"><a xlink:href="https://www.npmjs.com/package/passport-jwt" xlink:title="passport&#45;jwt">
<polygon fill="#c40b0a" fill-opacity="0.101961" stroke="black" points="895.25,-560.89 831.72,-560.89 829.75,-558.91 829.75,-543.14 893.28,-543.14 895.25,-545.11 895.25,-560.89"/>
<polyline fill="none" stroke="black" points="893.28,-558.91 829.75,-558.91"/>
<polyline fill="none" stroke="black" points="893.28,-558.91 893.28,-543.14"/>
<polyline fill="none" stroke="black" points="893.28,-558.91 895.25,-560.89"/>
<text text-anchor="start" x="837.75" y="-548.34" font-family="Helvetica,sans-Serif" font-size="9.00" fill="#c40b0a">passport&#45;jwt</text>
</a>
</g>
</g>
<!-- node_modules/passport&#45;local -->
<g id="node16" class="node">
<title>node_modules/passport&#45;local</title>
<g id="a_node16"><a xlink:href="https://www.npmjs.com/package/passport-local" xlink:title="passport&#45;local">
<polygon fill="#c40b0a" fill-opacity="0.101961" stroke="black" points="899.38,-530.89 827.6,-530.89 825.62,-528.91 825.62,-513.14 897.4,-513.14 899.38,-515.11 899.38,-530.89"/>
<polyline fill="none" stroke="black" points="897.4,-528.91 825.62,-528.91"/>
<polyline fill="none" stroke="black" points="897.4,-528.91 897.4,-513.14"/>
<polyline fill="none" stroke="black" points="897.4,-528.91 899.38,-530.89"/>
<text text-anchor="start" x="833.62" y="-518.34" font-family="Helvetica,sans-Serif" font-size="9.00" fill="#c40b0a">passport&#45;local</text>
</a>
</g>
</g>
<!-- path -->
<g id="node17" class="node">
<title>path</title>
<g id="a_node17"><a xlink:href="https://nodejs.org/api/path.html" xlink:title="path">
<path fill="#ffffcc" stroke="grey" d="M559.83,-498.89C559.83,-498.89 517.67,-498.89 517.67,-498.89 514.71,-498.89 511.75,-495.93 511.75,-492.97 511.75,-492.97 511.75,-487.05 511.75,-487.05 511.75,-484.09 514.71,-481.14 517.67,-481.14 517.67,-481.14 559.83,-481.14 559.83,-481.14 562.79,-481.14 565.75,-484.09 565.75,-487.05 565.75,-487.05 565.75,-492.97 565.75,-492.97 565.75,-495.93 562.79,-498.89 559.83,-498.89"/>
<text text-anchor="middle" x="538.75" y="-486.34" font-family="Helvetica,sans-Serif" font-size="9.00" fill="grey">path</text>
</a>
</g>
</g>
<!-- src/app.controller.spec.ts -->
<g id="node18" class="node">
<title>src/app.controller.spec.ts</title>
<g id="a_node18"><a xlink:href="src/app.controller.spec.ts" xlink:title="app.controller.spec.ts">
<path fill="#ddfeff" stroke="black" d="M231.83,-710.89C231.83,-710.89 141.42,-710.89 141.42,-710.89 138.46,-710.89 135.5,-707.93 135.5,-704.97 135.5,-704.97 135.5,-699.05 135.5,-699.05 135.5,-696.09 138.46,-693.14 141.42,-693.14 141.42,-693.14 231.83,-693.14 231.83,-693.14 234.79,-693.14 237.75,-696.09 237.75,-699.05 237.75,-699.05 237.75,-704.97 237.75,-704.97 237.75,-707.93 234.79,-710.89 231.83,-710.89"/>
<text text-anchor="start" x="143.5" y="-698.34" font-family="Helvetica,sans-Serif" font-size="9.00">app.controller.spec.ts</text>
</a>
</g>
</g>
<!-- src/app.controller.spec.ts&#45;&gt;node_modules/@nestjs/testing -->
<g id="edge3" class="edge">
<title>src/app.controller.spec.ts&#45;&gt;node_modules/@nestjs/testing</title>
<path fill="none" stroke="#000000" stroke-opacity="0.200000" d="M187.92,-692.77C189.86,-636.29 202.08,-337.46 245.75,-259.01 282.64,-192.74 307.36,-178.94 377.88,-151.01 421.16,-133.87 763.79,-108.13 796.75,-141.01 809.66,-153.9 793.27,-290.83 804.75,-305.01 810.46,-312.07 819.07,-316.03 827.86,-318.19"/>
<polygon fill="#000000" fill-opacity="0.200000" stroke="#000000" stroke-opacity="0.200000" points="827.46,-320.25 833.75,-319.33 828.26,-316.13 827.46,-320.25"/>
</g>
<!-- src/app.controller.ts -->
<g id="node19" class="node">
<title>src/app.controller.ts</title>
<g id="a_node19"><a xlink:href="src/app.controller.ts" xlink:title="app.controller.ts">
<path fill="#ddfeff" stroke="black" d="M343.71,-738.89C343.71,-738.89 275.04,-738.89 275.04,-738.89 272.08,-738.89 269.12,-735.93 269.12,-732.97 269.12,-732.97 269.12,-727.05 269.12,-727.05 269.12,-724.09 272.08,-721.14 275.04,-721.14 275.04,-721.14 343.71,-721.14 343.71,-721.14 346.67,-721.14 349.62,-724.09 349.62,-727.05 349.62,-727.05 349.62,-732.97 349.62,-732.97 349.62,-735.93 346.67,-738.89 343.71,-738.89"/>
<text text-anchor="start" x="277.12" y="-726.34" font-family="Helvetica,sans-Serif" font-size="9.00">app.controller.ts</text>
</a>
</g>
</g>
<!-- src/app.controller.spec.ts&#45;&gt;src/app.controller.ts -->
<g id="edge1" class="edge">
<title>src/app.controller.spec.ts&#45;&gt;src/app.controller.ts</title>
<path fill="none" stroke="#000000" stroke-width="2" stroke-opacity="0.200000" d="M227.83,-711.33C238.23,-713.74 249.52,-716.36 260.27,-718.86"/>
<polygon fill="#000000" fill-opacity="0.200000" stroke="#000000" stroke-width="2" stroke-opacity="0.200000" points="259.49,-720.83 265.8,-720.14 260.43,-716.74 259.49,-720.83"/>
</g>
<!-- src/app.service.ts -->
<g id="node20" class="node">
<title>src/app.service.ts</title>
<g id="a_node20"><a xlink:href="src/app.service.ts" xlink:title="app.service.ts">
<path fill="#ddfeff" stroke="black" d="M461.58,-713.89C461.58,-713.89 401.92,-713.89 401.92,-713.89 398.96,-713.89 396,-710.93 396,-707.97 396,-707.97 396,-702.05 396,-702.05 396,-699.09 398.96,-696.14 401.92,-696.14 401.92,-696.14 461.58,-696.14 461.58,-696.14 464.54,-696.14 467.5,-699.09 467.5,-702.05 467.5,-702.05 467.5,-707.97 467.5,-707.97 467.5,-710.93 464.54,-713.89 461.58,-713.89"/>
<text text-anchor="start" x="404" y="-701.34" font-family="Helvetica,sans-Serif" font-size="9.00">app.service.ts</text>
</a>
</g>
</g>
<!-- src/app.controller.spec.ts&#45;&gt;src/app.service.ts -->
<g id="edge2" class="edge">
<title>src/app.controller.spec.ts&#45;&gt;src/app.service.ts</title>
<path fill="none" stroke="#000000" stroke-width="2" stroke-opacity="0.200000" d="M238.09,-702.53C273.58,-702.9 322.2,-703.44 365,-704.01 371.98,-704.1 379.38,-704.21 386.6,-704.32"/>
<polygon fill="#000000" fill-opacity="0.200000" stroke="#000000" stroke-width="2" stroke-opacity="0.200000" points="386.55,-706.42 392.58,-704.41 386.61,-702.22 386.55,-706.42"/>
</g>
<!-- src/app.controller.ts&#45;&gt;node_modules/@nestjs/common -->
<g id="edge5" class="edge">
<title>src/app.controller.ts&#45;&gt;node_modules/@nestjs/common</title>
<path fill="none" stroke="#000000" stroke-opacity="0.200000" d="M310.54,-720.94C312.24,-656.96 331.03,-276.01 537.75,-276.01 537.75,-276.01 537.75,-276.01 643.12,-276.01 711.77,-276.01 748.08,-243.6 796.75,-292.01 808.32,-303.52 794.1,-352.64 804.75,-365.01 810.62,-371.83 819.19,-375.73 827.9,-377.91"/>
<polygon fill="#000000" fill-opacity="0.200000" stroke="#000000" stroke-opacity="0.200000" points="827.41,-379.96 833.71,-379.07 828.24,-375.84 827.41,-379.96"/>
</g>
<!-- src/app.controller.ts&#45;&gt;src/app.service.ts -->
<g id="edge4" class="edge">
<title>src/app.controller.ts&#45;&gt;src/app.service.ts</title>
<path fill="none" stroke="#000000" stroke-width="2" stroke-opacity="0.200000" d="M350.12,-721.76C362.03,-719.28 375.14,-716.56 387.27,-714.04"/>
<polygon fill="#000000" fill-opacity="0.200000" stroke="#000000" stroke-width="2" stroke-opacity="0.200000" points="387.49,-716.14 392.93,-712.87 386.63,-712.03 387.49,-716.14"/>
</g>
<!-- src/auth/auth.service.ts -->
<g id="node21" class="node">
<title>src/auth/auth.service.ts</title>
<g id="a_node21"><a xlink:href="src/auth/auth.service.ts" xlink:title="auth.service.ts">
<path fill="#ddfeff" stroke="black" d="M673.08,-922.89C673.08,-922.89 611.17,-922.89 611.17,-922.89 608.21,-922.89 605.25,-919.93 605.25,-916.97 605.25,-916.97 605.25,-911.05 605.25,-911.05 605.25,-908.09 608.21,-905.14 611.17,-905.14 611.17,-905.14 673.08,-905.14 673.08,-905.14 676.04,-905.14 679,-908.09 679,-911.05 679,-911.05 679,-916.97 679,-916.97 679,-919.93 676.04,-922.89 673.08,-922.89"/>
<text text-anchor="start" x="613.25" y="-910.34" font-family="Helvetica,sans-Serif" font-size="9.00">auth.service.ts</text>
</a>
</g>
</g>
<!-- src/app.controller.ts&#45;&gt;src/auth/auth.service.ts -->
<g id="edge6" class="edge">
<title>src/app.controller.ts&#45;&gt;src/auth/auth.service.ts</title>
<path fill="none" stroke="#000000" stroke-width="2" stroke-opacity="0.200000" d="M349.88,-725.86C418.32,-719.63 554.73,-711.76 587,-744.01 599.35,-756.36 584.11,-887.36 595,-901.01 595.84,-902.07 596.77,-903.04 597.75,-903.94"/>
<polygon fill="#000000" fill-opacity="0.200000" stroke="#000000" stroke-width="2" stroke-opacity="0.200000" points="596.41,-905.57 602.56,-907.16 598.74,-902.08 596.41,-905.57"/>
</g>
<!-- src/auth/jwt&#45;auth.guard.ts -->
<g id="node22" class="node">
<title>src/auth/jwt&#45;auth.guard.ts</title>
<g id="a_node22"><a xlink:href="src/auth/jwt-auth.guard.ts" xlink:title="jwt&#45;auth.guard.ts">
<path fill="#ddfeff" stroke="black" d="M467.58,-952.89C467.58,-952.89 395.92,-952.89 395.92,-952.89 392.96,-952.89 390,-949.93 390,-946.97 390,-946.97 390,-941.05 390,-941.05 390,-938.09 392.96,-935.14 395.92,-935.14 395.92,-935.14 467.58,-935.14 467.58,-935.14 470.54,-935.14 473.5,-938.09 473.5,-941.05 473.5,-941.05 473.5,-946.97 473.5,-946.97 473.5,-949.93 470.54,-952.89 467.58,-952.89"/>
<text text-anchor="start" x="398" y="-940.34" font-family="Helvetica,sans-Serif" font-size="9.00">jwt&#45;auth.guard.ts</text>
</a>
</g>
</g>
<!-- src/app.controller.ts&#45;&gt;src/auth/jwt&#45;auth.guard.ts -->
<g id="edge7" class="edge">
<title>src/app.controller.ts&#45;&gt;src/auth/jwt&#45;auth.guard.ts</title>
<path fill="none" stroke="#000000" stroke-width="2" stroke-opacity="0.200000" d="M349.97,-733.81C355.74,-736.02 361.05,-739.27 365,-744.01 391.38,-775.67 351.9,-897.02 377.88,-929.01 379.17,-930.61 380.62,-932.04 382.19,-933.33"/>
<polygon fill="#000000" fill-opacity="0.200000" stroke="#000000" stroke-width="2" stroke-opacity="0.200000" points="380.99,-935.05 387.19,-936.47 383.23,-931.49 380.99,-935.05"/>
</g>
<!-- src/auth/local&#45;auth.guard.ts -->
<g id="node23" class="node">
<title>src/auth/local&#45;auth.guard.ts</title>
<g id="a_node23"><a xlink:href="src/auth/local-auth.guard.ts" xlink:title="local&#45;auth.guard.ts">
<path fill="#ddfeff" stroke="black" d="M471.71,-922.89C471.71,-922.89 391.79,-922.89 391.79,-922.89 388.83,-922.89 385.88,-919.93 385.88,-916.97 385.88,-916.97 385.88,-911.05 385.88,-911.05 385.88,-908.09 388.83,-905.14 391.79,-905.14 391.79,-905.14 471.71,-905.14 471.71,-905.14 474.67,-905.14 477.62,-908.09 477.62,-911.05 477.62,-911.05 477.62,-916.97 477.62,-916.97 477.62,-919.93 474.67,-922.89 471.71,-922.89"/>
<text text-anchor="start" x="393.88" y="-910.34" font-family="Helvetica,sans-Serif" font-size="9.00">local&#45;auth.guard.ts</text>
</a>
</g>
</g>
<!-- src/app.controller.ts&#45;&gt;src/auth/local&#45;auth.guard.ts -->
<g id="edge8" class="edge">
<title>src/app.controller.ts&#45;&gt;src/auth/local&#45;auth.guard.ts</title>
<path fill="none" stroke="#000000" stroke-width="2" stroke-opacity="0.200000" d="M349.9,-733.86C355.68,-736.07 361.01,-739.31 365,-744.01 386.35,-769.19 358.38,-865.37 377.88,-892.01 380.12,-895.08 382.88,-897.72 385.94,-900"/>
<polygon fill="#000000" fill-opacity="0.200000" stroke="#000000" stroke-width="2" stroke-opacity="0.200000" points="384.75,-901.74 390.96,-903.09 386.95,-898.16 384.75,-901.74"/>
</g>
<!-- src/app.service.ts&#45;&gt;node_modules/@nestjs/common -->
<g id="edge19" class="edge">
<title>src/app.service.ts&#45;&gt;node_modules/@nestjs/common</title>
<path fill="none" stroke="#000000" stroke-opacity="0.200000" d="M434.96,-695.99C443.05,-662.57 471.36,-542.54 485.5,-442.01 487.02,-431.19 485.47,-351.42 493.5,-344.01 543.05,-298.34 741.26,-305.77 796.75,-344.01 804.97,-349.68 797.32,-358.33 804.75,-365.01 811.14,-370.76 819.47,-374.35 827.78,-376.57"/>
<polygon fill="#000000" fill-opacity="0.200000" stroke="#000000" stroke-opacity="0.200000" points="827.23,-378.6 833.55,-377.87 828.15,-374.51 827.23,-378.6"/>
</g>
<!-- src/auth/auth.service.ts&#45;&gt;node_modules/@nestjs/common -->
<g id="edge29" class="edge">
<title>src/auth/auth.service.ts&#45;&gt;node_modules/@nestjs/common</title>
<path fill="none" stroke="#000000" stroke-opacity="0.200000" d="M648.3,-904.64C657.7,-887.26 677.67,-848.65 689.25,-814.01 694.58,-798.05 691.32,-792.76 697.25,-777.01 729.33,-691.83 772.18,-685.65 796.75,-598.01 802.84,-576.28 790.63,-412.62 804.75,-395.01 810.43,-387.93 819.02,-383.96 827.82,-381.79"/>
<polygon fill="#000000" fill-opacity="0.200000" stroke="#000000" stroke-opacity="0.200000" points="828.22,-383.86 833.71,-380.66 827.42,-379.73 828.22,-383.86"/>
</g>
<!-- src/auth/auth.service.ts&#45;&gt;node_modules/@nestjs/jwt -->
<g id="edge30" class="edge">
<title>src/auth/auth.service.ts&#45;&gt;node_modules/@nestjs/jwt</title>
<path fill="none" stroke="#000000" stroke-opacity="0.200000" d="M661.45,-904.75C695.52,-886.37 767.79,-841.68 796.75,-780.01 804.43,-763.66 793.56,-469.18 804.75,-455.01 810.43,-447.82 819.13,-443.83 828.02,-441.68"/>
<polygon fill="#000000" fill-opacity="0.200000" stroke="#000000" stroke-opacity="0.200000" points="828.15,-443.79 833.65,-440.6 827.36,-439.66 828.15,-443.79"/>
</g>
<!-- src/user/user.service.ts -->
<g id="node32" class="node">
<title>src/user/user.service.ts</title>
<g id="a_node32"><a xlink:href="src/user/user.service.ts" xlink:title="user.service.ts">
<path fill="#ddfeff" stroke="black" d="M777.58,-1042.89C777.58,-1042.89 716.42,-1042.89 716.42,-1042.89 713.46,-1042.89 710.5,-1039.93 710.5,-1036.97 710.5,-1036.97 710.5,-1031.05 710.5,-1031.05 710.5,-1028.09 713.46,-1025.14 716.42,-1025.14 716.42,-1025.14 777.58,-1025.14 777.58,-1025.14 780.54,-1025.14 783.5,-1028.09 783.5,-1031.05 783.5,-1031.05 783.5,-1036.97 783.5,-1036.97 783.5,-1039.93 780.54,-1042.89 777.58,-1042.89"/>
<text text-anchor="start" x="718.5" y="-1030.34" font-family="Helvetica,sans-Serif" font-size="9.00">user.service.ts</text>
</a>
</g>
</g>
<!-- src/auth/auth.service.ts&#45;&gt;src/user/user.service.ts -->
<g id="edge28" class="edge">
<title>src/auth/auth.service.ts&#45;&gt;src/user/user.service.ts</title>
<path fill="none" stroke="#000000" stroke-width="2" stroke-opacity="0.200000" d="M650.86,-923.03C668.21,-943.27 710.44,-992.53 732.33,-1018.07"/>
<polygon fill="#000000" fill-opacity="0.200000" stroke="#000000" stroke-width="2" stroke-opacity="0.200000" points="730.71,-1019.4 736.21,-1022.59 733.9,-1016.67 730.71,-1019.4"/>
</g>
<!-- src/auth/jwt&#45;auth.guard.ts&#45;&gt;node_modules/@nestjs/common -->
<g id="edge31" class="edge">
<title>src/auth/jwt&#45;auth.guard.ts&#45;&gt;node_modules/@nestjs/common</title>
<path fill="none" stroke="#000000" stroke-opacity="0.200000" d="M473.82,-938.2C478.34,-935.98 482.41,-933 485.5,-929.01 507.09,-901.17 475.98,-642.58 493.5,-612.01 517.82,-569.58 561.12,-595.5 587,-554.01 596.45,-538.85 583.84,-487.96 595,-474.01 624.52,-437.13 759.19,-435.67 796.75,-407.01 801.85,-403.12 799.54,-398.74 804.75,-395.01 811.68,-390.06 820.14,-386.74 828.38,-384.52"/>
<polygon fill="#000000" fill-opacity="0.200000" stroke="#000000" stroke-opacity="0.200000" points="828.39,-386.67 833.75,-383.25 827.42,-382.59 828.39,-386.67"/>
</g>
<!-- src/auth/jwt&#45;auth.guard.ts&#45;&gt;node_modules/@nestjs/passport -->
<g id="edge32" class="edge">
<title>src/auth/jwt&#45;auth.guard.ts&#45;&gt;node_modules/@nestjs/passport</title>
<path fill="none" stroke="#000000" stroke-opacity="0.200000" d="M473.8,-938.18C478.32,-935.97 482.4,-932.99 485.5,-929.01 503.61,-905.78 477.65,-688.84 493.5,-664.01 513.78,-632.24 775.5,-543.14 796.75,-512.01 807.7,-495.98 792.21,-439.83 804.75,-425.01 810.56,-418.14 819.11,-414.23 827.82,-412.04"/>
<polygon fill="#000000" fill-opacity="0.200000" stroke="#000000" stroke-opacity="0.200000" points="828.16,-414.12 833.64,-410.89 827.34,-410 828.16,-414.12"/>
</g>
<!-- src/auth/local&#45;auth.guard.ts&#45;&gt;node_modules/@nestjs/common -->
<g id="edge37" class="edge">
<title>src/auth/local&#45;auth.guard.ts&#45;&gt;node_modules/@nestjs/common</title>
<path fill="none" stroke="#000000" stroke-opacity="0.200000" d="M470.41,-904.72C476.35,-901.62 481.75,-897.5 485.5,-892.01 506.33,-861.55 471.54,-589.67 493.5,-560.01 519.55,-524.83 559.66,-563.2 587,-529.01 598.3,-514.88 583.21,-461.73 595,-448.01 625.26,-412.79 763.38,-391.83 827.99,-383.8"/>
<polygon fill="#000000" fill-opacity="0.200000" stroke="#000000" stroke-opacity="0.200000" points="827.92,-385.92 833.62,-383.11 827.41,-381.76 827.92,-385.92"/>
</g>
<!-- src/auth/local&#45;auth.guard.ts&#45;&gt;node_modules/@nestjs/passport -->
<g id="edge38" class="edge">
<title>src/auth/local&#45;auth.guard.ts&#45;&gt;node_modules/@nestjs/passport</title>
<path fill="none" stroke="#000000" stroke-opacity="0.200000" d="M470.38,-904.69C476.32,-901.6 481.73,-897.48 485.5,-892.01 501.53,-868.76 478.85,-662.15 493.5,-638.01 573.69,-505.94 706.73,-593.59 796.75,-468.01 808.07,-452.21 791.53,-439.26 804.75,-425.01 810.82,-418.48 819.37,-414.66 827.99,-412.46"/>
<polygon fill="#000000" fill-opacity="0.200000" stroke="#000000" stroke-opacity="0.200000" points="828.27,-414.54 833.72,-411.28 827.42,-410.43 828.27,-414.54"/>
</g>
<!-- src/app.module.ts -->
<g id="node24" class="node">
<title>src/app.module.ts</title>
<g id="a_node24"><a xlink:href="src/app.module.ts" xlink:title="app.module.ts">
<path fill="#ddfeff" stroke="black" d="M217.21,-740.89C217.21,-740.89 156.04,-740.89 156.04,-740.89 153.08,-740.89 150.12,-737.93 150.12,-734.97 150.12,-734.97 150.12,-729.05 150.12,-729.05 150.12,-726.09 153.08,-723.14 156.04,-723.14 156.04,-723.14 217.21,-723.14 217.21,-723.14 220.17,-723.14 223.12,-726.09 223.12,-729.05 223.12,-729.05 223.12,-734.97 223.12,-734.97 223.12,-737.93 220.17,-740.89 217.21,-740.89"/>
<text text-anchor="start" x="158.12" y="-728.34" font-family="Helvetica,sans-Serif" font-size="9.00">app.module.ts</text>
</a>
</g>
</g>
<!-- src/app.module.ts&#45;&gt;node_modules/@nestjs/common -->
<g id="edge13" class="edge">
<title>src/app.module.ts&#45;&gt;node_modules/@nestjs/common</title>
<path fill="none" stroke="#000000" stroke-opacity="0.200000" d="M223.39,-727.31C228.96,-725.03 234.07,-721.74 237.75,-717.01 250.79,-700.24 240.05,-546.47 245.75,-526.01 285.38,-383.75 283.08,-250.01 430.75,-250.01 430.75,-250.01 430.75,-250.01 643.12,-250.01 677.37,-250.01 772.54,-237.79 796.75,-262.01 812.98,-278.25 790.05,-347.38 804.75,-365.01 810.51,-371.92 819.05,-375.85 827.76,-378.03"/>
<polygon fill="#000000" fill-opacity="0.200000" stroke="#000000" stroke-opacity="0.200000" points="827.28,-380.08 833.58,-379.18 828.1,-375.96 827.28,-380.08"/>
</g>
<!-- src/app.module.ts&#45;&gt;node_modules/@nestjs/config -->
<g id="edge14" class="edge">
<title>src/app.module.ts&#45;&gt;node_modules/@nestjs/config</title>
<path fill="none" stroke="#000000" stroke-opacity="0.200000" d="M223.49,-727.38C229.04,-725.1 234.13,-721.79 237.75,-717.01 253.13,-696.73 234.65,-281.91 245.75,-259.01 278.84,-190.77 307.67,-179.7 377.88,-151.01 550.62,-80.42 661.39,6.45 796.75,-122.01 809.1,-133.73 794.02,-261.8 804.75,-275.01 810.47,-282.06 819.08,-286.01 827.88,-288.18"/>
<polygon fill="#000000" fill-opacity="0.200000" stroke="#000000" stroke-opacity="0.200000" points="827.47,-290.24 833.76,-289.32 828.27,-286.12 827.47,-290.24"/>
</g>
<!-- src/app.module.ts&#45;&gt;node_modules/@nestjs/mongoose -->
<g id="edge15" class="edge">
<title>src/app.module.ts&#45;&gt;node_modules/@nestjs/mongoose</title>
<g id="a_edge15"><a xlink:title="no&#45;non&#45;package&#45;json">
<path fill="none" stroke="red" d="M223.44,-725.26C228.61,-723.2 233.58,-720.52 237.75,-717.01 243.84,-711.9 241.15,-707.5 245.75,-701.01 337.28,-571.81 347.72,-506.8 493.5,-445.01 552.59,-419.97 744.77,-449.47 825.38,-463.45"/>
<polygon fill="red" stroke="red" points="824.61,-465.45 830.88,-464.41 825.33,-461.31 824.61,-465.45"/>
</a>
</g>
<text text-anchor="middle" x="449.63" y="-436.46" font-family="Helvetica,sans-Serif" font-size="9.00" fill="red">no&#45;non&#45;package&#45;json</text>
</g>
<!-- src/app.module.ts&#45;&gt;src/app.controller.ts -->
<g id="edge9" class="edge">
<title>src/app.module.ts&#45;&gt;src/app.controller.ts</title>
<path fill="none" stroke="#000000" stroke-width="2" stroke-opacity="0.200000" d="M223.53,-731.42C235.05,-731.23 248.01,-731.01 260.26,-730.81"/>
<polygon fill="#000000" fill-opacity="0.200000" stroke="#000000" stroke-width="2" stroke-opacity="0.200000" points="260.04,-732.91 266,-730.71 259.97,-728.71 260.04,-732.91"/>
</g>
<!-- src/app.module.ts&#45;&gt;src/app.service.ts -->
<g id="edge10" class="edge">
<title>src/app.module.ts&#45;&gt;src/app.service.ts</title>
<path fill="none" stroke="#000000" stroke-width="2" stroke-opacity="0.200000" d="M218.39,-722.68C230.74,-719 242.77,-715.52 245.75,-715.01 293.59,-706.83 349.31,-704.82 387,-704.55"/>
<polygon fill="#000000" fill-opacity="0.200000" stroke="#000000" stroke-width="2" stroke-opacity="0.200000" points="386.69,-706.65 392.68,-704.53 386.67,-702.45 386.69,-706.65"/>
</g>
<!-- src/auth/auth.module.ts -->
<g id="node25" class="node">
<title>src/auth/auth.module.ts</title>
<g id="a_node25"><a xlink:href="src/auth/auth.module.ts" xlink:title="auth.module.ts">
<path fill="#ddfeff" stroke="black" d="M463.46,-982.89C463.46,-982.89 400.04,-982.89 400.04,-982.89 397.08,-982.89 394.12,-979.93 394.12,-976.97 394.12,-976.97 394.12,-971.05 394.12,-971.05 394.12,-968.09 397.08,-965.14 400.04,-965.14 400.04,-965.14 463.46,-965.14 463.46,-965.14 466.42,-965.14 469.38,-968.09 469.38,-971.05 469.38,-971.05 469.38,-976.97 469.38,-976.97 469.38,-979.93 466.42,-982.89 463.46,-982.89"/>
<text text-anchor="start" x="402.12" y="-970.34" font-family="Helvetica,sans-Serif" font-size="9.00">auth.module.ts</text>
</a>
</g>
</g>
<!-- src/app.module.ts&#45;&gt;src/auth/auth.module.ts -->
<g id="edge11" class="edge">
<title>src/app.module.ts&#45;&gt;src/auth/auth.module.ts</title>
<path fill="none" stroke="#000000" stroke-width="2" stroke-opacity="0.200000" d="M189.72,-741.05C195.4,-764.02 212.93,-825.7 245.75,-866.01 291.09,-921.7 313.05,-928.11 377.88,-959.01 380.37,-960.2 382.98,-961.32 385.65,-962.35"/>
<polygon fill="#000000" fill-opacity="0.200000" stroke="#000000" stroke-width="2" stroke-opacity="0.200000" points="384.54,-964.19 390.9,-964.23 385.96,-960.23 384.54,-964.19"/>
</g>
<!-- src/user/user.module.ts -->
<g id="node26" class="node">
<title>src/user/user.module.ts</title>
<g id="a_node26"><a xlink:href="src/user/user.module.ts" xlink:title="user.module.ts">
<path fill="#ddfeff" stroke="black" d="M570.08,-1042.89C570.08,-1042.89 507.42,-1042.89 507.42,-1042.89 504.46,-1042.89 501.5,-1039.93 501.5,-1036.97 501.5,-1036.97 501.5,-1031.05 501.5,-1031.05 501.5,-1028.09 504.46,-1025.14 507.42,-1025.14 507.42,-1025.14 570.08,-1025.14 570.08,-1025.14 573.04,-1025.14 576,-1028.09 576,-1031.05 576,-1031.05 576,-1036.97 576,-1036.97 576,-1039.93 573.04,-1042.89 570.08,-1042.89"/>
<text text-anchor="start" x="509.5" y="-1030.34" font-family="Helvetica,sans-Serif" font-size="9.00">user.module.ts</text>
</a>
</g>
</g>
<!-- src/app.module.ts&#45;&gt;src/user/user.module.ts -->
<g id="edge12" class="edge">
<title>src/app.module.ts&#45;&gt;src/user/user.module.ts</title>
<path fill="none" stroke="#000000" stroke-width="2" stroke-opacity="0.200000" d="M188.59,-741.16C191.93,-769.3 205.14,-856.03 245.75,-913.01 288.34,-972.76 310,-984.12 377.88,-1012.01 414.47,-1027.05 459.35,-1032.19 492.23,-1033.78"/>
<polygon fill="#000000" fill-opacity="0.200000" stroke="#000000" stroke-width="2" stroke-opacity="0.200000" points="492.06,-1035.87 498.14,-1034.02 492.23,-1031.68 492.06,-1035.87"/>
</g>
<!-- src/config/configuration.ts -->
<g id="node27" class="node">
<title>src/config/configuration.ts</title>
<g id="a_node27"><a xlink:href="src/config/configuration.ts" xlink:title="configuration.ts">
<path fill="#ddfeff" stroke="black" d="M675.33,-1172.89C675.33,-1172.89 608.92,-1172.89 608.92,-1172.89 605.96,-1172.89 603,-1169.93 603,-1166.97 603,-1166.97 603,-1161.05 603,-1161.05 603,-1158.09 605.96,-1155.14 608.92,-1155.14 608.92,-1155.14 675.33,-1155.14 675.33,-1155.14 678.29,-1155.14 681.25,-1158.09 681.25,-1161.05 681.25,-1161.05 681.25,-1166.97 681.25,-1166.97 681.25,-1169.93 678.29,-1172.89 675.33,-1172.89"/>
<text text-anchor="start" x="611" y="-1160.34" font-family="Helvetica,sans-Serif" font-size="9.00">configuration.ts</text>
</a>
</g>
</g>
<!-- src/app.module.ts&#45;&gt;src/config/configuration.ts -->
<g id="edge16" class="edge">
<title>src/app.module.ts&#45;&gt;src/config/configuration.ts</title>
<path fill="none" stroke="#000000" stroke-width="2" stroke-opacity="0.200000" d="M187.82,-741.24C188.94,-774.2 196.36,-888.09 245.75,-963.01 321.97,-1078.64 364.2,-1102.4 493.5,-1152.01 525.37,-1164.24 563.89,-1167.01 593.59,-1166.85"/>
<polygon fill="#000000" fill-opacity="0.200000" stroke="#000000" stroke-width="2" stroke-opacity="0.200000" points="593.51,-1168.95 599.48,-1166.76 593.45,-1164.75 593.51,-1168.95"/>
</g>
<!-- src/config/validation.ts -->
<g id="node28" class="node">
<title>src/config/validation.ts</title>
<g id="a_node28"><a xlink:href="src/config/validation.ts" xlink:title="validation.ts">
<path fill="#ddfeff" stroke="black" d="M668.58,-1202.89C668.58,-1202.89 615.67,-1202.89 615.67,-1202.89 612.71,-1202.89 609.75,-1199.93 609.75,-1196.97 609.75,-1196.97 609.75,-1191.05 609.75,-1191.05 609.75,-1188.09 612.71,-1185.14 615.67,-1185.14 615.67,-1185.14 668.58,-1185.14 668.58,-1185.14 671.54,-1185.14 674.5,-1188.09 674.5,-1191.05 674.5,-1191.05 674.5,-1196.97 674.5,-1196.97 674.5,-1199.93 671.54,-1202.89 668.58,-1202.89"/>
<text text-anchor="start" x="617.75" y="-1190.34" font-family="Helvetica,sans-Serif" font-size="9.00">validation.ts</text>
</a>
</g>
</g>
<!-- src/app.module.ts&#45;&gt;src/config/validation.ts -->
<g id="edge17" class="edge">
<title>src/app.module.ts&#45;&gt;src/config/validation.ts</title>
<path fill="none" stroke="#000000" stroke-width="2" stroke-opacity="0.200000" d="M188.52,-741.28C192.98,-786.13 213.89,-980.46 245.75,-1031.01 323.85,-1154.95 516.43,-1184.67 600.63,-1191.78"/>
<polygon fill="#000000" fill-opacity="0.200000" stroke="#000000" stroke-width="2" stroke-opacity="0.200000" points="600.22,-1193.85 606.37,-1192.23 600.55,-1189.67 600.22,-1193.85"/>
</g>
<!-- src/image/image.module.ts -->
<g id="node29" class="node">
<title>src/image/image.module.ts</title>
<g id="a_node29"><a xlink:href="src/image/image.module.ts" xlink:title="image.module.ts">
<path fill="#ddfeff" stroke="black" d="M344.46,-802.89C344.46,-802.89 274.29,-802.89 274.29,-802.89 271.33,-802.89 268.38,-799.93 268.38,-796.97 268.38,-796.97 268.38,-791.05 268.38,-791.05 268.38,-788.09 271.33,-785.14 274.29,-785.14 274.29,-785.14 344.46,-785.14 344.46,-785.14 347.42,-785.14 350.38,-788.09 350.38,-791.05 350.38,-791.05 350.38,-796.97 350.38,-796.97 350.38,-799.93 347.42,-802.89 344.46,-802.89"/>
<text text-anchor="start" x="276.38" y="-790.34" font-family="Helvetica,sans-Serif" font-size="9.00">image.module.ts</text>
</a>
</g>
</g>
<!-- src/app.module.ts&#45;&gt;src/image/image.module.ts -->
<g id="edge18" class="edge">
<title>src/app.module.ts&#45;&gt;src/image/image.module.ts</title>
<path fill="none" stroke="#000000" stroke-width="2" stroke-opacity="0.200000" d="M196.2,-741.06C206.82,-751.74 225.96,-769.27 245.75,-779.01 250.08,-781.14 254.72,-782.98 259.46,-784.56"/>
<polygon fill="#000000" fill-opacity="0.200000" stroke="#000000" stroke-width="2" stroke-opacity="0.200000" points="258.78,-786.55 265.13,-786.27 259.99,-782.53 258.78,-786.55"/>
</g>
<!-- src/auth/auth.module.ts&#45;&gt;node_modules/@nestjs/common -->
<g id="edge23" class="edge">
<title>src/auth/auth.module.ts&#45;&gt;node_modules/@nestjs/common</title>
<path fill="none" stroke="#000000" stroke-opacity="0.200000" d="M469.62,-970C475.78,-967.68 481.47,-964.2 485.5,-959.01 506.55,-931.88 476.3,-679.74 493.5,-650.01 517.88,-607.89 561.39,-634.4 587,-593.01 598.03,-575.18 582.06,-515.5 595,-499.01 609.6,-480.4 780.94,-448.6 796.75,-431.01 807.71,-418.82 793.39,-406.83 804.75,-395.01 810.87,-388.64 819.36,-384.86 827.91,-382.66"/>
<polygon fill="#000000" fill-opacity="0.200000" stroke="#000000" stroke-opacity="0.200000" points="828.13,-384.75 833.57,-381.46 827.26,-380.64 828.13,-384.75"/>
</g>
<!-- src/auth/auth.module.ts&#45;&gt;node_modules/@nestjs/jwt -->
<g id="edge24" class="edge">
<title>src/auth/auth.module.ts&#45;&gt;node_modules/@nestjs/jwt</title>
<path fill="none" stroke="#000000" stroke-opacity="0.200000" d="M469.84,-969.86C475.91,-967.55 481.5,-964.1 485.5,-959.01 500.26,-940.21 477.47,-761.74 493.5,-744.01 584.76,-643.09 705.73,-803.15 796.75,-702.01 815.12,-681.6 787.65,-476.49 804.75,-455.01 810.46,-447.84 819.16,-443.86 828.05,-441.71"/>
<polygon fill="#000000" fill-opacity="0.200000" stroke="#000000" stroke-opacity="0.200000" points="828.18,-443.82 833.68,-440.63 827.39,-439.69 828.18,-443.82"/>
</g>
<!-- src/auth/auth.module.ts&#45;&gt;node_modules/@nestjs/passport -->
<g id="edge25" class="edge">
<title>src/auth/auth.module.ts&#45;&gt;node_modules/@nestjs/passport</title>
<path fill="none" stroke="#000000" stroke-opacity="0.200000" d="M469.87,-969.88C475.93,-967.57 481.52,-964.12 485.5,-959.01 502.8,-936.84 478.57,-729.84 493.5,-706.01 513.7,-673.77 776.01,-578.9 796.75,-547.01 811.56,-524.24 787.48,-445.98 804.75,-425.01 810.47,-418.07 818.99,-414.13 827.71,-411.95"/>
<polygon fill="#000000" fill-opacity="0.200000" stroke="#000000" stroke-opacity="0.200000" points="828.05,-414.02 833.53,-410.8 827.23,-409.9 828.05,-414.02"/>
</g>
<!-- src/auth/auth.module.ts&#45;&gt;src/auth/auth.service.ts -->
<g id="edge20" class="edge">
<title>src/auth/auth.module.ts&#45;&gt;src/auth/auth.service.ts</title>
<path fill="none" stroke="#000000" stroke-width="2" stroke-opacity="0.200000" d="M469.75,-976.39C501.95,-977.09 549.26,-974.76 587,-959.01 602.73,-952.45 617.38,-939.68 627.46,-929.42"/>
<polygon fill="#000000" fill-opacity="0.200000" stroke="#000000" stroke-width="2" stroke-opacity="0.200000" points="628.73,-931.14 631.32,-925.33 625.68,-928.25 628.73,-931.14"/>
</g>
<!-- src/auth/auth.module.ts&#45;&gt;src/user/user.module.ts -->
<g id="edge27" class="edge">
<title>src/auth/auth.module.ts&#45;&gt;src/user/user.module.ts</title>
<path fill="none" stroke="#000000" stroke-width="2" stroke-opacity="0.200000" d="M469.81,-978.03C475.59,-980.02 481.09,-982.89 485.5,-987.01 494.03,-994.97 485.9,-1003.16 493.5,-1012.01 496.22,-1015.18 499.51,-1017.94 503.05,-1020.33"/>
<polygon fill="#000000" fill-opacity="0.200000" stroke="#000000" stroke-width="2" stroke-opacity="0.200000" points="501.71,-1021.98 507.95,-1023.2 503.84,-1018.36 501.71,-1021.98"/>
</g>
<!-- src/auth/auth.module.ts&#45;&gt;src/config/configuration.ts -->
<g id="edge26" class="edge">
<title>src/auth/auth.module.ts&#45;&gt;src/config/configuration.ts</title>
<path fill="none" stroke="#000000" stroke-width="2" stroke-opacity="0.200000" d="M469.7,-976.75C475.78,-978.83 481.42,-982.07 485.5,-987.01 496.48,-1000.31 481.78,-1129.36 493.5,-1142.01 507.74,-1157.38 566.3,-1150.77 587,-1154.01 589.39,-1154.38 591.84,-1154.78 594.3,-1155.2"/>
<polygon fill="#000000" fill-opacity="0.200000" stroke="#000000" stroke-width="2" stroke-opacity="0.200000" points="593.48,-1157.18 599.75,-1156.13 594.19,-1153.05 593.48,-1157.18"/>
</g>
<!-- src/auth/jwt.strategy.ts -->
<g id="node30" class="node">
<title>src/auth/jwt.strategy.ts</title>
<g id="a_node30"><a xlink:href="src/auth/jwt.strategy.ts" xlink:title="jwt.strategy.ts">
<path fill="#ddfeff" stroke="black" d="M567.83,-952.89C567.83,-952.89 509.67,-952.89 509.67,-952.89 506.71,-952.89 503.75,-949.93 503.75,-946.97 503.75,-946.97 503.75,-941.05 503.75,-941.05 503.75,-938.09 506.71,-935.14 509.67,-935.14 509.67,-935.14 567.83,-935.14 567.83,-935.14 570.79,-935.14 573.75,-938.09 573.75,-941.05 573.75,-941.05 573.75,-946.97 573.75,-946.97 573.75,-949.93 570.79,-952.89 567.83,-952.89"/>
<text text-anchor="start" x="511.75" y="-940.34" font-family="Helvetica,sans-Serif" font-size="9.00">jwt.strategy.ts</text>
</a>
</g>
</g>
<!-- src/auth/auth.module.ts&#45;&gt;src/auth/jwt.strategy.ts -->
<g id="edge21" class="edge">
<title>src/auth/auth.module.ts&#45;&gt;src/auth/jwt.strategy.ts</title>
<path fill="none" stroke="#000000" stroke-width="2" stroke-opacity="0.200000" d="M465.68,-964.66C472.24,-962.79 479.09,-960.84 485.5,-959.01 489.07,-957.99 492.78,-956.93 496.5,-955.86"/>
<polygon fill="#000000" fill-opacity="0.200000" stroke="#000000" stroke-width="2" stroke-opacity="0.200000" points="497.04,-957.89 502.23,-954.22 495.89,-953.85 497.04,-957.89"/>
</g>
<!-- src/auth/local.strategy.ts -->
<g id="node31" class="node">
<title>src/auth/local.strategy.ts</title>
<g id="a_node31"><a xlink:href="src/auth/local.strategy.ts" xlink:title="local.strategy.ts">
<path fill="#ddfeff" stroke="black" d="M571.58,-922.89C571.58,-922.89 505.92,-922.89 505.92,-922.89 502.96,-922.89 500,-919.93 500,-916.97 500,-916.97 500,-911.05 500,-911.05 500,-908.09 502.96,-905.14 505.92,-905.14 505.92,-905.14 571.58,-905.14 571.58,-905.14 574.54,-905.14 577.5,-908.09 577.5,-911.05 577.5,-911.05 577.5,-916.97 577.5,-916.97 577.5,-919.93 574.54,-922.89 571.58,-922.89"/>
<text text-anchor="start" x="508" y="-910.34" font-family="Helvetica,sans-Serif" font-size="9.00">local.strategy.ts</text>
</a>
</g>
</g>
<!-- src/auth/auth.module.ts&#45;&gt;src/auth/local.strategy.ts -->
<g id="edge22" class="edge">
<title>src/auth/auth.module.ts&#45;&gt;src/auth/local.strategy.ts</title>
<path fill="none" stroke="#000000" stroke-width="2" stroke-opacity="0.200000" d="M469.78,-968.79C475.62,-966.56 481.16,-963.42 485.5,-959.01 495.18,-949.17 484.07,-939.09 493.5,-929.01 493.63,-928.87 493.76,-928.73 493.9,-928.59"/>
<polygon fill="#000000" fill-opacity="0.200000" stroke="#000000" stroke-width="2" stroke-opacity="0.200000" points="494.93,-930.46 498.34,-925.09 492.33,-927.16 494.93,-930.46"/>
</g>
<!-- src/user/user.module.ts&#45;&gt;node_modules/@nestjs/common -->
<g id="edge75" class="edge">
<title>src/user/user.module.ts&#45;&gt;node_modules/@nestjs/common</title>
<path fill="none" stroke="#000000" stroke-opacity="0.200000" d="M571.76,-1024.88C577.72,-1021.74 583.25,-1017.56 587,-1012.01 596.46,-997.99 590.27,-876.25 595,-860.01 618.81,-778.18 664.12,-774.45 689.25,-693.01 695.43,-672.98 684.19,-615.41 697.25,-599.01 726.18,-562.67 768.52,-603.91 796.75,-567.01 808.37,-551.82 792.73,-409.89 804.75,-395.01 810.45,-387.95 819.06,-383.99 827.85,-381.82"/>
<polygon fill="#000000" fill-opacity="0.200000" stroke="#000000" stroke-opacity="0.200000" points="828.25,-383.88 833.74,-380.68 827.45,-379.76 828.25,-383.88"/>
</g>
<!-- src/user/user.module.ts&#45;&gt;node_modules/@nestjs/mongoose -->
<g id="edge76" class="edge">
<title>src/user/user.module.ts&#45;&gt;node_modules/@nestjs/mongoose</title>
<g id="a_edge76"><a xlink:title="no&#45;non&#45;package&#45;json">
<path fill="none" stroke="red" d="M571.69,-1024.84C577.67,-1021.7 583.21,-1017.53 587,-1012.01 601.87,-990.34 578.44,-914.42 595,-894.01 653.7,-821.65 739.69,-910.68 796.75,-837.01 808.8,-821.46 792.32,-498.26 804.75,-483.01 809.84,-476.77 817.25,-473.16 825.05,-471.14"/>
<polygon fill="red" stroke="red" points="825.31,-473.23 830.78,-470 824.49,-469.11 825.31,-473.23"/>
</a>
</g>
<text text-anchor="middle" x="652.64" y="-857.45" font-family="Helvetica,sans-Serif" font-size="9.00" fill="red">no&#45;non&#45;package&#45;json</text>
</g>
<!-- src/user/user.module.ts&#45;&gt;src/user/user.service.ts -->
<g id="edge74" class="edge">
<title>src/user/user.module.ts&#45;&gt;src/user/user.service.ts</title>
<path fill="none" stroke="#000000" stroke-width="2" stroke-opacity="0.200000" d="M576.15,-1034.01C611.16,-1034.01 664.15,-1034.01 701.62,-1034.01"/>
<polygon fill="#000000" fill-opacity="0.200000" stroke="#000000" stroke-width="2" stroke-opacity="0.200000" points="701.28,-1036.11 707.28,-1034.01 701.28,-1031.91 701.28,-1036.11"/>
</g>
<!-- src/user/schemas/user.schema.ts -->
<g id="node43" class="node">
<title>src/user/schemas/user.schema.ts</title>
<g id="a_node43"><a xlink:href="src/user/schemas/user.schema.ts" xlink:title="user.schema.ts">
<path fill="#ddfeff" stroke="black" d="M894.96,-1050.89C894.96,-1050.89 830.04,-1050.89 830.04,-1050.89 827.08,-1050.89 824.12,-1047.93 824.12,-1044.97 824.12,-1044.97 824.12,-1039.05 824.12,-1039.05 824.12,-1036.09 827.08,-1033.14 830.04,-1033.14 830.04,-1033.14 894.96,-1033.14 894.96,-1033.14 897.92,-1033.14 900.88,-1036.09 900.88,-1039.05 900.88,-1039.05 900.88,-1044.97 900.88,-1044.97 900.88,-1047.93 897.92,-1050.89 894.96,-1050.89"/>
<text text-anchor="start" x="832.12" y="-1038.34" font-family="Helvetica,sans-Serif" font-size="9.00">user.schema.ts</text>
</a>
</g>
</g>
<!-- src/user/user.module.ts&#45;&gt;src/user/schemas/user.schema.ts -->
<g id="edge72" class="edge">
<title>src/user/user.module.ts&#45;&gt;src/user/schemas/user.schema.ts</title>
<path fill="none" stroke="#000000" stroke-width="2" stroke-opacity="0.200000" d="M551.49,-1043.19C562.31,-1051.33 579.07,-1063.12 595,-1071.01 638.04,-1092.33 649.87,-1098.13 697.25,-1106.01 740.87,-1113.27 755.84,-1122.82 796.75,-1106.01 820.12,-1096.41 839.55,-1073.85 850.85,-1058.25"/>
<polygon fill="#000000" fill-opacity="0.200000" stroke="#000000" stroke-width="2" stroke-opacity="0.200000" points="852.29,-1059.85 853.99,-1053.73 848.84,-1057.46 852.29,-1059.85"/>
</g>
<!-- src/user/user.controller.ts -->
<g id="node44" class="node">
<title>src/user/user.controller.ts</title>
<g id="a_node44"><a xlink:href="src/user/user.controller.ts" xlink:title="user.controller.ts">
<path fill="#ddfeff" stroke="black" d="M677.21,-1064.89C677.21,-1064.89 607.04,-1064.89 607.04,-1064.89 604.08,-1064.89 601.12,-1061.93 601.12,-1058.97 601.12,-1058.97 601.12,-1053.05 601.12,-1053.05 601.12,-1050.09 604.08,-1047.14 607.04,-1047.14 607.04,-1047.14 677.21,-1047.14 677.21,-1047.14 680.17,-1047.14 683.12,-1050.09 683.12,-1053.05 683.12,-1053.05 683.12,-1058.97 683.12,-1058.97 683.12,-1061.93 680.17,-1064.89 677.21,-1064.89"/>
<text text-anchor="start" x="609.12" y="-1052.34" font-family="Helvetica,sans-Serif" font-size="9.00">user.controller.ts</text>
</a>
</g>
</g>
<!-- src/user/user.module.ts&#45;&gt;src/user/user.controller.ts -->
<g id="edge73" class="edge">
<title>src/user/user.module.ts&#45;&gt;src/user/user.controller.ts</title>
<path fill="none" stroke="#000000" stroke-width="2" stroke-opacity="0.200000" d="M576.35,-1041.95C581.44,-1043.06 586.73,-1044.21 592,-1045.35"/>
<polygon fill="#000000" fill-opacity="0.200000" stroke="#000000" stroke-width="2" stroke-opacity="0.200000" points="591.54,-1047.4 597.85,-1046.62 592.43,-1043.29 591.54,-1047.4"/>
</g>
<!-- src/config/configuration.ts&#45;&gt;node_modules/dotenv -->
<g id="edge43" class="edge">
<title>src/config/configuration.ts&#45;&gt;node_modules/dotenv</title>
<path fill="none" stroke="#000000" stroke-opacity="0.200000" d="M674.39,-1154.74C680.21,-1151.61 685.6,-1147.47 689.25,-1142.01 708.16,-1113.7 678.63,-1017.51 697.25,-989.01 724.32,-947.58 770.28,-980.83 796.75,-939.01 806.91,-922.95 792.98,-611.93 804.75,-597.01 810.43,-589.81 819.12,-585.82 828.01,-583.67"/>
<polygon fill="#000000" fill-opacity="0.200000" stroke="#000000" stroke-opacity="0.200000" points="828.14,-585.79 833.64,-582.6 827.36,-581.66 828.14,-585.79"/>
</g>
<!-- src/config/validation.ts&#45;&gt;node_modules/joi -->
<g id="edge44" class="edge">
<title>src/config/validation.ts&#45;&gt;node_modules/joi</title>
<path fill="none" stroke="#000000" stroke-opacity="0.200000" d="M674.65,-1189.37C680.31,-1187.12 685.57,-1183.83 689.25,-1179.01 711.54,-1149.84 675.97,-1043.92 697.25,-1014.01 724.89,-975.18 769.61,-1013.19 796.75,-974.01 807.73,-958.16 792.81,-642.15 804.75,-627.01 810.43,-619.81 819.12,-615.82 828.01,-613.67"/>
<polygon fill="#000000" fill-opacity="0.200000" stroke="#000000" stroke-opacity="0.200000" points="828.14,-615.78 833.64,-612.6 827.35,-611.66 828.14,-615.78"/>
</g>
<!-- src/image/image.module.ts&#45;&gt;node_modules/@nestjs/common -->
<g id="edge60" class="edge">
<title>src/image/image.module.ts&#45;&gt;node_modules/@nestjs/common</title>
<path fill="none" stroke="#000000" stroke-opacity="0.200000" d="M350.86,-788.8C356.23,-786.54 361.19,-783.38 365,-779.01 379.3,-762.63 373.18,-703.24 377.88,-682.01 415.01,-514.21 354.99,-414.76 493.5,-313.01 520.65,-293.06 771.18,-291.07 796.75,-313.01 814.5,-328.24 789.11,-347.63 804.75,-365.01 810.71,-371.64 819.23,-375.49 827.86,-377.69"/>
<polygon fill="#000000" fill-opacity="0.200000" stroke="#000000" stroke-opacity="0.200000" points="827.3,-379.72 833.59,-378.86 828.14,-375.6 827.3,-379.72"/>
</g>
<!-- src/image/image.module.ts&#45;&gt;node_modules/@nestjs/platform&#45;express -->
<g id="edge61" class="edge">
<title>src/image/image.module.ts&#45;&gt;node_modules/@nestjs/platform&#45;express</title>
<path fill="none" stroke="#000000" stroke-opacity="0.200000" d="M350.73,-789.38C356.26,-787.05 361.3,-783.73 365,-779.01 396.63,-738.7 348.32,-359.87 377.88,-318.01 432.93,-240.04 726.9,-157.97 796.75,-223.01 815.01,-240.01 788.83,-315.8 804.75,-335.01 807.25,-338.02 810.27,-340.47 813.61,-342.45"/>
<polygon fill="#000000" fill-opacity="0.200000" stroke="#000000" stroke-opacity="0.200000" points="812.68,-344.34 818.99,-345.06 814.51,-340.55 812.68,-344.34"/>
</g>
<!-- src/image/MulterConfigService.ts -->
<g id="node33" class="node">
<title>src/image/MulterConfigService.ts</title>
<g id="a_node33"><a xlink:href="src/image/MulterConfigService.ts" xlink:title="MulterConfigService.ts">
<path fill="#ddfeff" stroke="black" d="M479.58,-802.89C479.58,-802.89 383.92,-802.89 383.92,-802.89 380.96,-802.89 378,-799.93 378,-796.97 378,-796.97 378,-791.05 378,-791.05 378,-788.09 380.96,-785.14 383.92,-785.14 383.92,-785.14 479.58,-785.14 479.58,-785.14 482.54,-785.14 485.5,-788.09 485.5,-791.05 485.5,-791.05 485.5,-796.97 485.5,-796.97 485.5,-799.93 482.54,-802.89 479.58,-802.89"/>
<text text-anchor="start" x="386" y="-790.34" font-family="Helvetica,sans-Serif" font-size="9.00">MulterConfigService.ts</text>
</a>
</g>
</g>
<!-- src/image/image.module.ts&#45;&gt;src/image/MulterConfigService.ts -->
<g id="edge59" class="edge">
<title>src/image/image.module.ts&#45;&gt;src/image/MulterConfigService.ts</title>
<path fill="none" stroke="#000000" stroke-width="2" stroke-opacity="0.200000" d="M350.79,-794.01C356.58,-794.01 362.63,-794.01 368.71,-794.01"/>
<polygon fill="#000000" fill-opacity="0.200000" stroke="#000000" stroke-width="2" stroke-opacity="0.200000" points="368.58,-796.11 374.58,-794.01 368.58,-791.91 368.58,-796.11"/>
</g>
<!-- src/image/image.controller.ts -->
<g id="node36" class="node">
<title>src/image/image.controller.ts</title>
<g id="a_node36"><a xlink:href="src/image/image.controller.ts" xlink:title="image.controller.ts">
<path fill="#ddfeff" stroke="black" d="M470.58,-772.89C470.58,-772.89 392.92,-772.89 392.92,-772.89 389.96,-772.89 387,-769.93 387,-766.97 387,-766.97 387,-761.05 387,-761.05 387,-758.09 389.96,-755.14 392.92,-755.14 392.92,-755.14 470.58,-755.14 470.58,-755.14 473.54,-755.14 476.5,-758.09 476.5,-761.05 476.5,-761.05 476.5,-766.97 476.5,-766.97 476.5,-769.93 473.54,-772.89 470.58,-772.89"/>
<text text-anchor="start" x="395" y="-760.34" font-family="Helvetica,sans-Serif" font-size="9.00">image.controller.ts</text>
</a>
</g>
</g>
<!-- src/image/image.module.ts&#45;&gt;src/image/image.controller.ts -->
<g id="edge57" class="edge">
<title>src/image/image.module.ts&#45;&gt;src/image/image.controller.ts</title>
<path fill="none" stroke="#000000" stroke-width="2" stroke-opacity="0.200000" d="M347.8,-784.68C359.47,-781.78 372.47,-778.54 384.65,-775.5"/>
<polygon fill="#000000" fill-opacity="0.200000" stroke="#000000" stroke-width="2" stroke-opacity="0.200000" points="385.09,-777.55 390.41,-774.07 384.08,-773.48 385.09,-777.55"/>
</g>
<!-- src/image/image.service.ts -->
<g id="node37" class="node">
<title>src/image/image.service.ts</title>
<g id="a_node37"><a xlink:href="src/image/image.service.ts" xlink:title="image.service.ts">
<path fill="#ddfeff" stroke="black" d="M573.08,-832.89C573.08,-832.89 504.42,-832.89 504.42,-832.89 501.46,-832.89 498.5,-829.93 498.5,-826.97 498.5,-826.97 498.5,-821.05 498.5,-821.05 498.5,-818.09 501.46,-815.14 504.42,-815.14 504.42,-815.14 573.08,-815.14 573.08,-815.14 576.04,-815.14 579,-818.09 579,-821.05 579,-821.05 579,-826.97 579,-826.97 579,-829.93 576.04,-832.89 573.08,-832.89"/>
<text text-anchor="start" x="506.5" y="-820.34" font-family="Helvetica,sans-Serif" font-size="9.00">image.service.ts</text>
</a>
</g>
</g>
<!-- src/image/image.module.ts&#45;&gt;src/image/image.service.ts -->
<g id="edge58" class="edge">
<title>src/image/image.module.ts&#45;&gt;src/image/image.service.ts</title>
<path fill="none" stroke="#000000" stroke-width="2" stroke-opacity="0.200000" d="M350.76,-799.25C356.02,-801.33 360.96,-804.16 365,-808.01 379.12,-821.49 362.18,-838.4 377.88,-850.01 418.52,-880.07 480.92,-855.09 514.47,-837.55"/>
<polygon fill="#000000" fill-opacity="0.200000" stroke="#000000" stroke-width="2" stroke-opacity="0.200000" points="515.41,-839.43 519.69,-834.73 513.41,-835.74 515.41,-839.43"/>
</g>
<!-- src/auth/jwt.strategy.ts&#45;&gt;node_modules/@nestjs/common -->
<g id="edge33" class="edge">
<title>src/auth/jwt.strategy.ts&#45;&gt;node_modules/@nestjs/common</title>
<path fill="none" stroke="#000000" stroke-opacity="0.200000" d="M573.93,-938.71C578.99,-936.48 583.63,-933.37 587,-929.01 597.15,-915.9 590.72,-796.03 595,-780.01 620.98,-682.8 623.39,-646.35 697.25,-578.01 732.36,-545.53 769.03,-575.99 796.75,-537.01 815.07,-511.25 784.77,-419.5 804.75,-395.01 810.49,-387.98 819.1,-384.02 827.9,-381.86"/>
<polygon fill="#000000" fill-opacity="0.200000" stroke="#000000" stroke-opacity="0.200000" points="828.29,-383.92 833.78,-380.72 827.49,-379.8 828.29,-383.92"/>
</g>
<!-- src/auth/jwt.strategy.ts&#45;&gt;node_modules/@nestjs/passport -->
<g id="edge34" class="edge">
<title>src/auth/jwt.strategy.ts&#45;&gt;node_modules/@nestjs/passport</title>
<path fill="none" stroke="#000000" stroke-opacity="0.200000" d="M574.04,-938.2C578.96,-936.03 583.52,-933.06 587,-929.01 601.95,-911.6 584.54,-898.43 595,-878.01 624.13,-821.16 646.1,-815.27 697.25,-777.01 737.72,-746.75 770.5,-765.18 796.75,-722.01 813.9,-693.81 784.26,-450.89 804.75,-425.01 810.44,-417.82 819.14,-413.84 828.03,-411.69"/>
<polygon fill="#000000" fill-opacity="0.200000" stroke="#000000" stroke-opacity="0.200000" points="828.16,-413.8 833.66,-410.61 827.37,-409.67 828.16,-413.8"/>
</g>
<!-- src/auth/jwt.strategy.ts&#45;&gt;node_modules/passport&#45;jwt -->
<g id="edge36" class="edge">
<title>src/auth/jwt.strategy.ts&#45;&gt;node_modules/passport&#45;jwt</title>
<path fill="none" stroke="#000000" stroke-opacity="0.200000" d="M574.16,-937.67C578.95,-935.56 583.43,-932.75 587,-929.01 596.53,-919.03 584.38,-907.82 595,-899.01 664.22,-841.62 734.75,-949.13 796.75,-884.01 808.9,-871.25 793.83,-580.83 804.75,-567.01 809.25,-561.31 815.64,-557.63 822.53,-555.27"/>
<polygon fill="#000000" fill-opacity="0.200000" stroke="#000000" stroke-opacity="0.200000" points="822.84,-557.36 828.06,-553.74 821.72,-553.32 822.84,-557.36"/>
</g>
<!-- src/auth/jwt.strategy.ts&#45;&gt;src/config/configuration.ts -->
<g id="edge35" class="edge">
<title>src/auth/jwt.strategy.ts&#45;&gt;src/config/configuration.ts</title>
<path fill="none" stroke="#000000" stroke-width="2" stroke-opacity="0.200000" d="M548.27,-953.09C559.47,-965.66 578.68,-989.58 587,-1014.01 596.18,-1040.99 579.05,-1118.39 595,-1142.01 597.07,-1145.07 599.68,-1147.72 602.61,-1150"/>
<polygon fill="#000000" fill-opacity="0.200000" stroke="#000000" stroke-width="2" stroke-opacity="0.200000" points="601.18,-1151.58 607.36,-1153.07 603.46,-1148.05 601.18,-1151.58"/>
</g>
<!-- src/auth/local.strategy.ts&#45;&gt;node_modules/@nestjs/common -->
<g id="edge40" class="edge">
<title>src/auth/local.strategy.ts&#45;&gt;node_modules/@nestjs/common</title>
<path fill="none" stroke="#000000" stroke-opacity="0.200000" d="M572.36,-904.7C578.14,-901.59 583.43,-897.46 587,-892.01 597.34,-876.2 582.73,-566.38 595,-552.01 654.18,-482.67 736.09,-583.06 796.75,-515.01 814.53,-495.06 787.75,-415.63 804.75,-395.01 810.47,-388.07 819,-384.13 827.71,-381.95"/>
<polygon fill="#000000" fill-opacity="0.200000" stroke="#000000" stroke-opacity="0.200000" points="828.05,-384.02 833.53,-380.8 827.24,-379.9 828.05,-384.02"/>
</g>
<!-- src/auth/local.strategy.ts&#45;&gt;node_modules/@nestjs/passport -->
<g id="edge41" class="edge">
<title>src/auth/local.strategy.ts&#45;&gt;node_modules/@nestjs/passport</title>
<path fill="none" stroke="#000000" stroke-opacity="0.200000" d="M572.27,-904.64C578.05,-901.53 583.37,-897.42 587,-892.01 597.89,-875.75 581.32,-730.02 595,-716.01 657.79,-651.7 734.49,-766.84 796.75,-702.01 818.08,-679.8 785.61,-449.13 804.75,-425.01 810.45,-417.83 819.15,-413.84 828.04,-411.69"/>
<polygon fill="#000000" fill-opacity="0.200000" stroke="#000000" stroke-opacity="0.200000" points="828.17,-413.81 833.67,-410.62 827.38,-409.68 828.17,-413.81"/>
</g>
<!-- src/auth/local.strategy.ts&#45;&gt;node_modules/passport&#45;local -->
<g id="edge42" class="edge">
<title>src/auth/local.strategy.ts&#45;&gt;node_modules/passport&#45;local</title>
<path fill="none" stroke="#000000" stroke-opacity="0.200000" d="M567.01,-904.76C574.06,-901.49 581.27,-897.28 587,-892.01 592.27,-887.16 588.94,-881.84 595,-878.01 633.02,-854.02 765.76,-895.58 796.75,-863.01 809.24,-849.89 793.52,-551.23 804.75,-537.01 808.35,-532.46 813.15,-529.19 818.45,-526.85"/>
<polygon fill="#000000" fill-opacity="0.200000" stroke="#000000" stroke-opacity="0.200000" points="819.01,-528.89 823.95,-524.89 817.59,-524.93 819.01,-528.89"/>
</g>
<!-- src/auth/local.strategy.ts&#45;&gt;src/auth/auth.service.ts -->
<g id="edge39" class="edge">
<title>src/auth/local.strategy.ts&#45;&gt;src/auth/auth.service.ts</title>
<path fill="none" stroke="#000000" stroke-width="2" stroke-opacity="0.200000" d="M577.79,-914.01C583.75,-914.01 589.96,-914.01 596.07,-914.01"/>
<polygon fill="#000000" fill-opacity="0.200000" stroke="#000000" stroke-width="2" stroke-opacity="0.200000" points="595.86,-916.11 601.86,-914.01 595.86,-911.91 595.86,-916.11"/>
</g>
<!-- src/user/user.service.ts&#45;&gt;node_modules/@nestjs/common -->
<g id="edge78" class="edge">
<title>src/user/user.service.ts&#45;&gt;node_modules/@nestjs/common</title>
<path fill="none" stroke="#000000" stroke-opacity="0.200000" d="M754.53,-1024.88C765.74,-1008.59 788.27,-973.01 796.75,-939.01 800.41,-924.35 795.44,-406.92 804.75,-395.01 810.4,-387.79 819.08,-383.79 827.97,-381.64"/>
<polygon fill="#000000" fill-opacity="0.200000" stroke="#000000" stroke-opacity="0.200000" points="828.1,-383.75 833.61,-380.57 827.32,-379.63 828.1,-383.75"/>
</g>
<!-- src/user/user.service.ts&#45;&gt;node_modules/@nestjs/mongoose -->
<g id="edge79" class="edge">
<title>src/user/user.service.ts&#45;&gt;node_modules/@nestjs/mongoose</title>
<g id="a_edge79"><a xlink:title="no&#45;non&#45;package&#45;json">
<path fill="none" stroke="red" d="M754.52,-1024.88C765.72,-1008.58 788.22,-972.99 796.75,-939.01 802.92,-914.44 788.79,-502.69 804.75,-483.01 809.87,-476.7 817.37,-473.07 825.25,-471.06"/>
<polygon fill="red" stroke="red" points="825.57,-473.14 831.05,-469.93 824.76,-469.02 825.57,-473.14"/>
</a>
</g>
<text text-anchor="middle" x="753.51" y="-738.63" font-family="Helvetica,sans-Serif" font-size="9.00" fill="red">no&#45;non&#45;package&#45;json</text>
</g>
<!-- src/user/user.service.ts&#45;&gt;node_modules/mongoose -->
<g id="edge80" class="edge">
<title>src/user/user.service.ts&#45;&gt;node_modules/mongoose</title>
<g id="a_edge80"><a xlink:title="no&#45;non&#45;package&#45;json">
<path fill="none" stroke="red" d="M776.75,-1024.67C784.3,-1020.92 791.72,-1015.82 796.75,-1009.01 839.03,-951.73 856.47,-721.69 860.53,-658.27"/>
<polygon fill="red" stroke="red" points="862.61,-658.7 860.89,-652.59 858.42,-658.44 862.61,-658.7"/>
</a>
</g>
<text text-anchor="middle" x="798.31" y="-832.92" font-family="Helvetica,sans-Serif" font-size="9.00" fill="red">no&#45;non&#45;package&#45;json</text>
</g>
<!-- src/user/user.service.ts&#45;&gt;src/user/schemas/user.schema.ts -->
<g id="edge77" class="edge">
<title>src/user/user.service.ts&#45;&gt;src/user/schemas/user.schema.ts</title>
<path fill="none" stroke="#000000" stroke-width="2" stroke-opacity="0.200000" d="M783.91,-1036.54C793.76,-1037.24 804.57,-1038 814.92,-1038.73"/>
<polygon fill="#000000" fill-opacity="0.200000" stroke="#000000" stroke-width="2" stroke-opacity="0.200000" points="814.71,-1040.82 820.84,-1039.15 815.01,-1036.63 814.71,-1040.82"/>
</g>
<!-- src/image/MulterConfigService.ts&#45;&gt;fs -->
<g id="edge47" class="edge">
<title>src/image/MulterConfigService.ts&#45;&gt;fs</title>
<path fill="none" stroke="#000000" stroke-dasharray="5,2" stroke-opacity="0.200000" d="M479.4,-784.86C481.68,-783.2 483.75,-781.27 485.5,-779.01 506.22,-752.32 473.45,-502.21 493.5,-475.01 496.41,-471.06 500.41,-468.14 504.83,-465.99"/>
<polygon fill="#000000" fill-opacity="0.200000" stroke="#000000" stroke-opacity="0.200000" points="505.31,-468.06 510.12,-463.9 503.77,-464.15 505.31,-468.06"/>
</g>
<!-- src/image/MulterConfigService.ts&#45;&gt;node_modules/@nestjs/common -->
<g id="edge45" class="edge">
<title>src/image/MulterConfigService.ts&#45;&gt;node_modules/@nestjs/common</title>
<path fill="none" stroke="#000000" stroke-opacity="0.200000" d="M479.41,-784.86C481.69,-783.2 483.75,-781.27 485.5,-779.01 508.23,-749.66 469.99,-473.74 493.5,-445.01 535.53,-393.66 745.39,-382.87 828.01,-380.61"/>
<polygon fill="#000000" fill-opacity="0.200000" stroke="#000000" stroke-opacity="0.200000" points="827.67,-382.72 833.62,-380.47 827.57,-378.52 827.67,-382.72"/>
</g>
<!-- src/image/MulterConfigService.ts&#45;&gt;node_modules/@nestjs/config -->
<g id="edge46" class="edge">
<title>src/image/MulterConfigService.ts&#45;&gt;node_modules/@nestjs/config</title>
<path fill="none" stroke="#000000" stroke-opacity="0.200000" d="M479.42,-784.87C481.69,-783.21 483.75,-781.27 485.5,-779.01 498.34,-762.38 480.85,-417.78 493.5,-401.01 573.84,-294.53 753.07,-286.66 827.79,-288.32"/>
<polygon fill="#000000" fill-opacity="0.200000" stroke="#000000" stroke-opacity="0.200000" points="827.54,-290.42 833.59,-288.48 827.65,-286.22 827.54,-290.42"/>
</g>
<!-- src/image/MulterConfigService.ts&#45;&gt;node_modules/multer -->
<g id="edge48" class="edge">
<title>src/image/MulterConfigService.ts&#45;&gt;node_modules/multer</title>
<path fill="none" stroke="#000000" stroke-opacity="0.200000" d="M479.42,-784.87C481.7,-783.21 483.76,-781.28 485.5,-779.01 500.85,-759.06 484,-349.32 493.5,-326.01 543.3,-203.8 576.07,-162.29 697.25,-110.01 737.85,-92.49 764.27,-80 796.75,-110.01 813.29,-125.29 790.32,-193.73 804.75,-211.01 810.52,-217.92 819.05,-221.84 827.77,-224.02"/>
<polygon fill="#000000" fill-opacity="0.200000" stroke="#000000" stroke-opacity="0.200000" points="827.29,-226.07 833.58,-225.18 828.11,-221.95 827.29,-226.07"/>
</g>
<!-- src/image/MulterConfigService.ts&#45;&gt;path -->
<g id="edge49" class="edge">
<title>src/image/MulterConfigService.ts&#45;&gt;path</title>
<path fill="none" stroke="#000000" stroke-dasharray="5,2" stroke-opacity="0.200000" d="M479.39,-784.85C481.68,-783.2 483.75,-781.26 485.5,-779.01 504.01,-755.24 476.32,-532.75 493.5,-508.01 496.36,-503.89 500.34,-500.71 504.75,-498.26"/>
<polygon fill="#000000" fill-opacity="0.200000" stroke="#000000" stroke-opacity="0.200000" points="505.5,-500.23 510.06,-495.8 503.73,-496.42 505.5,-500.23"/>
</g>
<!-- src/image/entities/image.entity.ts -->
<g id="node34" class="node">
<title>src/image/entities/image.entity.ts</title>
<g id="a_node34"><a xlink:href="src/image/entities/image.entity.ts" xlink:title="no&#45;orphans">
<path fill="#ccffcc" stroke="orange" d="M340.33,-836.89C340.33,-836.89 278.42,-836.89 278.42,-836.89 275.46,-836.89 272.5,-833.93 272.5,-830.97 272.5,-830.97 272.5,-825.05 272.5,-825.05 272.5,-822.09 275.46,-819.14 278.42,-819.14 278.42,-819.14 340.33,-819.14 340.33,-819.14 343.29,-819.14 346.25,-822.09 346.25,-825.05 346.25,-825.05 346.25,-830.97 346.25,-830.97 346.25,-833.93 343.29,-836.89 340.33,-836.89"/>
<text text-anchor="start" x="280.5" y="-824.34" font-family="Helvetica,sans-Serif" font-size="9.00" fill="orange">image.entity.ts</text>
</a>
</g>
</g>
<!-- src/image/image.controller.spec.ts -->
<g id="node35" class="node">
<title>src/image/image.controller.spec.ts</title>
<g id="a_node35"><a xlink:href="src/image/image.controller.spec.ts" xlink:title="image.controller.spec.ts">
<path fill="#ddfeff" stroke="black" d="M359.08,-772.89C359.08,-772.89 259.67,-772.89 259.67,-772.89 256.71,-772.89 253.75,-769.93 253.75,-766.97 253.75,-766.97 253.75,-761.05 253.75,-761.05 253.75,-758.09 256.71,-755.14 259.67,-755.14 259.67,-755.14 359.08,-755.14 359.08,-755.14 362.04,-755.14 365,-758.09 365,-761.05 365,-761.05 365,-766.97 365,-766.97 365,-769.93 362.04,-772.89 359.08,-772.89"/>
<text text-anchor="start" x="261.75" y="-760.34" font-family="Helvetica,sans-Serif" font-size="9.00">image.controller.spec.ts</text>
</a>
</g>
</g>
<!-- src/image/image.controller.spec.ts&#45;&gt;node_modules/@nestjs/testing -->
<g id="edge52" class="edge">
<title>src/image/image.controller.spec.ts&#45;&gt;node_modules/@nestjs/testing</title>
<path fill="none" stroke="#000000" stroke-opacity="0.200000" d="M361.36,-754.73C362.67,-753.61 363.89,-752.37 365,-751.01 381.09,-731.22 367.25,-315.21 377.88,-292.01 417.94,-204.52 441.52,-146.01 537.75,-146.01 537.75,-146.01 537.75,-146.01 643.12,-146.01 713.91,-146.01 751.91,-133.24 796.75,-188.01 813.26,-208.17 788.15,-284.92 804.75,-305.01 810.48,-311.95 819.01,-315.88 827.72,-318.06"/>
<polygon fill="#000000" fill-opacity="0.200000" stroke="#000000" stroke-opacity="0.200000" points="827.25,-320.11 833.54,-319.22 828.06,-315.99 827.25,-320.11"/>
</g>
<!-- src/image/image.controller.spec.ts&#45;&gt;src/image/image.controller.ts -->
<g id="edge50" class="edge">
<title>src/image/image.controller.spec.ts&#45;&gt;src/image/image.controller.ts</title>
<path fill="none" stroke="#000000" stroke-width="2" stroke-opacity="0.200000" d="M365.28,-764.01C369.44,-764.01 373.63,-764.01 377.78,-764.01"/>
<polygon fill="#000000" fill-opacity="0.200000" stroke="#000000" stroke-width="2" stroke-opacity="0.200000" points="377.72,-766.11 383.72,-764.01 377.72,-761.91 377.72,-766.11"/>
</g>
<!-- src/image/image.controller.spec.ts&#45;&gt;src/image/image.service.ts -->
<g id="edge51" class="edge">
<title>src/image/image.controller.spec.ts&#45;&gt;src/image/image.service.ts</title>
<path fill="none" stroke="#000000" stroke-width="2" stroke-opacity="0.200000" d="M357.69,-773.11C360.36,-774.77 362.84,-776.72 365,-779.01 383.73,-798.83 356.66,-821.87 377.88,-839.01 396.48,-854.04 461.82,-842.34 485.5,-839.01 490.96,-838.24 496.65,-837.04 502.17,-835.65"/>
<polygon fill="#000000" fill-opacity="0.200000" stroke="#000000" stroke-width="2" stroke-opacity="0.200000" points="502.51,-837.74 507.75,-834.13 501.41,-833.68 502.51,-837.74"/>
</g>
<!-- src/image/image.controller.ts&#45;&gt;node_modules/@nestjs/common -->
<g id="edge54" class="edge">
<title>src/image/image.controller.ts&#45;&gt;node_modules/@nestjs/common</title>
<path fill="none" stroke="#000000" stroke-opacity="0.200000" d="M476.99,-758.15C480.23,-756.29 483.14,-753.95 485.5,-751.01 496.95,-736.76 483.78,-437.49 493.5,-422.01 566.23,-306.21 660.41,-359.54 796.75,-370.01 806.87,-370.79 817.81,-372.24 827.76,-373.8"/>
<polygon fill="#000000" fill-opacity="0.200000" stroke="#000000" stroke-opacity="0.200000" points="827.39,-375.87 833.65,-374.76 828.07,-371.72 827.39,-375.87"/>
</g>
<!-- src/image/image.controller.ts&#45;&gt;node_modules/@nestjs/platform&#45;express -->
<g id="edge55" class="edge">
<title>src/image/image.controller.ts&#45;&gt;node_modules/@nestjs/platform&#45;express</title>
<path fill="none" stroke="#000000" stroke-opacity="0.200000" d="M476.52,-758.43C479.94,-756.53 483.03,-754.11 485.5,-751.01 499.48,-733.52 481.76,-367.08 493.5,-348.01 530.99,-287.09 744.09,-191.6 796.75,-240.01 812.35,-254.35 791.13,-318.78 804.75,-335.01 807.26,-338.01 810.3,-340.44 813.65,-342.42"/>
<polygon fill="#000000" fill-opacity="0.200000" stroke="#000000" stroke-opacity="0.200000" points="812.73,-344.31 819.04,-345.02 814.55,-340.52 812.73,-344.31"/>
</g>
<!-- src/image/image.controller.ts&#45;&gt;node_modules/express -->
<g id="edge56" class="edge">
<title>src/image/image.controller.ts&#45;&gt;node_modules/express</title>
<g id="a_edge56"><a xlink:title="not&#45;to&#45;dev&#45;dep">
<path fill="none" stroke="red" d="M476.54,-758.45C479.96,-756.55 483.04,-754.11 485.5,-751.01 505.51,-725.83 478.32,-200.38 493.5,-172.01 563.53,-41.12 674.01,51.49 796.75,-32.01 846.66,-65.96 858.1,-144.92 860.72,-179.4"/>
<polygon fill="red" stroke="red" points="858.62,-179.43 861.1,-185.28 862.81,-179.16 858.62,-179.43"/>
</a>
</g>
<text text-anchor="middle" x="461.91" y="-467.09" font-family="Helvetica,sans-Serif" font-size="9.00" fill="red">not&#45;to&#45;dev&#45;dep</text>
</g>
<!-- src/image/image.controller.ts&#45;&gt;src/image/image.service.ts -->
<g id="edge53" class="edge">
<title>src/image/image.controller.ts&#45;&gt;src/image/image.service.ts</title>
<path fill="none" stroke="#000000" stroke-width="2" stroke-opacity="0.200000" d="M476.88,-772.46C480.05,-774.25 482.98,-776.41 485.5,-779.01 494.03,-787.81 486.79,-796.87 492.91,-808.13"/>
<polygon fill="#000000" fill-opacity="0.200000" stroke="#000000" stroke-width="2" stroke-opacity="0.200000" points="491.07,-809.19 496.41,-812.63 494.38,-806.61 491.07,-809.19"/>
</g>
<!-- src/image/image.service.ts&#45;&gt;node_modules/@nestjs/common -->
<g id="edge64" class="edge">
<title>src/image/image.service.ts&#45;&gt;node_modules/@nestjs/common</title>
<path fill="none" stroke="#000000" stroke-opacity="0.200000" d="M542.56,-814.93C550.89,-787.59 575.58,-703.54 587,-632.01 588.86,-620.35 587,-534.7 595,-526.01 656.51,-459.24 735.06,-560.62 796.75,-494.01 811.75,-477.82 790.59,-411.94 804.75,-395.01 810.52,-388.11 819.06,-384.18 827.77,-382"/>
<polygon fill="#000000" fill-opacity="0.200000" stroke="#000000" stroke-opacity="0.200000" points="828.11,-384.08 833.59,-380.85 827.3,-379.96 828.11,-384.08"/>
</g>
<!-- src/image/image.service.spec.ts -->
<g id="node38" class="node">
<title>src/image/image.service.spec.ts</title>
<g id="a_node38"><a xlink:href="src/image/image.service.spec.ts" xlink:title="image.service.spec.ts">
<path fill="#ddfeff" stroke="black" d="M476.96,-832.89C476.96,-832.89 386.54,-832.89 386.54,-832.89 383.58,-832.89 380.62,-829.93 380.62,-826.97 380.62,-826.97 380.62,-821.05 380.62,-821.05 380.62,-818.09 383.58,-815.14 386.54,-815.14 386.54,-815.14 476.96,-815.14 476.96,-815.14 479.92,-815.14 482.88,-818.09 482.88,-821.05 482.88,-821.05 482.88,-826.97 482.88,-826.97 482.88,-829.93 479.92,-832.89 476.96,-832.89"/>
<text text-anchor="start" x="388.62" y="-820.34" font-family="Helvetica,sans-Serif" font-size="9.00">image.service.spec.ts</text>
</a>
</g>
</g>
<!-- src/image/image.service.spec.ts&#45;&gt;node_modules/@nestjs/testing -->
<g id="edge63" class="edge">
<title>src/image/image.service.spec.ts&#45;&gt;node_modules/@nestjs/testing</title>
<path fill="none" stroke="#000000" stroke-opacity="0.200000" d="M479.39,-814.85C481.68,-813.2 483.75,-811.27 485.5,-809.01 504.28,-784.89 475.01,-558.35 493.5,-534.01 519.82,-499.36 559.54,-538.76 587,-505.01 598.7,-490.64 583.98,-436.91 595,-422.01 650.68,-346.73 769.42,-327.01 827.75,-321.84"/>
<polygon fill="#000000" fill-opacity="0.200000" stroke="#000000" stroke-opacity="0.200000" points="827.91,-323.94 833.72,-321.36 827.57,-319.75 827.91,-323.94"/>
</g>
<!-- src/image/image.service.spec.ts&#45;&gt;src/image/image.service.ts -->
<g id="edge62" class="edge">
<title>src/image/image.service.spec.ts&#45;&gt;src/image/image.service.ts</title>
<path fill="none" stroke="#000000" stroke-width="2" stroke-opacity="0.200000" d="M483.1,-824.01C485.15,-824.01 487.21,-824.01 489.26,-824.01"/>
<polygon fill="#000000" fill-opacity="0.200000" stroke="#000000" stroke-width="2" stroke-opacity="0.200000" points="489.12,-826.11 495.12,-824.01 489.12,-821.91 489.12,-826.11"/>
</g>
<!-- src/main.ts -->
<g id="node39" class="node">
<title>src/main.ts</title>
<g id="a_node39"><a xlink:href="src/main.ts" xlink:title="main.ts">
<path fill="#ddfeff" stroke="black" d="M92.83,-725.89C92.83,-725.89 50.67,-725.89 50.67,-725.89 47.71,-725.89 44.75,-722.93 44.75,-719.97 44.75,-719.97 44.75,-714.05 44.75,-714.05 44.75,-711.09 47.71,-708.14 50.67,-708.14 50.67,-708.14 92.83,-708.14 92.83,-708.14 95.79,-708.14 98.75,-711.09 98.75,-714.05 98.75,-714.05 98.75,-719.97 98.75,-719.97 98.75,-722.93 95.79,-725.89 92.83,-725.89"/>
<text text-anchor="start" x="57.12" y="-713.34" font-family="Helvetica,sans-Serif" font-size="9.00">main.ts</text>
</a>
</g>
</g>
<!-- src/main.ts&#45;&gt;node_modules/@nestjs/core -->
<g id="edge66" class="edge">
<title>src/main.ts&#45;&gt;node_modules/@nestjs/core</title>
<path fill="none" stroke="#000000" stroke-opacity="0.200000" d="M73.83,-707.98C83.63,-627.88 160.36,-42.01 308.38,-42.01 308.38,-42.01 308.38,-42.01 643.12,-42.01 711.82,-42.01 749.85,-8.82 796.75,-59.01 811.03,-74.29 791.38,-230.94 804.75,-247.01 810.51,-253.93 819.13,-257.61 827.92,-259.46"/>
<polygon fill="#000000" fill-opacity="0.200000" stroke="#000000" stroke-opacity="0.200000" points="827.54,-261.53 833.8,-260.39 828.2,-257.38 827.54,-261.53"/>
</g>
<!-- src/main.ts&#45;&gt;src/app.module.ts -->
<g id="edge65" class="edge">
<title>src/main.ts&#45;&gt;src/app.module.ts</title>
<path fill="none" stroke="#000000" stroke-width="2" stroke-opacity="0.200000" d="M99.21,-720.53C111.73,-722.19 127.02,-724.22 141.24,-726.11"/>
<polygon fill="#000000" fill-opacity="0.200000" stroke="#000000" stroke-width="2" stroke-opacity="0.200000" points="140.7,-728.16 146.92,-726.87 141.25,-724 140.7,-728.16"/>
</g>
<!-- src/mongodb/mongodb.module.ts -->
<g id="node40" class="node">
<title>src/mongodb/mongodb.module.ts</title>
<g id="a_node40"><a xlink:href="src/mongodb/mongodb.module.ts" xlink:title="no&#45;orphans">
<path fill="#ccffcc" stroke="orange" d="M113.58,-995.89C113.58,-995.89 29.92,-995.89 29.92,-995.89 26.96,-995.89 24,-992.93 24,-989.97 24,-989.97 24,-984.05 24,-984.05 24,-981.09 26.96,-978.14 29.92,-978.14 29.92,-978.14 113.58,-978.14 113.58,-978.14 116.54,-978.14 119.5,-981.09 119.5,-984.05 119.5,-984.05 119.5,-989.97 119.5,-989.97 119.5,-992.93 116.54,-995.89 113.58,-995.89"/>
<text text-anchor="start" x="32" y="-983.34" font-family="Helvetica,sans-Serif" font-size="9.00" fill="orange">mongodb.module.ts</text>
</a>
</g>
</g>
<!-- src/mongodb/mongodb.service.ts -->
<g id="node41" class="node">
<title>src/mongodb/mongodb.service.ts</title>
<g id="a_node41"><a xlink:href="src/mongodb/mongodb.service.ts" xlink:title="no&#45;orphans">
<path fill="#ccffcc" stroke="orange" d="M112.83,-965.89C112.83,-965.89 30.67,-965.89 30.67,-965.89 27.71,-965.89 24.75,-962.93 24.75,-959.97 24.75,-959.97 24.75,-954.05 24.75,-954.05 24.75,-951.09 27.71,-948.14 30.67,-948.14 30.67,-948.14 112.83,-948.14 112.83,-948.14 115.79,-948.14 118.75,-951.09 118.75,-954.05 118.75,-954.05 118.75,-959.97 118.75,-959.97 118.75,-962.93 115.79,-965.89 112.83,-965.89"/>
<text text-anchor="start" x="32.75" y="-953.34" font-family="Helvetica,sans-Serif" font-size="9.00" fill="orange">mongodb.service.ts</text>
</a>
</g>
</g>
<!-- src/user/dto/createUserDto.ts -->
<g id="node42" class="node">
<title>src/user/dto/createUserDto.ts</title>
<g id="a_node42"><a xlink:href="src/user/dto/createUserDto.ts" xlink:title="createUserDto.ts">
<path fill="#ddfeff" stroke="black" d="M782.83,-1076.89C782.83,-1076.89 711.17,-1076.89 711.17,-1076.89 708.21,-1076.89 705.25,-1073.93 705.25,-1070.97 705.25,-1070.97 705.25,-1065.05 705.25,-1065.05 705.25,-1062.09 708.21,-1059.14 711.17,-1059.14 711.17,-1059.14 782.83,-1059.14 782.83,-1059.14 785.79,-1059.14 788.75,-1062.09 788.75,-1065.05 788.75,-1065.05 788.75,-1070.97 788.75,-1070.97 788.75,-1073.93 785.79,-1076.89 782.83,-1076.89"/>
<text text-anchor="start" x="713.25" y="-1064.34" font-family="Helvetica,sans-Serif" font-size="9.00">createUserDto.ts</text>
</a>
</g>
</g>
<!-- src/user/schemas/user.schema.ts&#45;&gt;node_modules/@nestjs/mongoose -->
<g id="edge67" class="edge">
<title>src/user/schemas/user.schema.ts&#45;&gt;node_modules/@nestjs/mongoose</title>
<g id="a_edge67"><a xlink:title="no&#45;non&#45;package&#45;json">
<path fill="none" stroke="red" d="M860.35,-1032.7C850.87,-991.14 812.77,-818.3 800.75,-674.01 799.04,-653.53 794.79,-508.68 800.75,-489.01 803.98,-478.36 813.98,-473.11 825.03,-470.67"/>
<polygon fill="red" stroke="red" points="825.31,-472.76 830.88,-469.7 824.62,-468.61 825.31,-472.76"/>
</a>
</g>
<text text-anchor="middle" x="853.6" y="-747.27" font-family="Helvetica,sans-Serif" font-size="9.00" fill="red">no&#45;non&#45;package&#45;json</text>
</g>
<!-- src/user/user.controller.ts&#45;&gt;node_modules/@nestjs/common -->
<g id="edge70" class="edge">
<title>src/user/user.controller.ts&#45;&gt;node_modules/@nestjs/common</title>
<path fill="none" stroke="#000000" stroke-opacity="0.200000" d="M657.38,-1046.64C668.09,-1038.77 682.08,-1026.49 689.25,-1012.01 703.54,-983.16 689.3,-971.21 697.25,-940.01 726.08,-826.93 772.7,-811.21 796.75,-697.01 800.21,-680.59 794.33,-408.17 804.75,-395.01 810.44,-387.82 819.14,-383.83 828.03,-381.68"/>
<polygon fill="#000000" fill-opacity="0.200000" stroke="#000000" stroke-opacity="0.200000" points="828.15,-383.8 833.66,-380.61 827.37,-379.67 828.15,-383.8"/>
</g>
<!-- src/user/user.controller.ts&#45;&gt;src/auth/local&#45;auth.guard.ts -->
<g id="edge71" class="edge">
<title>src/user/user.controller.ts&#45;&gt;src/auth/local&#45;auth.guard.ts</title>
<path fill="none" stroke="#000000" stroke-width="2" stroke-opacity="0.200000" d="M609.27,-1065.37C575.68,-1073.06 523.54,-1078.48 493.5,-1049.01 474.42,-1030.3 502.31,-949.79 485.5,-929.01 485.23,-928.68 484.95,-928.35 484.67,-928.03"/>
<polygon fill="#000000" fill-opacity="0.200000" stroke="#000000" stroke-width="2" stroke-opacity="0.200000" points="486.14,-926.52 480.2,-924.25 483.43,-929.73 486.14,-926.52"/>
</g>
<!-- src/user/user.controller.ts&#45;&gt;src/user/user.service.ts -->
<g id="edge69" class="edge">
<title>src/user/user.controller.ts&#45;&gt;src/user/user.service.ts</title>
<path fill="none" stroke="#000000" stroke-width="2" stroke-opacity="0.200000" d="M683.49,-1047.38C689.39,-1046.12 695.49,-1044.81 701.47,-1043.53"/>
<polygon fill="#000000" fill-opacity="0.200000" stroke="#000000" stroke-width="2" stroke-opacity="0.200000" points="701.71,-1045.63 707.14,-1042.32 700.83,-1041.52 701.71,-1045.63"/>
</g>
<!-- src/user/user.controller.ts&#45;&gt;src/user/dto/createUserDto.ts -->
<g id="edge68" class="edge">
<title>src/user/user.controller.ts&#45;&gt;src/user/dto/createUserDto.ts</title>
<path fill="none" stroke="#000000" stroke-width="2" stroke-opacity="0.200000" d="M683.49,-1060.72C687.7,-1061.21 692.02,-1061.71 696.31,-1062.22"/>
<polygon fill="#000000" fill-opacity="0.200000" stroke="#000000" stroke-width="2" stroke-opacity="0.200000" points="695.87,-1064.28 702.07,-1062.89 696.35,-1060.11 695.87,-1064.28"/>
</g>
</g>
</svg>
