<?xml version="1.0" encoding="UTF-8" standalone="no"?>
<!DOCTYPE svg PUBLIC "-//W3C//DTD SVG 1.1//EN"
 "http://www.w3.org/Graphics/SVG/1.1/DTD/svg11.dtd">
<!-- Generated by graphviz version 9.0.0 (0)
 -->
<!-- Title: dependency&#45;cruiser output Pages: 1 -->
<svg width="909pt" height="1293pt"
 viewBox="0.00 0.00 909.00 1293.18" xmlns="http://www.w3.org/2000/svg" xmlns:xlink="http://www.w3.org/1999/xlink">
<g id="graph0" class="graph" transform="scale(1 1) rotate(0) translate(4 1289.18)">
<title>dependency&#45;cruiser output</title>
<polygon fill="white" stroke="none" points="-4,4 -4,-1289.18 905,-1289.18 905,4 -4,4"/>
<g id="clust1" class="cluster">
<title>cluster_node_modules</title>
<path fill="#ffffff" stroke="black" stroke-width="2" d="M784.25,-135.18C784.25,-135.18 875.75,-135.18 875.75,-135.18 881.75,-135.18 887.75,-141.18 887.75,-147.18 887.75,-147.18 887.75,-621.18 887.75,-621.18 887.75,-627.18 881.75,-633.18 875.75,-633.18 875.75,-633.18 784.25,-633.18 784.25,-633.18 778.25,-633.18 772.25,-627.18 772.25,-621.18 772.25,-621.18 772.25,-147.18 772.25,-147.18 772.25,-141.18 778.25,-135.18 784.25,-135.18"/>
<text text-anchor="middle" x="830" y="-620.63" font-family="Helvetica,sans-Serif" font-weight="bold" font-size="9.00">node_modules</text>
</g>
<g id="clust2" class="cluster">
<title>cluster_node_modules/@nestjs</title>
<path fill="#ffffff" stroke="black" stroke-width="2" d="M792.25,-199.18C792.25,-199.18 867.75,-199.18 867.75,-199.18 873.75,-199.18 879.75,-205.18 879.75,-211.18 879.75,-211.18 879.75,-449.18 879.75,-449.18 879.75,-455.18 873.75,-461.18 867.75,-461.18 867.75,-461.18 792.25,-461.18 792.25,-461.18 786.25,-461.18 780.25,-455.18 780.25,-449.18 780.25,-449.18 780.25,-211.18 780.25,-211.18 780.25,-205.18 786.25,-199.18 792.25,-199.18"/>
<text text-anchor="middle" x="830" y="-448.63" font-family="Helvetica,sans-Serif" font-weight="bold" font-size="9.00">@nestjs</text>
</g>
<g id="clust3" class="cluster">
<title>cluster_src</title>
<path fill="#ffffff" stroke="black" stroke-width="2" d="M20,-641.18C20,-641.18 881,-641.18 881,-641.18 887,-641.18 893,-647.18 893,-653.18 893,-653.18 893,-1265.18 893,-1265.18 893,-1271.18 887,-1277.18 881,-1277.18 881,-1277.18 20,-1277.18 20,-1277.18 14,-1277.18 8,-1271.18 8,-1265.18 8,-1265.18 8,-653.18 8,-653.18 8,-647.18 14,-641.18 20,-641.18"/>
<text text-anchor="middle" x="450.5" y="-1264.63" font-family="Helvetica,sans-Serif" font-weight="bold" font-size="9.00">src</text>
</g>
<g id="clust4" class="cluster">
<title>cluster_src/auth</title>
<path fill="#ffffff" stroke="black" stroke-width="2" d="M337.38,-825.18C337.38,-825.18 638.25,-825.18 638.25,-825.18 644.25,-825.18 650.25,-831.18 650.25,-837.18 650.25,-837.18 650.25,-939.18 650.25,-939.18 650.25,-945.18 644.25,-951.18 638.25,-951.18 638.25,-951.18 337.38,-951.18 337.38,-951.18 331.38,-951.18 325.38,-945.18 325.38,-939.18 325.38,-939.18 325.38,-837.18 325.38,-837.18 325.38,-831.18 331.38,-825.18 337.38,-825.18"/>
<text text-anchor="middle" x="487.81" y="-938.63" font-family="Helvetica,sans-Serif" font-weight="bold" font-size="9.00">auth</text>
</g>
<g id="clust5" class="cluster">
<title>cluster_src/config</title>
<path fill="#ffffff" stroke="black" stroke-width="2" d="M570.25,-959.18C570.25,-959.18 640.5,-959.18 640.5,-959.18 646.5,-959.18 652.5,-965.18 652.5,-971.18 652.5,-971.18 652.5,-1029.18 652.5,-1029.18 652.5,-1035.18 646.5,-1041.18 640.5,-1041.18 640.5,-1041.18 570.25,-1041.18 570.25,-1041.18 564.25,-1041.18 558.25,-1035.18 558.25,-1029.18 558.25,-1029.18 558.25,-971.18 558.25,-971.18 558.25,-965.18 564.25,-959.18 570.25,-959.18"/>
<text text-anchor="start" x="592.25" y="-1028.63" font-family="Helvetica,sans-Serif" font-weight="bold" font-size="9.00">config</text>
</g>
<g id="clust6" class="cluster">
<title>cluster_src/image</title>
<path fill="#ffffff" stroke="black" stroke-width="2" d="M205.25,-649.18C205.25,-649.18 530,-649.18 530,-649.18 536,-649.18 542,-655.18 542,-661.18 542,-661.18 542,-779.18 542,-779.18 542,-785.18 536,-791.18 530,-791.18 530,-791.18 205.25,-791.18 205.25,-791.18 199.25,-791.18 193.25,-785.18 193.25,-779.18 193.25,-779.18 193.25,-661.18 193.25,-661.18 193.25,-655.18 199.25,-649.18 205.25,-649.18"/>
<text text-anchor="middle" x="367.62" y="-778.63" font-family="Helvetica,sans-Serif" font-weight="bold" font-size="9.00">image</text>
</g>
<g id="clust7" class="cluster">
<title>cluster_src/image/entities</title>
<path fill="#ffffff" stroke="black" stroke-width="2" d="M224,-713.18C224,-713.18 289.75,-713.18 289.75,-713.18 295.75,-713.18 301.75,-719.18 301.75,-725.18 301.75,-725.18 301.75,-753.18 301.75,-753.18 301.75,-759.18 295.75,-765.18 289.75,-765.18 289.75,-765.18 224,-765.18 224,-765.18 218,-765.18 212,-759.18 212,-753.18 212,-753.18 212,-725.18 212,-725.18 212,-719.18 218,-713.18 224,-713.18"/>
<text text-anchor="middle" x="256.88" y="-752.63" font-family="Helvetica,sans-Serif" font-weight="bold" font-size="9.00">entities</text>
</g>
<g id="clust10" class="cluster">
<title>cluster_src/user</title>
<path fill="#ffffff" stroke="black" stroke-width="2" d="M562,-1049.18C562,-1049.18 749,-1049.18 749,-1049.18 755,-1049.18 761,-1055.18 761,-1061.18 761,-1061.18 761,-1119.18 761,-1119.18 761,-1125.18 755,-1131.18 749,-1131.18 749,-1131.18 562,-1131.18 562,-1131.18 556,-1131.18 550,-1125.18 550,-1119.18 550,-1119.18 550,-1061.18 550,-1061.18 550,-1055.18 556,-1049.18 562,-1049.18"/>
<text text-anchor="middle" x="655.5" y="-1118.63" font-family="Helvetica,sans-Serif" font-weight="bold" font-size="9.00">user</text>
</g>
<g id="clust8" class="cluster">
<title>cluster_src/mongodb</title>
<path fill="#ffffff" stroke="black" stroke-width="2" d="M672.75,-1139.18C672.75,-1139.18 873,-1139.18 873,-1139.18 879,-1139.18 885,-1145.18 885,-1151.18 885,-1151.18 885,-1239.18 885,-1239.18 885,-1245.18 879,-1251.18 873,-1251.18 873,-1251.18 672.75,-1251.18 672.75,-1251.18 666.75,-1251.18 660.75,-1245.18 660.75,-1239.18 660.75,-1239.18 660.75,-1151.18 660.75,-1151.18 660.75,-1145.18 666.75,-1139.18 672.75,-1139.18"/>
<text text-anchor="middle" x="772.88" y="-1238.63" font-family="Helvetica,sans-Serif" font-weight="bold" font-size="9.00">mongodb</text>
</g>
<g id="clust9" class="cluster">
<title>cluster_src/mongodb/schemas</title>
<path fill="#ffffff" stroke="black" stroke-width="2" d="M795.62,-1147.18C795.62,-1147.18 864.38,-1147.18 864.38,-1147.18 870.38,-1147.18 876.38,-1153.18 876.38,-1159.18 876.38,-1159.18 876.38,-1187.18 876.38,-1187.18 876.38,-1193.18 870.38,-1199.18 864.38,-1199.18 864.38,-1199.18 795.62,-1199.18 795.62,-1199.18 789.62,-1199.18 783.62,-1193.18 783.62,-1187.18 783.62,-1187.18 783.62,-1159.18 783.62,-1159.18 783.62,-1153.18 789.62,-1147.18 795.62,-1147.18"/>
<text text-anchor="middle" x="830" y="-1186.63" font-family="Helvetica,sans-Serif" font-weight="bold" font-size="9.00">schemas</text>
</g>
<!-- fs -->
<g id="node1" class="node">
<title>fs</title>
<g id="a_node1"><a xlink:href="https://nodejs.org/api/fs.html" xlink:title="fs">
<path fill="#ffffcc" stroke="grey" d="M514.83,-221.06C514.83,-221.06 472.67,-221.06 472.67,-221.06 469.71,-221.06 466.75,-218.1 466.75,-215.14 466.75,-215.14 466.75,-209.22 466.75,-209.22 466.75,-206.26 469.71,-203.31 472.67,-203.31 472.67,-203.31 514.83,-203.31 514.83,-203.31 517.79,-203.31 520.75,-206.26 520.75,-209.22 520.75,-209.22 520.75,-215.14 520.75,-215.14 520.75,-218.1 517.79,-221.06 514.83,-221.06"/>
<text text-anchor="middle" x="493.75" y="-208.51" font-family="Helvetica,sans-Serif" font-size="9.00" fill="grey">fs</text>
</a>
</g>
</g>
<!-- node_modules/@nestjs/common -->
<g id="node2" class="node">
<title>node_modules/@nestjs/common</title>
<g id="a_node2"><a xlink:href="https://www.npmjs.com/package/@nestjs/common" xlink:title="common">
<polygon fill="#c40b0a" fill-opacity="0.101961" stroke="black" points="857,-345.06 804.97,-345.06 803,-343.08 803,-327.31 855.03,-327.31 857,-329.28 857,-345.06"/>
<polyline fill="none" stroke="black" points="855.03,-343.08 803,-343.08"/>
<polyline fill="none" stroke="black" points="855.03,-343.08 855.03,-327.31"/>
<polyline fill="none" stroke="black" points="855.03,-343.08 857,-345.06"/>
<text text-anchor="start" x="812.38" y="-332.51" font-family="Helvetica,sans-Serif" font-size="9.00" fill="#c40b0a">common</text>
</a>
</g>
</g>
<!-- node_modules/@nestjs/config -->
<g id="node3" class="node">
<title>node_modules/@nestjs/config</title>
<g id="a_node3"><a xlink:href="https://www.npmjs.com/package/@nestjs/config" xlink:title="config">
<polygon fill="#c40b0a" fill-opacity="0.101961" stroke="black" points="857,-255.06 804.97,-255.06 803,-253.08 803,-237.31 855.03,-237.31 857,-239.28 857,-255.06"/>
<polyline fill="none" stroke="black" points="855.03,-253.08 803,-253.08"/>
<polyline fill="none" stroke="black" points="855.03,-253.08 855.03,-237.31"/>
<polyline fill="none" stroke="black" points="855.03,-253.08 857,-255.06"/>
<text text-anchor="start" x="817.62" y="-242.51" font-family="Helvetica,sans-Serif" font-size="9.00" fill="#c40b0a">config</text>
</a>
</g>
</g>
<!-- node_modules/@nestjs/core -->
<g id="node4" class="node">
<title>node_modules/@nestjs/core</title>
<g id="a_node4"><a xlink:href="https://www.npmjs.com/package/@nestjs/core" xlink:title="core">
<polygon fill="#c40b0a" fill-opacity="0.101961" stroke="black" points="857,-225.06 804.97,-225.06 803,-223.08 803,-207.31 855.03,-207.31 857,-209.28 857,-225.06"/>
<polyline fill="none" stroke="black" points="855.03,-223.08 803,-223.08"/>
<polyline fill="none" stroke="black" points="855.03,-223.08 855.03,-207.31"/>
<polyline fill="none" stroke="black" points="855.03,-223.08 857,-225.06"/>
<text text-anchor="start" x="821" y="-212.51" font-family="Helvetica,sans-Serif" font-size="9.00" fill="#c40b0a">core</text>
</a>
</g>
</g>
<!-- node_modules/@nestjs/jwt -->
<g id="node5" class="node">
<title>node_modules/@nestjs/jwt</title>
<g id="a_node5"><a xlink:href="https://www.npmjs.com/package/@nestjs/jwt" xlink:title="jwt">
<polygon fill="#c40b0a" fill-opacity="0.101961" stroke="black" points="857,-405.06 804.97,-405.06 803,-403.08 803,-387.31 855.03,-387.31 857,-389.28 857,-405.06"/>
<polyline fill="none" stroke="black" points="855.03,-403.08 803,-403.08"/>
<polyline fill="none" stroke="black" points="855.03,-403.08 855.03,-387.31"/>
<polyline fill="none" stroke="black" points="855.03,-403.08 857,-405.06"/>
<text text-anchor="start" x="824.38" y="-392.51" font-family="Helvetica,sans-Serif" font-size="9.00" fill="#c40b0a">jwt</text>
</a>
</g>
</g>
<!-- node_modules/@nestjs/mongoose -->
<g id="node6" class="node">
<title>node_modules/@nestjs/mongoose</title>
<g id="a_node6"><a xlink:href="https://www.npmjs.com/package/@nestjs/mongoose" xlink:title="mongoose">
<polygon fill="#c40b0a" fill-opacity="0.101961" stroke="black" points="859.75,-435.06 802.22,-435.06 800.25,-433.08 800.25,-417.31 857.78,-417.31 859.75,-419.28 859.75,-435.06"/>
<polyline fill="none" stroke="black" points="857.78,-433.08 800.25,-433.08"/>
<polyline fill="none" stroke="black" points="857.78,-433.08 857.78,-417.31"/>
<polyline fill="none" stroke="black" points="857.78,-433.08 859.75,-435.06"/>
<text text-anchor="start" x="808.25" y="-422.51" font-family="Helvetica,sans-Serif" font-size="9.00" fill="#c40b0a">mongoose</text>
</a>
</g>
</g>
<!-- node_modules/@nestjs/passport -->
<g id="node7" class="node">
<title>node_modules/@nestjs/passport</title>
<g id="a_node7"><a xlink:href="https://www.npmjs.com/package/@nestjs/passport" xlink:title="passport">
<polygon fill="#c40b0a" fill-opacity="0.101961" stroke="black" points="857,-375.06 804.97,-375.06 803,-373.08 803,-357.31 855.03,-357.31 857,-359.28 857,-375.06"/>
<polyline fill="none" stroke="black" points="855.03,-373.08 803,-373.08"/>
<polyline fill="none" stroke="black" points="855.03,-373.08 855.03,-357.31"/>
<polyline fill="none" stroke="black" points="855.03,-373.08 857,-375.06"/>
<text text-anchor="start" x="812.38" y="-362.51" font-family="Helvetica,sans-Serif" font-size="9.00" fill="#c40b0a">passport</text>
</a>
</g>
</g>
<!-- node_modules/@nestjs/platform&#45;express -->
<g id="node8" class="node">
<title>node_modules/@nestjs/platform&#45;express</title>
<g id="a_node8"><a xlink:href="https://www.npmjs.com/package/@nestjs/platform-express" xlink:title="platform&#45;express">
<polygon fill="#c40b0a" fill-opacity="0.101961" stroke="black" points="871.75,-285.06 790.22,-285.06 788.25,-283.08 788.25,-267.31 869.78,-267.31 871.75,-269.28 871.75,-285.06"/>
<polyline fill="none" stroke="black" points="869.78,-283.08 788.25,-283.08"/>
<polyline fill="none" stroke="black" points="869.78,-283.08 869.78,-267.31"/>
<polyline fill="none" stroke="black" points="869.78,-283.08 871.75,-285.06"/>
<text text-anchor="start" x="796.25" y="-272.51" font-family="Helvetica,sans-Serif" font-size="9.00" fill="#c40b0a">platform&#45;express</text>
</a>
</g>
</g>
<!-- node_modules/@nestjs/testing -->
<g id="node9" class="node">
<title>node_modules/@nestjs/testing</title>
<g id="a_node9"><a xlink:href="https://www.npmjs.com/package/@nestjs/testing" xlink:title="testing">
<polygon fill="#c40b0a" fill-opacity="0.101961" stroke="black" points="857,-315.06 804.97,-315.06 803,-313.08 803,-297.31 855.03,-297.31 857,-299.28 857,-315.06"/>
<polyline fill="none" stroke="black" points="855.03,-313.08 803,-313.08"/>
<polyline fill="none" stroke="black" points="855.03,-313.08 855.03,-297.31"/>
<polyline fill="none" stroke="black" points="855.03,-313.08 857,-315.06"/>
<text text-anchor="start" x="816.5" y="-302.51" font-family="Helvetica,sans-Serif" font-size="9.00" fill="#c40b0a">testing</text>
</a>
</g>
</g>
<!-- node_modules/dotenv -->
<g id="node10" class="node">
<title>node_modules/dotenv</title>
<g id="a_node10"><a xlink:href="https://www.npmjs.com/package/dotenv" xlink:title="dotenv">
<polygon fill="#c40b0a" fill-opacity="0.101961" stroke="black" points="857,-547.06 804.97,-547.06 803,-545.08 803,-529.31 855.03,-529.31 857,-531.28 857,-547.06"/>
<polyline fill="none" stroke="black" points="855.03,-545.08 803,-545.08"/>
<polyline fill="none" stroke="black" points="855.03,-545.08 855.03,-529.31"/>
<polyline fill="none" stroke="black" points="855.03,-545.08 857,-547.06"/>
<text text-anchor="start" x="816.12" y="-534.51" font-family="Helvetica,sans-Serif" font-size="9.00" fill="#c40b0a">dotenv</text>
</a>
</g>
</g>
<!-- node_modules/express -->
<g id="node11" class="node">
<title>node_modules/express</title>
<g id="a_node11"><a xlink:href="https://www.npmjs.com/package/express" xlink:title="express">
<polygon fill="#c40b0a" fill-opacity="0.101961" stroke="black" points="857,-191.06 804.97,-191.06 803,-189.08 803,-173.31 855.03,-173.31 857,-175.28 857,-191.06"/>
<polyline fill="none" stroke="black" points="855.03,-189.08 803,-189.08"/>
<polyline fill="none" stroke="black" points="855.03,-189.08 855.03,-173.31"/>
<polyline fill="none" stroke="black" points="855.03,-189.08 857,-191.06"/>
<text text-anchor="start" x="814.25" y="-178.51" font-family="Helvetica,sans-Serif" font-size="9.00" fill="#c40b0a">express</text>
</a>
</g>
</g>
<!-- node_modules/joi -->
<g id="node12" class="node">
<title>node_modules/joi</title>
<g id="a_node12"><a xlink:href="https://www.npmjs.com/package/joi" xlink:title="joi">
<polygon fill="#c40b0a" fill-opacity="0.101961" stroke="black" points="857,-577.06 804.97,-577.06 803,-575.08 803,-559.31 855.03,-559.31 857,-561.28 857,-577.06"/>
<polyline fill="none" stroke="black" points="855.03,-575.08 803,-575.08"/>
<polyline fill="none" stroke="black" points="855.03,-575.08 855.03,-559.31"/>
<polyline fill="none" stroke="black" points="855.03,-575.08 857,-577.06"/>
<text text-anchor="start" x="825.12" y="-564.51" font-family="Helvetica,sans-Serif" font-size="9.00" fill="#c40b0a">joi</text>
</a>
</g>
</g>
<!-- node_modules/mongoose -->
<g id="node13" class="node">
<title>node_modules/mongoose</title>
<g id="a_node13"><a xlink:href="https://www.npmjs.com/package/mongoose" xlink:title="mongoose">
<polygon fill="#c40b0a" fill-opacity="0.101961" stroke="black" points="859.75,-607.06 802.22,-607.06 800.25,-605.08 800.25,-589.31 857.78,-589.31 859.75,-591.28 859.75,-607.06"/>
<polyline fill="none" stroke="black" points="857.78,-605.08 800.25,-605.08"/>
<polyline fill="none" stroke="black" points="857.78,-605.08 857.78,-589.31"/>
<polyline fill="none" stroke="black" points="857.78,-605.08 859.75,-607.06"/>
<text text-anchor="start" x="808.25" y="-594.51" font-family="Helvetica,sans-Serif" font-size="9.00" fill="#c40b0a">mongoose</text>
</a>
</g>
</g>
<!-- node_modules/multer -->
<g id="node14" class="node">
<title>node_modules/multer</title>
<g id="a_node14"><a xlink:href="https://www.npmjs.com/package/multer" xlink:title="multer">
<polygon fill="#c40b0a" fill-opacity="0.101961" stroke="black" points="857,-161.06 804.97,-161.06 803,-159.08 803,-143.31 855.03,-143.31 857,-145.28 857,-161.06"/>
<polyline fill="none" stroke="black" points="855.03,-159.08 803,-159.08"/>
<polyline fill="none" stroke="black" points="855.03,-159.08 855.03,-143.31"/>
<polyline fill="none" stroke="black" points="855.03,-159.08 857,-161.06"/>
<text text-anchor="start" x="817.25" y="-148.51" font-family="Helvetica,sans-Serif" font-size="9.00" fill="#c40b0a">multer</text>
</a>
</g>
</g>
<!-- node_modules/passport&#45;jwt -->
<g id="node15" class="node">
<title>node_modules/passport&#45;jwt</title>
<g id="a_node15"><a xlink:href="https://www.npmjs.com/package/passport-jwt" xlink:title="passport&#45;jwt">
<polygon fill="#c40b0a" fill-opacity="0.101961" stroke="black" points="862.75,-517.06 799.22,-517.06 797.25,-515.08 797.25,-499.31 860.78,-499.31 862.75,-501.28 862.75,-517.06"/>
<polyline fill="none" stroke="black" points="860.78,-515.08 797.25,-515.08"/>
<polyline fill="none" stroke="black" points="860.78,-515.08 860.78,-499.31"/>
<polyline fill="none" stroke="black" points="860.78,-515.08 862.75,-517.06"/>
<text text-anchor="start" x="805.25" y="-504.51" font-family="Helvetica,sans-Serif" font-size="9.00" fill="#c40b0a">passport&#45;jwt</text>
</a>
</g>
</g>
<!-- node_modules/passport&#45;local -->
<g id="node16" class="node">
<title>node_modules/passport&#45;local</title>
<g id="a_node16"><a xlink:href="https://www.npmjs.com/package/passport-local" xlink:title="passport&#45;local">
<polygon fill="#c40b0a" fill-opacity="0.101961" stroke="black" points="866.88,-487.06 795.1,-487.06 793.12,-485.08 793.12,-469.31 864.9,-469.31 866.88,-471.28 866.88,-487.06"/>
<polyline fill="none" stroke="black" points="864.9,-485.08 793.12,-485.08"/>
<polyline fill="none" stroke="black" points="864.9,-485.08 864.9,-469.31"/>
<polyline fill="none" stroke="black" points="864.9,-485.08 866.88,-487.06"/>
<text text-anchor="start" x="801.12" y="-474.51" font-family="Helvetica,sans-Serif" font-size="9.00" fill="#c40b0a">passport&#45;local</text>
</a>
</g>
</g>
<!-- path -->
<g id="node17" class="node">
<title>path</title>
<g id="a_node17"><a xlink:href="https://nodejs.org/api/path.html" xlink:title="path">
<path fill="#ffffcc" stroke="grey" d="M514.83,-251.06C514.83,-251.06 472.67,-251.06 472.67,-251.06 469.71,-251.06 466.75,-248.1 466.75,-245.14 466.75,-245.14 466.75,-239.22 466.75,-239.22 466.75,-236.26 469.71,-233.31 472.67,-233.31 472.67,-233.31 514.83,-233.31 514.83,-233.31 517.79,-233.31 520.75,-236.26 520.75,-239.22 520.75,-239.22 520.75,-245.14 520.75,-245.14 520.75,-248.1 517.79,-251.06 514.83,-251.06"/>
<text text-anchor="middle" x="493.75" y="-238.51" font-family="Helvetica,sans-Serif" font-size="9.00" fill="grey">path</text>
</a>
</g>
</g>
<!-- src/app.controller.spec.ts -->
<g id="node18" class="node">
<title>src/app.controller.spec.ts</title>
<g id="a_node18"><a xlink:href="src/app.controller.spec.ts" xlink:title="app.controller.spec.ts">
<path fill="#ddfeff" stroke="black" d="M179.33,-815.06C179.33,-815.06 88.92,-815.06 88.92,-815.06 85.96,-815.06 83,-812.1 83,-809.14 83,-809.14 83,-803.22 83,-803.22 83,-800.26 85.96,-797.31 88.92,-797.31 88.92,-797.31 179.33,-797.31 179.33,-797.31 182.29,-797.31 185.25,-800.26 185.25,-803.22 185.25,-803.22 185.25,-809.14 185.25,-809.14 185.25,-812.1 182.29,-815.06 179.33,-815.06"/>
<text text-anchor="start" x="91" y="-802.51" font-family="Helvetica,sans-Serif" font-size="9.00">app.controller.spec.ts</text>
</a>
</g>
</g>
<!-- src/app.controller.spec.ts&#45;&gt;node_modules/@nestjs/testing -->
<g id="edge3" class="edge">
<title>src/app.controller.spec.ts&#45;&gt;node_modules/@nestjs/testing</title>
<path fill="none" stroke="#000000" stroke-opacity="0.200000" d="M135.12,-797.03C135.19,-714.53 137.54,-100.46 193.25,-44.18 251.31,14.47 295.72,-28.18 378.25,-28.18 378.25,-28.18 378.25,-28.18 494.75,-28.18 621.6,-28.18 693.58,-16.83 764.25,-122.18 774.72,-137.79 760.43,-276.56 772.25,-291.18 777.96,-298.24 786.56,-302.2 795.36,-304.37"/>
<polygon fill="#000000" fill-opacity="0.200000" stroke="#000000" stroke-opacity="0.200000" points="794.95,-306.43 801.24,-305.51 795.75,-302.31 794.95,-306.43"/>
</g>
<!-- src/app.controller.ts -->
<g id="node19" class="node">
<title>src/app.controller.ts</title>
<g id="a_node19"><a xlink:href="src/app.controller.ts" xlink:title="app.controller.ts">
<path fill="#ddfeff" stroke="black" d="M291.21,-851.06C291.21,-851.06 222.54,-851.06 222.54,-851.06 219.58,-851.06 216.62,-848.1 216.62,-845.14 216.62,-845.14 216.62,-839.22 216.62,-839.22 216.62,-836.26 219.58,-833.31 222.54,-833.31 222.54,-833.31 291.21,-833.31 291.21,-833.31 294.17,-833.31 297.12,-836.26 297.12,-839.22 297.12,-839.22 297.12,-845.14 297.12,-845.14 297.12,-848.1 294.17,-851.06 291.21,-851.06"/>
<text text-anchor="start" x="224.62" y="-838.51" font-family="Helvetica,sans-Serif" font-size="9.00">app.controller.ts</text>
</a>
</g>
</g>
<!-- src/app.controller.spec.ts&#45;&gt;src/app.controller.ts -->
<g id="edge1" class="edge">
<title>src/app.controller.spec.ts&#45;&gt;src/app.controller.ts</title>
<path fill="none" stroke="#000000" stroke-width="2" stroke-opacity="0.200000" d="M166.54,-815.55C181.77,-820.09 200.23,-825.59 216.4,-830.41"/>
<polygon fill="#000000" fill-opacity="0.200000" stroke="#000000" stroke-width="2" stroke-opacity="0.200000" points="215.37,-832.3 221.72,-832 216.57,-828.27 215.37,-832.3"/>
</g>
<!-- src/app.service.ts -->
<g id="node20" class="node">
<title>src/app.service.ts</title>
<g id="a_node20"><a xlink:href="src/app.service.ts" xlink:title="app.service.ts">
<path fill="#ddfeff" stroke="black" d="M409.08,-817.06C409.08,-817.06 349.42,-817.06 349.42,-817.06 346.46,-817.06 343.5,-814.1 343.5,-811.14 343.5,-811.14 343.5,-805.22 343.5,-805.22 343.5,-802.26 346.46,-799.31 349.42,-799.31 349.42,-799.31 409.08,-799.31 409.08,-799.31 412.04,-799.31 415,-802.26 415,-805.22 415,-805.22 415,-811.14 415,-811.14 415,-814.1 412.04,-817.06 409.08,-817.06"/>
<text text-anchor="start" x="351.5" y="-804.51" font-family="Helvetica,sans-Serif" font-size="9.00">app.service.ts</text>
</a>
</g>
</g>
<!-- src/app.controller.spec.ts&#45;&gt;src/app.service.ts -->
<g id="edge2" class="edge">
<title>src/app.controller.spec.ts&#45;&gt;src/app.service.ts</title>
<path fill="none" stroke="#000000" stroke-width="2" stroke-opacity="0.200000" d="M185.5,-806.59C229.43,-806.96 292.5,-807.48 334.39,-807.82"/>
<polygon fill="#000000" fill-opacity="0.200000" stroke="#000000" stroke-width="2" stroke-opacity="0.200000" points="334.21,-809.92 340.23,-807.87 334.24,-805.72 334.21,-809.92"/>
</g>
<!-- src/app.controller.ts&#45;&gt;node_modules/@nestjs/common -->
<g id="edge5" class="edge">
<title>src/app.controller.ts&#45;&gt;node_modules/@nestjs/common</title>
<path fill="none" stroke="#000000" stroke-opacity="0.200000" d="M267.13,-833.14C279.82,-820.1 302.21,-794.68 312.5,-768.18 332.24,-717.36 315.41,-699.79 325.38,-646.18 363.14,-443.03 282.03,-322.92 446,-197.18 479.86,-171.22 500.62,-186.8 542,-197.18 596.34,-210.81 715.77,-288.1 764.25,-316.18 767.88,-318.28 768.4,-319.51 772.25,-321.18 779.63,-324.37 787.84,-327.02 795.68,-329.16"/>
<polygon fill="#000000" fill-opacity="0.200000" stroke="#000000" stroke-opacity="0.200000" points="794.94,-331.14 801.27,-330.6 795.99,-327.07 794.94,-331.14"/>
</g>
<!-- src/app.controller.ts&#45;&gt;src/app.service.ts -->
<g id="edge4" class="edge">
<title>src/app.controller.ts&#45;&gt;src/app.service.ts</title>
<path fill="none" stroke="#000000" stroke-width="2" stroke-opacity="0.200000" d="M288.74,-832.83C300.22,-829.41 313.37,-825.55 325.38,-822.18 328.44,-821.32 331.6,-820.45 334.79,-819.58"/>
<polygon fill="#000000" fill-opacity="0.200000" stroke="#000000" stroke-width="2" stroke-opacity="0.200000" points="335.06,-821.68 340.31,-818.09 333.97,-817.63 335.06,-821.68"/>
</g>
<!-- src/auth/auth.service.ts -->
<g id="node21" class="node">
<title>src/auth/auth.service.ts</title>
<g id="a_node21"><a xlink:href="src/auth/auth.service.ts" xlink:title="auth.service.ts">
<path fill="#ddfeff" stroke="black" d="M636.33,-925.06C636.33,-925.06 574.42,-925.06 574.42,-925.06 571.46,-925.06 568.5,-922.1 568.5,-919.14 568.5,-919.14 568.5,-913.22 568.5,-913.22 568.5,-910.26 571.46,-907.31 574.42,-907.31 574.42,-907.31 636.33,-907.31 636.33,-907.31 639.29,-907.31 642.25,-910.26 642.25,-913.22 642.25,-913.22 642.25,-919.14 642.25,-919.14 642.25,-922.1 639.29,-925.06 636.33,-925.06"/>
<text text-anchor="start" x="576.5" y="-912.51" font-family="Helvetica,sans-Serif" font-size="9.00">auth.service.ts</text>
</a>
</g>
</g>
<!-- src/app.controller.ts&#45;&gt;src/auth/auth.service.ts -->
<g id="edge6" class="edge">
<title>src/app.controller.ts&#45;&gt;src/auth/auth.service.ts</title>
<path fill="none" stroke="#000000" stroke-width="2" stroke-opacity="0.200000" d="M262.86,-851.48C272.43,-868.2 295.1,-902.94 325.38,-917.18 401.72,-953.09 503.34,-939.67 560.49,-927.43"/>
<polygon fill="#000000" fill-opacity="0.200000" stroke="#000000" stroke-width="2" stroke-opacity="0.200000" points="560.91,-929.48 566.32,-926.13 560,-925.38 560.91,-929.48"/>
</g>
<!-- src/auth/jwt&#45;auth.guard.ts -->
<g id="node22" class="node">
<title>src/auth/jwt&#45;auth.guard.ts</title>
<g id="a_node22"><a xlink:href="src/auth/jwt-auth.guard.ts" xlink:title="jwt&#45;auth.guard.ts">
<path fill="#ddfeff" stroke="black" d="M415.08,-881.06C415.08,-881.06 343.42,-881.06 343.42,-881.06 340.46,-881.06 337.5,-878.1 337.5,-875.14 337.5,-875.14 337.5,-869.22 337.5,-869.22 337.5,-866.26 340.46,-863.31 343.42,-863.31 343.42,-863.31 415.08,-863.31 415.08,-863.31 418.04,-863.31 421,-866.26 421,-869.22 421,-869.22 421,-875.14 421,-875.14 421,-878.1 418.04,-881.06 415.08,-881.06"/>
<text text-anchor="start" x="345.5" y="-868.51" font-family="Helvetica,sans-Serif" font-size="9.00">jwt&#45;auth.guard.ts</text>
</a>
</g>
</g>
<!-- src/app.controller.ts&#45;&gt;src/auth/jwt&#45;auth.guard.ts -->
<g id="edge7" class="edge">
<title>src/app.controller.ts&#45;&gt;src/auth/jwt&#45;auth.guard.ts</title>
<path fill="none" stroke="#000000" stroke-width="2" stroke-opacity="0.200000" d="M295.3,-851.51C306.97,-854.41 319.97,-857.65 332.15,-860.69"/>
<polygon fill="#000000" fill-opacity="0.200000" stroke="#000000" stroke-width="2" stroke-opacity="0.200000" points="331.58,-862.71 337.91,-862.13 332.59,-858.64 331.58,-862.71"/>
</g>
<!-- src/auth/local&#45;auth.guard.ts -->
<g id="node23" class="node">
<title>src/auth/local&#45;auth.guard.ts</title>
<g id="a_node23"><a xlink:href="src/auth/local-auth.guard.ts" xlink:title="local&#45;auth.guard.ts">
<path fill="#ddfeff" stroke="black" d="M419.21,-851.06C419.21,-851.06 339.29,-851.06 339.29,-851.06 336.33,-851.06 333.38,-848.1 333.38,-845.14 333.38,-845.14 333.38,-839.22 333.38,-839.22 333.38,-836.26 336.33,-833.31 339.29,-833.31 339.29,-833.31 419.21,-833.31 419.21,-833.31 422.17,-833.31 425.12,-836.26 425.12,-839.22 425.12,-839.22 425.12,-845.14 425.12,-845.14 425.12,-848.1 422.17,-851.06 419.21,-851.06"/>
<text text-anchor="start" x="341.38" y="-838.51" font-family="Helvetica,sans-Serif" font-size="9.00">local&#45;auth.guard.ts</text>
</a>
</g>
</g>
<!-- src/app.controller.ts&#45;&gt;src/auth/local&#45;auth.guard.ts -->
<g id="edge8" class="edge">
<title>src/app.controller.ts&#45;&gt;src/auth/local&#45;auth.guard.ts</title>
<path fill="none" stroke="#000000" stroke-width="2" stroke-opacity="0.200000" d="M297.62,-842.18C306.15,-842.18 315.3,-842.18 324.26,-842.18"/>
<polygon fill="#000000" fill-opacity="0.200000" stroke="#000000" stroke-width="2" stroke-opacity="0.200000" points="324.1,-844.28 330.1,-842.18 324.1,-840.08 324.1,-844.28"/>
</g>
<!-- src/app.service.ts&#45;&gt;node_modules/@nestjs/common -->
<g id="edge19" class="edge">
<title>src/app.service.ts&#45;&gt;node_modules/@nestjs/common</title>
<path fill="none" stroke="#000000" stroke-opacity="0.200000" d="M415.41,-805.4C422.19,-803.22 428.56,-799.73 433,-794.18 455.67,-765.89 423.47,-496.58 446,-468.18 460.81,-449.51 629.87,-417.82 652.75,-411.18 702.5,-396.74 727.57,-413.77 764.25,-377.18 772.81,-368.64 763.53,-359.56 772.25,-351.18 778.5,-345.17 786.87,-341.5 795.25,-339.28"/>
<polygon fill="#000000" fill-opacity="0.200000" stroke="#000000" stroke-opacity="0.200000" points="795.68,-341.33 801.09,-338 794.78,-337.23 795.68,-341.33"/>
</g>
<!-- src/auth/auth.service.ts&#45;&gt;node_modules/@nestjs/common -->
<g id="edge31" class="edge">
<title>src/auth/auth.service.ts&#45;&gt;node_modules/@nestjs/common</title>
<path fill="none" stroke="#000000" stroke-opacity="0.200000" d="M619.7,-906.87C657.03,-880.74 760.16,-808.09 764.25,-800.18 775.71,-778.02 756.85,-370.81 772.25,-351.18 777.91,-343.97 786.6,-339.97 795.49,-337.82"/>
<polygon fill="#000000" fill-opacity="0.200000" stroke="#000000" stroke-opacity="0.200000" points="795.62,-339.94 801.12,-336.75 794.83,-335.81 795.62,-339.94"/>
</g>
<!-- src/auth/auth.service.ts&#45;&gt;node_modules/@nestjs/jwt -->
<g id="edge32" class="edge">
<title>src/auth/auth.service.ts&#45;&gt;node_modules/@nestjs/jwt</title>
<path fill="none" stroke="#000000" stroke-opacity="0.200000" d="M642.7,-918.98C679.7,-919.6 735.59,-913.92 764.25,-878.18 780.48,-857.94 756.24,-431.6 772.25,-411.18 777.9,-403.97 786.59,-399.97 795.48,-397.82"/>
<polygon fill="#000000" fill-opacity="0.200000" stroke="#000000" stroke-opacity="0.200000" points="795.61,-399.93 801.12,-396.75 794.83,-395.81 795.61,-399.93"/>
</g>
<!-- src/user/user.service.ts -->
<g id="node34" class="node">
<title>src/user/user.service.ts</title>
<g id="a_node34"><a xlink:href="src/user/user.service.ts" xlink:title="user.service.ts">
<path fill="#ddfeff" stroke="black" d="M747.08,-1075.06C747.08,-1075.06 685.92,-1075.06 685.92,-1075.06 682.96,-1075.06 680,-1072.1 680,-1069.14 680,-1069.14 680,-1063.22 680,-1063.22 680,-1060.26 682.96,-1057.31 685.92,-1057.31 685.92,-1057.31 747.08,-1057.31 747.08,-1057.31 750.04,-1057.31 753,-1060.26 753,-1063.22 753,-1063.22 753,-1069.14 753,-1069.14 753,-1072.1 750.04,-1075.06 747.08,-1075.06"/>
<text text-anchor="start" x="688" y="-1062.51" font-family="Helvetica,sans-Serif" font-size="9.00">user.service.ts</text>
</a>
</g>
</g>
<!-- src/auth/auth.service.ts&#45;&gt;src/user/user.service.ts -->
<g id="edge30" class="edge">
<title>src/auth/auth.service.ts&#45;&gt;src/user/user.service.ts</title>
<path fill="none" stroke="#000000" stroke-width="2" stroke-opacity="0.200000" d="M619.24,-925.35C629.19,-932.87 642.88,-944.2 652.75,-956.18 677.18,-985.85 697.5,-1026.29 707.94,-1048.95"/>
<polygon fill="#000000" fill-opacity="0.200000" stroke="#000000" stroke-width="2" stroke-opacity="0.200000" points="705.93,-1049.61 710.31,-1054.22 709.76,-1047.88 705.93,-1049.61"/>
</g>
<!-- src/auth/jwt&#45;auth.guard.ts&#45;&gt;node_modules/@nestjs/common -->
<g id="edge33" class="edge">
<title>src/auth/jwt&#45;auth.guard.ts&#45;&gt;node_modules/@nestjs/common</title>
<path fill="none" stroke="#000000" stroke-opacity="0.200000" d="M421.26,-866.32C425.78,-864.11 429.87,-861.14 433,-857.18 454.28,-830.2 425.82,-576 446,-548.18 490.33,-487.06 718.1,-488.94 764.25,-429.18 785.55,-401.6 749.61,-377.67 772.25,-351.18 778.1,-344.34 786.66,-340.44 795.37,-338.25"/>
<polygon fill="#000000" fill-opacity="0.200000" stroke="#000000" stroke-opacity="0.200000" points="795.71,-340.33 801.18,-337.09 794.89,-336.21 795.71,-340.33"/>
</g>
<!-- src/auth/jwt&#45;auth.guard.ts&#45;&gt;node_modules/@nestjs/passport -->
<g id="edge34" class="edge">
<title>src/auth/jwt&#45;auth.guard.ts&#45;&gt;node_modules/@nestjs/passport</title>
<path fill="none" stroke="#000000" stroke-opacity="0.200000" d="M421.48,-866.17C425.91,-863.97 429.92,-861.06 433,-857.18 468.87,-812.08 409.5,-642.78 446,-598.18 538.44,-485.23 671.33,-629.73 764.25,-517.18 783.52,-493.83 753.08,-404.61 772.25,-381.18 778,-374.15 786.61,-370.2 795.41,-368.03"/>
<polygon fill="#000000" fill-opacity="0.200000" stroke="#000000" stroke-opacity="0.200000" points="795.8,-370.1 801.29,-366.89 795,-365.97 795.8,-370.1"/>
</g>
<!-- src/auth/local&#45;auth.guard.ts&#45;&gt;node_modules/@nestjs/common -->
<g id="edge39" class="edge">
<title>src/auth/local&#45;auth.guard.ts&#45;&gt;node_modules/@nestjs/common</title>
<path fill="none" stroke="#000000" stroke-opacity="0.200000" d="M425.41,-835.71C428.27,-833.96 430.85,-831.81 433,-829.18 455.99,-801.01 423.91,-531.06 446,-502.18 468.52,-472.74 740.06,-430.27 764.25,-402.18 779.22,-384.8 756.88,-368.22 772.25,-351.18 778.22,-344.56 786.74,-340.71 795.37,-338.52"/>
<polygon fill="#000000" fill-opacity="0.200000" stroke="#000000" stroke-opacity="0.200000" points="795.65,-340.6 801.11,-337.34 794.81,-336.49 795.65,-340.6"/>
</g>
<!-- src/auth/local&#45;auth.guard.ts&#45;&gt;node_modules/@nestjs/passport -->
<g id="edge40" class="edge">
<title>src/auth/local&#45;auth.guard.ts&#45;&gt;node_modules/@nestjs/passport</title>
<path fill="none" stroke="#000000" stroke-opacity="0.200000" d="M425.39,-835.69C428.25,-833.95 430.85,-831.8 433,-829.18 452.98,-804.85 425.29,-569.88 446,-546.18 540.61,-437.92 668.1,-595.07 764.25,-488.18 780.2,-470.45 757.01,-399.52 772.25,-381.18 778,-374.26 786.53,-370.33 795.25,-368.15"/>
<polygon fill="#000000" fill-opacity="0.200000" stroke="#000000" stroke-opacity="0.200000" points="795.59,-370.22 801.07,-367 794.77,-366.1 795.59,-370.22"/>
</g>
<!-- src/app.module.ts -->
<g id="node24" class="node">
<title>src/app.module.ts</title>
<g id="a_node24"><a xlink:href="src/app.module.ts" xlink:title="app.module.ts">
<path fill="#ddfeff" stroke="black" d="M164.71,-851.06C164.71,-851.06 103.54,-851.06 103.54,-851.06 100.58,-851.06 97.62,-848.1 97.62,-845.14 97.62,-845.14 97.62,-839.22 97.62,-839.22 97.62,-836.26 100.58,-833.31 103.54,-833.31 103.54,-833.31 164.71,-833.31 164.71,-833.31 167.67,-833.31 170.62,-836.26 170.62,-839.22 170.62,-839.22 170.62,-845.14 170.62,-845.14 170.62,-848.1 167.67,-851.06 164.71,-851.06"/>
<text text-anchor="start" x="105.62" y="-838.51" font-family="Helvetica,sans-Serif" font-size="9.00">app.module.ts</text>
</a>
</g>
</g>
<!-- src/app.module.ts&#45;&gt;node_modules/@nestjs/common -->
<g id="edge14" class="edge">
<title>src/app.module.ts&#45;&gt;node_modules/@nestjs/common</title>
<path fill="none" stroke="#000000" stroke-opacity="0.200000" d="M171.08,-833.08C176.62,-830.15 181.68,-826.28 185.25,-821.18 196.4,-805.22 190.53,-665.45 193.25,-646.18 230.21,-384.12 113.6,-80.18 378.25,-80.18 378.25,-80.18 378.25,-80.18 494.75,-80.18 624.46,-80.18 688.94,-86.57 764.25,-192.18 780.93,-215.57 754.03,-298.98 772.25,-321.18 778.01,-328.2 786.63,-332.15 795.42,-334.31"/>
<polygon fill="#000000" fill-opacity="0.200000" stroke="#000000" stroke-opacity="0.200000" points="795.01,-336.37 801.3,-335.46 795.81,-332.25 795.01,-336.37"/>
</g>
<!-- src/app.module.ts&#45;&gt;node_modules/@nestjs/config -->
<g id="edge15" class="edge">
<title>src/app.module.ts&#45;&gt;node_modules/@nestjs/config</title>
<path fill="none" stroke="#000000" stroke-opacity="0.200000" d="M170.97,-833.32C176.6,-830.36 181.72,-826.42 185.25,-821.18 196.67,-804.22 179.96,-100.71 193.25,-85.18 247.45,-21.84 294.88,-54.18 378.25,-54.18 378.25,-54.18 378.25,-54.18 606.38,-54.18 680.53,-54.18 719.19,-49.28 764.25,-108.18 780.89,-129.93 754.84,-210.03 772.25,-231.18 777.97,-238.13 786.49,-242.07 795.2,-244.25"/>
<polygon fill="#000000" fill-opacity="0.200000" stroke="#000000" stroke-opacity="0.200000" points="794.73,-246.29 801.03,-245.4 795.55,-242.17 794.73,-246.29"/>
</g>
<!-- src/app.module.ts&#45;&gt;src/app.controller.ts -->
<g id="edge9" class="edge">
<title>src/app.module.ts&#45;&gt;src/app.controller.ts</title>
<path fill="none" stroke="#000000" stroke-width="2" stroke-opacity="0.200000" d="M171.03,-842.18C182.55,-842.18 195.51,-842.18 207.76,-842.18"/>
<polygon fill="#000000" fill-opacity="0.200000" stroke="#000000" stroke-width="2" stroke-opacity="0.200000" points="207.5,-844.28 213.5,-842.18 207.5,-840.08 207.5,-844.28"/>
</g>
<!-- src/app.module.ts&#45;&gt;src/app.service.ts -->
<g id="edge10" class="edge">
<title>src/app.module.ts&#45;&gt;src/app.service.ts</title>
<path fill="none" stroke="#000000" stroke-width="2" stroke-opacity="0.200000" d="M167.83,-832.82C176.07,-830.72 184.94,-828.67 193.25,-827.18 241.21,-818.58 296.91,-813.52 334.56,-810.81"/>
<polygon fill="#000000" fill-opacity="0.200000" stroke="#000000" stroke-width="2" stroke-opacity="0.200000" points="334.39,-812.93 340.23,-810.41 334.1,-808.74 334.39,-812.93"/>
</g>
<!-- src/auth/auth.module.ts -->
<g id="node25" class="node">
<title>src/auth/auth.module.ts</title>
<g id="a_node25"><a xlink:href="src/auth/auth.module.ts" xlink:title="auth.module.ts">
<path fill="#ddfeff" stroke="black" d="M410.96,-911.06C410.96,-911.06 347.54,-911.06 347.54,-911.06 344.58,-911.06 341.62,-908.1 341.62,-905.14 341.62,-905.14 341.62,-899.22 341.62,-899.22 341.62,-896.26 344.58,-893.31 347.54,-893.31 347.54,-893.31 410.96,-893.31 410.96,-893.31 413.92,-893.31 416.88,-896.26 416.88,-899.22 416.88,-899.22 416.88,-905.14 416.88,-905.14 416.88,-908.1 413.92,-911.06 410.96,-911.06"/>
<text text-anchor="start" x="349.62" y="-898.51" font-family="Helvetica,sans-Serif" font-size="9.00">auth.module.ts</text>
</a>
</g>
</g>
<!-- src/app.module.ts&#45;&gt;src/auth/auth.module.ts -->
<g id="edge11" class="edge">
<title>src/app.module.ts&#45;&gt;src/auth/auth.module.ts</title>
<path fill="none" stroke="#000000" stroke-width="2" stroke-opacity="0.200000" d="M171.07,-851.54C178.41,-853.43 186.07,-855.38 193.25,-857.18 240.74,-869.08 295.21,-882.28 332.68,-891.28"/>
<polygon fill="#000000" fill-opacity="0.200000" stroke="#000000" stroke-width="2" stroke-opacity="0.200000" points="332.09,-893.3 338.41,-892.66 333.07,-889.22 332.09,-893.3"/>
</g>
<!-- src/mongodb/mongodb.module.ts -->
<g id="node26" class="node">
<title>src/mongodb/mongodb.module.ts</title>
<g id="a_node26"><a xlink:href="src/mongodb/mongodb.module.ts" xlink:title="mongodb.module.ts">
<path fill="#ddfeff" stroke="black" d="M758.33,-1165.06C758.33,-1165.06 674.67,-1165.06 674.67,-1165.06 671.71,-1165.06 668.75,-1162.1 668.75,-1159.14 668.75,-1159.14 668.75,-1153.22 668.75,-1153.22 668.75,-1150.26 671.71,-1147.31 674.67,-1147.31 674.67,-1147.31 758.33,-1147.31 758.33,-1147.31 761.29,-1147.31 764.25,-1150.26 764.25,-1153.22 764.25,-1153.22 764.25,-1159.14 764.25,-1159.14 764.25,-1162.1 761.29,-1165.06 758.33,-1165.06"/>
<text text-anchor="start" x="676.75" y="-1152.51" font-family="Helvetica,sans-Serif" font-size="9.00">mongodb.module.ts</text>
</a>
</g>
</g>
<!-- src/app.module.ts&#45;&gt;src/mongodb/mongodb.module.ts -->
<g id="edge12" class="edge">
<title>src/app.module.ts&#45;&gt;src/mongodb/mongodb.module.ts</title>
<path fill="none" stroke="#000000" stroke-width="2" stroke-opacity="0.200000" d="M135.99,-851.37C139.05,-879.58 151.53,-966.45 193.25,-1022.18 252.87,-1101.82 278.77,-1148.18 378.25,-1148.18 378.25,-1148.18 378.25,-1148.18 494.75,-1148.18 550.9,-1148.18 615.03,-1150.8 659.64,-1153.04"/>
<polygon fill="#000000" fill-opacity="0.200000" stroke="#000000" stroke-width="2" stroke-opacity="0.200000" points="659.46,-1155.13 665.56,-1153.34 659.67,-1150.94 659.46,-1155.13"/>
</g>
<!-- src/user/user.module.ts -->
<g id="node27" class="node">
<title>src/user/user.module.ts</title>
<g id="a_node27"><a xlink:href="src/user/user.module.ts" xlink:title="user.module.ts">
<path fill="#ddfeff" stroke="black" d="M636.71,-1105.06C636.71,-1105.06 574.04,-1105.06 574.04,-1105.06 571.08,-1105.06 568.12,-1102.1 568.12,-1099.14 568.12,-1099.14 568.12,-1093.22 568.12,-1093.22 568.12,-1090.26 571.08,-1087.31 574.04,-1087.31 574.04,-1087.31 636.71,-1087.31 636.71,-1087.31 639.67,-1087.31 642.62,-1090.26 642.62,-1093.22 642.62,-1093.22 642.62,-1099.14 642.62,-1099.14 642.62,-1102.1 639.67,-1105.06 636.71,-1105.06"/>
<text text-anchor="start" x="576.12" y="-1092.51" font-family="Helvetica,sans-Serif" font-size="9.00">user.module.ts</text>
</a>
</g>
</g>
<!-- src/app.module.ts&#45;&gt;src/user/user.module.ts -->
<g id="edge13" class="edge">
<title>src/app.module.ts&#45;&gt;src/user/user.module.ts</title>
<path fill="none" stroke="#000000" stroke-width="2" stroke-opacity="0.200000" d="M136.09,-851.48C139.22,-876.93 151.5,-948.25 193.25,-985.18 299.07,-1078.78 475.98,-1094.49 558.89,-1096.44"/>
<polygon fill="#000000" fill-opacity="0.200000" stroke="#000000" stroke-width="2" stroke-opacity="0.200000" points="558.75,-1098.54 564.78,-1096.55 558.82,-1094.34 558.75,-1098.54"/>
</g>
<!-- src/config/configuration.ts -->
<g id="node28" class="node">
<title>src/config/configuration.ts</title>
<g id="a_node28"><a xlink:href="src/config/configuration.ts" xlink:title="configuration.ts">
<path fill="#ddfeff" stroke="black" d="M638.58,-985.06C638.58,-985.06 572.17,-985.06 572.17,-985.06 569.21,-985.06 566.25,-982.1 566.25,-979.14 566.25,-979.14 566.25,-973.22 566.25,-973.22 566.25,-970.26 569.21,-967.31 572.17,-967.31 572.17,-967.31 638.58,-967.31 638.58,-967.31 641.54,-967.31 644.5,-970.26 644.5,-973.22 644.5,-973.22 644.5,-979.14 644.5,-979.14 644.5,-982.1 641.54,-985.06 638.58,-985.06"/>
<text text-anchor="start" x="574.25" y="-972.51" font-family="Helvetica,sans-Serif" font-size="9.00">configuration.ts</text>
</a>
</g>
</g>
<!-- src/app.module.ts&#45;&gt;src/config/configuration.ts -->
<g id="edge16" class="edge">
<title>src/app.module.ts&#45;&gt;src/config/configuration.ts</title>
<path fill="none" stroke="#000000" stroke-width="2" stroke-opacity="0.200000" d="M136.05,-851.41C139.06,-875.9 150.98,-942.51 193.25,-970.18 251.83,-1008.53 462.05,-991.63 557.11,-981.63"/>
<polygon fill="#000000" fill-opacity="0.200000" stroke="#000000" stroke-width="2" stroke-opacity="0.200000" points="557.18,-983.74 562.93,-981.01 556.74,-979.56 557.18,-983.74"/>
</g>
<!-- src/config/validation.ts -->
<g id="node29" class="node">
<title>src/config/validation.ts</title>
<g id="a_node29"><a xlink:href="src/config/validation.ts" xlink:title="validation.ts">
<path fill="#ddfeff" stroke="black" d="M631.83,-1015.06C631.83,-1015.06 578.92,-1015.06 578.92,-1015.06 575.96,-1015.06 573,-1012.1 573,-1009.14 573,-1009.14 573,-1003.22 573,-1003.22 573,-1000.26 575.96,-997.31 578.92,-997.31 578.92,-997.31 631.83,-997.31 631.83,-997.31 634.79,-997.31 637.75,-1000.26 637.75,-1003.22 637.75,-1003.22 637.75,-1009.14 637.75,-1009.14 637.75,-1012.1 634.79,-1015.06 631.83,-1015.06"/>
<text text-anchor="start" x="581" y="-1002.51" font-family="Helvetica,sans-Serif" font-size="9.00">validation.ts</text>
</a>
</g>
</g>
<!-- src/app.module.ts&#45;&gt;src/config/validation.ts -->
<g id="edge17" class="edge">
<title>src/app.module.ts&#45;&gt;src/config/validation.ts</title>
<path fill="none" stroke="#000000" stroke-width="2" stroke-opacity="0.200000" d="M147.27,-851.41C176.33,-873 252.87,-927.04 325.38,-954.18 406.9,-984.7 508.77,-997.86 564.09,-1003.09"/>
<polygon fill="#000000" fill-opacity="0.200000" stroke="#000000" stroke-width="2" stroke-opacity="0.200000" points="563.7,-1005.16 569.86,-1003.61 564.08,-1000.98 563.7,-1005.16"/>
</g>
<!-- src/image/image.module.ts -->
<g id="node30" class="node">
<title>src/image/image.module.ts</title>
<g id="a_node30"><a xlink:href="src/image/image.module.ts" xlink:title="image.module.ts">
<path fill="#ddfeff" stroke="black" d="M291.96,-675.06C291.96,-675.06 221.79,-675.06 221.79,-675.06 218.83,-675.06 215.88,-672.1 215.88,-669.14 215.88,-669.14 215.88,-663.22 215.88,-663.22 215.88,-660.26 218.83,-657.31 221.79,-657.31 221.79,-657.31 291.96,-657.31 291.96,-657.31 294.92,-657.31 297.88,-660.26 297.88,-663.22 297.88,-663.22 297.88,-669.14 297.88,-669.14 297.88,-672.1 294.92,-675.06 291.96,-675.06"/>
<text text-anchor="start" x="223.88" y="-662.51" font-family="Helvetica,sans-Serif" font-size="9.00">image.module.ts</text>
</a>
</g>
</g>
<!-- src/app.module.ts&#45;&gt;src/image/image.module.ts -->
<g id="edge18" class="edge">
<title>src/app.module.ts&#45;&gt;src/image/image.module.ts</title>
<path fill="none" stroke="#000000" stroke-width="2" stroke-opacity="0.200000" d="M171.03,-833.05C176.58,-830.12 181.65,-826.26 185.25,-821.18 203.24,-795.74 173.26,-705.09 193.25,-681.18 197.06,-676.63 201.98,-673.32 207.39,-670.93"/>
<polygon fill="#000000" fill-opacity="0.200000" stroke="#000000" stroke-width="2" stroke-opacity="0.200000" points="207.76,-673.03 212.73,-669.06 206.37,-669.06 207.76,-673.03"/>
</g>
<!-- src/auth/auth.module.ts&#45;&gt;node_modules/@nestjs/common -->
<g id="edge23" class="edge">
<title>src/auth/auth.module.ts&#45;&gt;node_modules/@nestjs/common</title>
<path fill="none" stroke="#000000" stroke-opacity="0.200000" d="M417.31,-898.01C423.38,-895.7 428.98,-892.26 433,-887.18 453.08,-861.8 427.54,-622.76 446,-596.18 489.83,-533.09 719.54,-523.65 764.25,-461.18 778.51,-441.25 756.6,-370.04 772.25,-351.18 777.99,-344.26 786.53,-340.32 795.24,-338.14"/>
<polygon fill="#000000" fill-opacity="0.200000" stroke="#000000" stroke-opacity="0.200000" points="795.58,-340.22 801.06,-336.99 794.76,-336.1 795.58,-340.22"/>
</g>
<!-- src/auth/auth.module.ts&#45;&gt;node_modules/@nestjs/jwt -->
<g id="edge24" class="edge">
<title>src/auth/auth.module.ts&#45;&gt;node_modules/@nestjs/jwt</title>
<path fill="none" stroke="#000000" stroke-opacity="0.200000" d="M417.28,-897.98C423.34,-895.67 428.96,-892.24 433,-887.18 449.73,-866.22 427.36,-665.46 446,-646.18 495.34,-595.14 715.3,-669.6 764.25,-618.18 780.12,-601.51 757.86,-429.14 772.25,-411.18 777.93,-404.1 786.52,-400.13 795.32,-397.96"/>
<polygon fill="#000000" fill-opacity="0.200000" stroke="#000000" stroke-opacity="0.200000" points="795.71,-400.02 801.21,-396.82 794.92,-395.9 795.71,-400.02"/>
</g>
<!-- src/auth/auth.module.ts&#45;&gt;node_modules/@nestjs/passport -->
<g id="edge25" class="edge">
<title>src/auth/auth.module.ts&#45;&gt;node_modules/@nestjs/passport</title>
<path fill="none" stroke="#000000" stroke-opacity="0.200000" d="M417.29,-897.99C423.36,-895.68 428.97,-892.25 433,-887.18 451.2,-864.28 426.42,-645.92 446,-624.18 477.12,-589.64 607.83,-604.17 652.75,-592.18 704.07,-578.48 733.17,-592.25 764.25,-549.18 775.19,-534.03 760.5,-395.71 772.25,-381.18 777.96,-374.12 786.56,-370.16 795.36,-367.99"/>
<polygon fill="#000000" fill-opacity="0.200000" stroke="#000000" stroke-opacity="0.200000" points="795.75,-370.06 801.24,-366.86 794.96,-365.93 795.75,-370.06"/>
</g>
<!-- src/auth/auth.module.ts&#45;&gt;src/auth/auth.service.ts -->
<g id="edge20" class="edge">
<title>src/auth/auth.module.ts&#45;&gt;src/auth/auth.service.ts</title>
<path fill="none" stroke="#000000" stroke-width="2" stroke-opacity="0.200000" d="M417.26,-911.37C428.88,-914.09 440.18,-916.53 446,-917.18 484.09,-921.47 527.65,-920.79 559.44,-919.28"/>
<polygon fill="#000000" fill-opacity="0.200000" stroke="#000000" stroke-width="2" stroke-opacity="0.200000" points="559.17,-921.4 565.06,-919 558.96,-917.21 559.17,-921.4"/>
</g>
<!-- src/auth/auth.module.ts&#45;&gt;src/user/user.module.ts -->
<g id="edge27" class="edge">
<title>src/auth/auth.module.ts&#45;&gt;src/user/user.module.ts</title>
<path fill="none" stroke="#000000" stroke-width="2" stroke-opacity="0.200000" d="M417.34,-907.43C422.92,-909.29 428.35,-911.8 433,-915.18 441.88,-921.64 439.42,-927.39 446,-936.18 484.3,-987.32 513.1,-986.2 542,-1043.18 549.81,-1058.57 538.18,-1068.61 550,-1081.18 552.75,-1084.11 556.02,-1086.48 559.57,-1088.41"/>
<polygon fill="#000000" fill-opacity="0.200000" stroke="#000000" stroke-width="2" stroke-opacity="0.200000" points="558.57,-1090.26 564.91,-1090.73 560.25,-1086.41 558.57,-1090.26"/>
</g>
<!-- src/auth/auth.module.ts&#45;&gt;src/config/configuration.ts -->
<g id="edge26" class="edge">
<title>src/auth/auth.module.ts&#45;&gt;src/config/configuration.ts</title>
<path fill="none" stroke="#000000" stroke-width="2" stroke-opacity="0.200000" d="M417.22,-910.03C422.59,-911.53 427.98,-913.25 433,-915.18 439.12,-917.54 439.85,-919.9 446,-922.18 486.96,-937.35 505.44,-919.29 542,-943.18 547.06,-946.49 545.24,-950.46 550,-954.18 554.42,-957.64 559.46,-960.62 564.65,-963.19"/>
<polygon fill="#000000" fill-opacity="0.200000" stroke="#000000" stroke-width="2" stroke-opacity="0.200000" points="563.75,-965.09 570.09,-965.63 565.47,-961.25 563.75,-965.09"/>
</g>
<!-- src/auth/jwt.strategy.ts -->
<g id="node31" class="node">
<title>src/auth/jwt.strategy.ts</title>
<g id="a_node31"><a xlink:href="src/auth/jwt.strategy.ts" xlink:title="jwt.strategy.ts">
<path fill="#ddfeff" stroke="black" d="M522.83,-911.06C522.83,-911.06 464.67,-911.06 464.67,-911.06 461.71,-911.06 458.75,-908.1 458.75,-905.14 458.75,-905.14 458.75,-899.22 458.75,-899.22 458.75,-896.26 461.71,-893.31 464.67,-893.31 464.67,-893.31 522.83,-893.31 522.83,-893.31 525.79,-893.31 528.75,-896.26 528.75,-899.22 528.75,-899.22 528.75,-905.14 528.75,-905.14 528.75,-908.1 525.79,-911.06 522.83,-911.06"/>
<text text-anchor="start" x="466.75" y="-898.51" font-family="Helvetica,sans-Serif" font-size="9.00">jwt.strategy.ts</text>
</a>
</g>
</g>
<!-- src/auth/auth.module.ts&#45;&gt;src/auth/jwt.strategy.ts -->
<g id="edge21" class="edge">
<title>src/auth/auth.module.ts&#45;&gt;src/auth/jwt.strategy.ts</title>
<path fill="none" stroke="#000000" stroke-width="2" stroke-opacity="0.200000" d="M417.09,-902.18C427.5,-902.18 438.92,-902.18 449.67,-902.18"/>
<polygon fill="#000000" fill-opacity="0.200000" stroke="#000000" stroke-width="2" stroke-opacity="0.200000" points="449.47,-904.28 455.47,-902.18 449.47,-900.08 449.47,-904.28"/>
</g>
<!-- src/auth/local.strategy.ts -->
<g id="node32" class="node">
<title>src/auth/local.strategy.ts</title>
<g id="a_node32"><a xlink:href="src/auth/local.strategy.ts" xlink:title="local.strategy.ts">
<path fill="#ddfeff" stroke="black" d="M526.58,-881.06C526.58,-881.06 460.92,-881.06 460.92,-881.06 457.96,-881.06 455,-878.1 455,-875.14 455,-875.14 455,-869.22 455,-869.22 455,-866.26 457.96,-863.31 460.92,-863.31 460.92,-863.31 526.58,-863.31 526.58,-863.31 529.54,-863.31 532.5,-866.26 532.5,-869.22 532.5,-869.22 532.5,-875.14 532.5,-875.14 532.5,-878.1 529.54,-881.06 526.58,-881.06"/>
<text text-anchor="start" x="463" y="-868.51" font-family="Helvetica,sans-Serif" font-size="9.00">local.strategy.ts</text>
</a>
</g>
</g>
<!-- src/auth/auth.module.ts&#45;&gt;src/auth/local.strategy.ts -->
<g id="edge22" class="edge">
<title>src/auth/auth.module.ts&#45;&gt;src/auth/local.strategy.ts</title>
<path fill="none" stroke="#000000" stroke-width="2" stroke-opacity="0.200000" d="M415.23,-892.85C426.02,-889.97 438.04,-886.77 449.33,-883.76"/>
<polygon fill="#000000" fill-opacity="0.200000" stroke="#000000" stroke-width="2" stroke-opacity="0.200000" points="449.61,-885.86 454.87,-882.28 448.53,-881.8 449.61,-885.86"/>
</g>
<!-- src/mongodb/mongodb.module.ts&#45;&gt;node_modules/@nestjs/common -->
<g id="edge71" class="edge">
<title>src/mongodb/mongodb.module.ts&#45;&gt;node_modules/@nestjs/common</title>
<path fill="none" stroke="#000000" stroke-opacity="0.200000" d="M749.83,-1146.85C755.54,-1143.73 760.76,-1139.62 764.25,-1134.18 776,-1115.87 758.89,-368.35 772.25,-351.18 777.88,-343.95 786.56,-339.94 795.45,-337.8"/>
<polygon fill="#000000" fill-opacity="0.200000" stroke="#000000" stroke-opacity="0.200000" points="795.58,-339.91 801.09,-336.73 794.8,-335.78 795.58,-339.91"/>
</g>
<!-- src/mongodb/mongodb.module.ts&#45;&gt;node_modules/@nestjs/mongoose -->
<g id="edge72" class="edge">
<title>src/mongodb/mongodb.module.ts&#45;&gt;node_modules/@nestjs/mongoose</title>
<path fill="none" stroke="#000000" stroke-opacity="0.200000" d="M749.82,-1146.84C755.53,-1143.73 760.76,-1139.61 764.25,-1134.18 774.69,-1117.94 760.13,-454.21 772.25,-439.18 777.35,-432.85 784.84,-429.22 792.72,-427.21"/>
<polygon fill="#000000" fill-opacity="0.200000" stroke="#000000" stroke-opacity="0.200000" points="793.04,-429.29 798.53,-426.08 792.24,-425.17 793.04,-429.29"/>
</g>
<!-- src/mongodb/mongodb.service.ts -->
<g id="node42" class="node">
<title>src/mongodb/mongodb.service.ts</title>
<g id="a_node42"><a xlink:href="src/mongodb/mongodb.service.ts" xlink:title="mongodb.service.ts">
<path fill="#ddfeff" stroke="black" d="M871.08,-1225.06C871.08,-1225.06 788.92,-1225.06 788.92,-1225.06 785.96,-1225.06 783,-1222.1 783,-1219.14 783,-1219.14 783,-1213.22 783,-1213.22 783,-1210.26 785.96,-1207.31 788.92,-1207.31 788.92,-1207.31 871.08,-1207.31 871.08,-1207.31 874.04,-1207.31 877,-1210.26 877,-1213.22 877,-1213.22 877,-1219.14 877,-1219.14 877,-1222.1 874.04,-1225.06 871.08,-1225.06"/>
<text text-anchor="start" x="791" y="-1212.51" font-family="Helvetica,sans-Serif" font-size="9.00">mongodb.service.ts</text>
</a>
</g>
</g>
<!-- src/mongodb/mongodb.module.ts&#45;&gt;src/mongodb/mongodb.service.ts -->
<g id="edge69" class="edge">
<title>src/mongodb/mongodb.module.ts&#45;&gt;src/mongodb/mongodb.service.ts</title>
<path fill="none" stroke="#000000" stroke-width="2" stroke-opacity="0.200000" d="M725.87,-1165.4C735.89,-1175.87 753.66,-1192.73 772.25,-1202.18 773.11,-1202.62 773.98,-1203.04 774.87,-1203.45"/>
<polygon fill="#000000" fill-opacity="0.200000" stroke="#000000" stroke-width="2" stroke-opacity="0.200000" points="773.96,-1205.35 780.31,-1205.67 775.54,-1201.46 773.96,-1205.35"/>
</g>
<!-- src/mongodb/schemas/user.schema.ts -->
<g id="node43" class="node">
<title>src/mongodb/schemas/user.schema.ts</title>
<g id="a_node43"><a xlink:href="src/mongodb/schemas/user.schema.ts" xlink:title="user.schema.ts">
<path fill="#ddfeff" stroke="black" d="M862.46,-1173.06C862.46,-1173.06 797.54,-1173.06 797.54,-1173.06 794.58,-1173.06 791.62,-1170.1 791.62,-1167.14 791.62,-1167.14 791.62,-1161.22 791.62,-1161.22 791.62,-1158.26 794.58,-1155.31 797.54,-1155.31 797.54,-1155.31 862.46,-1155.31 862.46,-1155.31 865.42,-1155.31 868.38,-1158.26 868.38,-1161.22 868.38,-1161.22 868.38,-1167.14 868.38,-1167.14 868.38,-1170.1 865.42,-1173.06 862.46,-1173.06"/>
<text text-anchor="start" x="799.62" y="-1160.51" font-family="Helvetica,sans-Serif" font-size="9.00">user.schema.ts</text>
</a>
</g>
</g>
<!-- src/mongodb/mongodb.module.ts&#45;&gt;src/mongodb/schemas/user.schema.ts -->
<g id="edge70" class="edge">
<title>src/mongodb/mongodb.module.ts&#45;&gt;src/mongodb/schemas/user.schema.ts</title>
<path fill="none" stroke="#000000" stroke-width="2" stroke-opacity="0.200000" d="M764.46,-1159.55C770.46,-1159.98 776.6,-1160.42 782.59,-1160.85"/>
<polygon fill="#000000" fill-opacity="0.200000" stroke="#000000" stroke-width="2" stroke-opacity="0.200000" points="782.07,-1162.92 788.2,-1161.25 782.37,-1158.73 782.07,-1162.92"/>
</g>
<!-- src/user/user.module.ts&#45;&gt;node_modules/@nestjs/common -->
<g id="edge78" class="edge">
<title>src/user/user.module.ts&#45;&gt;node_modules/@nestjs/common</title>
<path fill="none" stroke="#000000" stroke-opacity="0.200000" d="M642.93,-1088.4C646.58,-1086.5 649.95,-1084.13 652.75,-1081.18 662.25,-1071.17 652.71,-1062.4 660.75,-1051.18 692.95,-1006.24 737.85,-1030.76 764.25,-982.18 772.62,-966.78 761.47,-365 772.25,-351.18 777.89,-343.95 786.57,-339.95 795.46,-337.8"/>
<polygon fill="#000000" fill-opacity="0.200000" stroke="#000000" stroke-opacity="0.200000" points="795.59,-339.92 801.1,-336.73 794.81,-335.79 795.59,-339.92"/>
</g>
<!-- src/user/user.module.ts&#45;&gt;src/user/user.service.ts -->
<g id="edge77" class="edge">
<title>src/user/user.module.ts&#45;&gt;src/user/user.service.ts</title>
<path fill="none" stroke="#000000" stroke-width="2" stroke-opacity="0.200000" d="M640.3,-1086.85C650.67,-1084 662.21,-1080.83 673.06,-1077.85"/>
<polygon fill="#000000" fill-opacity="0.200000" stroke="#000000" stroke-width="2" stroke-opacity="0.200000" points="673.44,-1079.92 678.67,-1076.3 672.33,-1075.87 673.44,-1079.92"/>
</g>
<!-- src/config/configuration.ts&#45;&gt;node_modules/dotenv -->
<g id="edge45" class="edge">
<title>src/config/configuration.ts&#45;&gt;node_modules/dotenv</title>
<path fill="none" stroke="#000000" stroke-opacity="0.200000" d="M644.95,-976.9C682.07,-975.28 736.54,-966.31 764.25,-930.18 777,-913.56 759.29,-569.64 772.25,-553.18 777.92,-545.98 786.61,-541.98 795.5,-539.83"/>
<polygon fill="#000000" fill-opacity="0.200000" stroke="#000000" stroke-opacity="0.200000" points="795.63,-541.95 801.13,-538.76 794.85,-537.82 795.63,-541.95"/>
</g>
<!-- src/config/validation.ts&#45;&gt;node_modules/joi -->
<g id="edge46" class="edge">
<title>src/config/validation.ts&#45;&gt;node_modules/joi</title>
<path fill="none" stroke="#000000" stroke-opacity="0.200000" d="M638.14,-1007.55C675.06,-1007.22 734.68,-1000.28 764.25,-962.18 777.16,-945.54 759.23,-599.73 772.25,-583.18 777.92,-575.98 786.61,-571.98 795.5,-569.83"/>
<polygon fill="#000000" fill-opacity="0.200000" stroke="#000000" stroke-opacity="0.200000" points="795.63,-571.95 801.13,-568.76 794.85,-567.82 795.63,-571.95"/>
</g>
<!-- src/image/image.module.ts&#45;&gt;node_modules/@nestjs/common -->
<g id="edge62" class="edge">
<title>src/image/image.module.ts&#45;&gt;node_modules/@nestjs/common</title>
<path fill="none" stroke="#000000" stroke-opacity="0.200000" d="M258.35,-657C261.93,-590.45 285.34,-183.34 325.38,-148.18 377.11,-102.75 594.71,-163.18 652.75,-191.18 711.39,-219.47 730.5,-230.51 764.25,-286.18 772.52,-299.83 761.16,-309.71 772.25,-321.18 778.39,-327.53 786.89,-331.3 795.43,-333.51"/>
<polygon fill="#000000" fill-opacity="0.200000" stroke="#000000" stroke-opacity="0.200000" points="794.79,-335.52 801.09,-334.71 795.66,-331.41 794.79,-335.52"/>
</g>
<!-- src/image/image.module.ts&#45;&gt;node_modules/@nestjs/platform&#45;express -->
<g id="edge63" class="edge">
<title>src/image/image.module.ts&#45;&gt;node_modules/@nestjs/platform&#45;express</title>
<path fill="none" stroke="#000000" stroke-opacity="0.200000" d="M258.35,-657.14C261.99,-589.76 286.3,-167.48 325.38,-128.18 378.27,-74.97 417.72,-106.18 492.75,-106.18 492.75,-106.18 492.75,-106.18 606.38,-106.18 686.92,-106.18 719.5,-128.21 764.25,-195.18 780.67,-219.75 752.84,-238.9 772.25,-261.18 774.78,-264.08 777.8,-266.46 781.11,-268.39"/>
<polygon fill="#000000" fill-opacity="0.200000" stroke="#000000" stroke-opacity="0.200000" points="780.09,-270.24 786.41,-270.95 781.91,-266.45 780.09,-270.24"/>
</g>
<!-- src/image/MulterConfigService.ts -->
<g id="node35" class="node">
<title>src/image/MulterConfigService.ts</title>
<g id="a_node35"><a xlink:href="src/image/MulterConfigService.ts" xlink:title="MulterConfigService.ts">
<path fill="#ddfeff" stroke="black" d="M427.08,-675.06C427.08,-675.06 331.42,-675.06 331.42,-675.06 328.46,-675.06 325.5,-672.1 325.5,-669.14 325.5,-669.14 325.5,-663.22 325.5,-663.22 325.5,-660.26 328.46,-657.31 331.42,-657.31 331.42,-657.31 427.08,-657.31 427.08,-657.31 430.04,-657.31 433,-660.26 433,-663.22 433,-663.22 433,-669.14 433,-669.14 433,-672.1 430.04,-675.06 427.08,-675.06"/>
<text text-anchor="start" x="333.5" y="-662.51" font-family="Helvetica,sans-Serif" font-size="9.00">MulterConfigService.ts</text>
</a>
</g>
</g>
<!-- src/image/image.module.ts&#45;&gt;src/image/MulterConfigService.ts -->
<g id="edge61" class="edge">
<title>src/image/image.module.ts&#45;&gt;src/image/MulterConfigService.ts</title>
<path fill="none" stroke="#000000" stroke-width="2" stroke-opacity="0.200000" d="M298.29,-666.18C304.08,-666.18 310.13,-666.18 316.21,-666.18"/>
<polygon fill="#000000" fill-opacity="0.200000" stroke="#000000" stroke-width="2" stroke-opacity="0.200000" points="316.08,-668.28 322.08,-666.18 316.08,-664.08 316.08,-668.28"/>
</g>
<!-- src/image/image.controller.ts -->
<g id="node38" class="node">
<title>src/image/image.controller.ts</title>
<g id="a_node38"><a xlink:href="src/image/image.controller.ts" xlink:title="image.controller.ts">
<path fill="#ddfeff" stroke="black" d="M418.08,-705.06C418.08,-705.06 340.42,-705.06 340.42,-705.06 337.46,-705.06 334.5,-702.1 334.5,-699.14 334.5,-699.14 334.5,-693.22 334.5,-693.22 334.5,-690.26 337.46,-687.31 340.42,-687.31 340.42,-687.31 418.08,-687.31 418.08,-687.31 421.04,-687.31 424,-690.26 424,-693.22 424,-693.22 424,-699.14 424,-699.14 424,-702.1 421.04,-705.06 418.08,-705.06"/>
<text text-anchor="start" x="342.5" y="-692.51" font-family="Helvetica,sans-Serif" font-size="9.00">image.controller.ts</text>
</a>
</g>
</g>
<!-- src/image/image.module.ts&#45;&gt;src/image/image.controller.ts -->
<g id="edge59" class="edge">
<title>src/image/image.module.ts&#45;&gt;src/image/image.controller.ts</title>
<path fill="none" stroke="#000000" stroke-width="2" stroke-opacity="0.200000" d="M295.3,-675.51C306.97,-678.41 319.97,-681.65 332.15,-684.69"/>
<polygon fill="#000000" fill-opacity="0.200000" stroke="#000000" stroke-width="2" stroke-opacity="0.200000" points="331.58,-686.71 337.91,-686.13 332.59,-682.64 331.58,-686.71"/>
</g>
<!-- src/image/image.service.ts -->
<g id="node39" class="node">
<title>src/image/image.service.ts</title>
<g id="a_node39"><a xlink:href="src/image/image.service.ts" xlink:title="image.service.ts">
<path fill="#ddfeff" stroke="black" d="M528.08,-735.06C528.08,-735.06 459.42,-735.06 459.42,-735.06 456.46,-735.06 453.5,-732.1 453.5,-729.14 453.5,-729.14 453.5,-723.22 453.5,-723.22 453.5,-720.26 456.46,-717.31 459.42,-717.31 459.42,-717.31 528.08,-717.31 528.08,-717.31 531.04,-717.31 534,-720.26 534,-723.22 534,-723.22 534,-729.14 534,-729.14 534,-732.1 531.04,-735.06 528.08,-735.06"/>
<text text-anchor="start" x="461.5" y="-722.51" font-family="Helvetica,sans-Serif" font-size="9.00">image.service.ts</text>
</a>
</g>
</g>
<!-- src/image/image.module.ts&#45;&gt;src/image/image.service.ts -->
<g id="edge60" class="edge">
<title>src/image/image.module.ts&#45;&gt;src/image/image.service.ts</title>
<path fill="none" stroke="#000000" stroke-width="2" stroke-opacity="0.200000" d="M298.33,-671.78C303.64,-674 308.58,-677.03 312.5,-681.18 331.23,-701 304.16,-724.04 325.38,-741.18 343.98,-756.21 409.26,-744.11 433,-741.18 439.64,-740.36 446.61,-739.04 453.34,-737.52"/>
<polygon fill="#000000" fill-opacity="0.200000" stroke="#000000" stroke-width="2" stroke-opacity="0.200000" points="453.42,-739.66 458.76,-736.22 452.44,-735.58 453.42,-739.66"/>
</g>
<!-- src/auth/jwt.strategy.ts&#45;&gt;node_modules/@nestjs/common -->
<g id="edge35" class="edge">
<title>src/auth/jwt.strategy.ts&#45;&gt;node_modules/@nestjs/common</title>
<path fill="none" stroke="#000000" stroke-opacity="0.200000" d="M528.88,-896.23C533.82,-894.07 538.43,-891.15 542,-887.18 553.84,-874.03 542.12,-864.02 550,-848.18 580.82,-786.21 609.82,-785.46 652.75,-731.18 705.84,-664.05 736.78,-655.24 764.25,-574.18 772.21,-550.7 756.77,-370.55 772.25,-351.18 777.97,-344.02 786.68,-340.04 795.57,-337.89"/>
<polygon fill="#000000" fill-opacity="0.200000" stroke="#000000" stroke-opacity="0.200000" points="795.7,-340 801.2,-336.81 794.91,-335.88 795.7,-340"/>
</g>
<!-- src/auth/jwt.strategy.ts&#45;&gt;node_modules/@nestjs/passport -->
<g id="edge36" class="edge">
<title>src/auth/jwt.strategy.ts&#45;&gt;node_modules/@nestjs/passport</title>
<path fill="none" stroke="#000000" stroke-opacity="0.200000" d="M524.99,-892.86C592.33,-871.8 749.9,-820.78 764.25,-800.18 777.56,-781.08 757.87,-399.49 772.25,-381.18 777.91,-373.97 786.6,-369.98 795.49,-367.83"/>
<polygon fill="#000000" fill-opacity="0.200000" stroke="#000000" stroke-opacity="0.200000" points="795.62,-369.94 801.12,-366.76 794.84,-365.81 795.62,-369.94"/>
</g>
<!-- src/auth/jwt.strategy.ts&#45;&gt;node_modules/passport&#45;jwt -->
<g id="edge38" class="edge">
<title>src/auth/jwt.strategy.ts&#45;&gt;node_modules/passport&#45;jwt</title>
<path fill="none" stroke="#000000" stroke-opacity="0.200000" d="M529.25,-900.98C594.98,-897.91 734.31,-887.31 764.25,-852.18 776.11,-838.27 760.92,-537.53 772.25,-523.18 776.75,-517.48 783.14,-513.79 790.02,-511.44"/>
<polygon fill="#000000" fill-opacity="0.200000" stroke="#000000" stroke-opacity="0.200000" points="790.33,-513.53 795.56,-509.9 789.21,-509.48 790.33,-513.53"/>
</g>
<!-- src/auth/jwt.strategy.ts&#45;&gt;src/config/configuration.ts -->
<g id="edge37" class="edge">
<title>src/auth/jwt.strategy.ts&#45;&gt;src/config/configuration.ts</title>
<path fill="none" stroke="#000000" stroke-width="2" stroke-opacity="0.200000" d="M513.34,-911.3C522.97,-916.81 534.29,-924.61 542,-934.18 548,-941.64 543.24,-947.4 550,-954.18 553.37,-957.56 557.33,-960.44 561.55,-962.89"/>
<polygon fill="#000000" fill-opacity="0.200000" stroke="#000000" stroke-width="2" stroke-opacity="0.200000" points="560.35,-964.64 566.65,-965.48 562.25,-960.9 560.35,-964.64"/>
</g>
<!-- src/auth/local.strategy.ts&#45;&gt;node_modules/@nestjs/common -->
<g id="edge42" class="edge">
<title>src/auth/local.strategy.ts&#45;&gt;node_modules/@nestjs/common</title>
<path fill="none" stroke="#000000" stroke-opacity="0.200000" d="M532.85,-864.6C536.32,-862.65 539.47,-860.22 542,-857.18 560.07,-835.5 539.81,-820.5 550,-794.18 609.8,-639.69 709.76,-645.62 764.25,-489.18 769.3,-474.68 762.53,-363.07 772.25,-351.18 777.99,-344.15 786.61,-340.2 795.4,-338.03"/>
<polygon fill="#000000" fill-opacity="0.200000" stroke="#000000" stroke-opacity="0.200000" points="795.8,-340.09 801.29,-336.89 795,-335.97 795.8,-340.09"/>
</g>
<!-- src/auth/local.strategy.ts&#45;&gt;node_modules/@nestjs/passport -->
<g id="edge43" class="edge">
<title>src/auth/local.strategy.ts&#45;&gt;node_modules/@nestjs/passport</title>
<path fill="none" stroke="#000000" stroke-opacity="0.200000" d="M531.38,-862.98C535.12,-861.34 538.74,-859.42 542,-857.18 546.69,-853.96 545.69,-850.9 550,-847.18 633.45,-775.14 708.23,-817.13 764.25,-722.18 773.88,-705.86 760.51,-396.06 772.25,-381.18 777.93,-373.98 786.62,-369.99 795.51,-367.84"/>
<polygon fill="#000000" fill-opacity="0.200000" stroke="#000000" stroke-opacity="0.200000" points="795.64,-369.96 801.14,-366.77 794.86,-365.83 795.64,-369.96"/>
</g>
<!-- src/auth/local.strategy.ts&#45;&gt;node_modules/passport&#45;local -->
<g id="edge44" class="edge">
<title>src/auth/local.strategy.ts&#45;&gt;node_modules/passport&#45;local</title>
<path fill="none" stroke="#000000" stroke-opacity="0.200000" d="M532.58,-871.07C593.15,-867.01 710.52,-849.29 764.25,-774.18 782.42,-748.78 752.84,-517.65 772.25,-493.18 775.86,-488.63 780.67,-485.37 785.97,-483.04"/>
<polygon fill="#000000" fill-opacity="0.200000" stroke="#000000" stroke-opacity="0.200000" points="786.52,-485.07 791.46,-481.07 785.11,-481.11 786.52,-485.07"/>
</g>
<!-- src/auth/local.strategy.ts&#45;&gt;src/auth/auth.service.ts -->
<g id="edge41" class="edge">
<title>src/auth/local.strategy.ts&#45;&gt;src/auth/auth.service.ts</title>
<path fill="none" stroke="#000000" stroke-width="2" stroke-opacity="0.200000" d="M526.21,-881.55C531.52,-883.31 536.95,-885.21 542,-887.18 554.06,-891.88 567.09,-897.79 578.1,-903.06"/>
<polygon fill="#000000" fill-opacity="0.200000" stroke="#000000" stroke-width="2" stroke-opacity="0.200000" points="577.04,-904.88 583.36,-905.6 578.88,-901.1 577.04,-904.88"/>
</g>
<!-- src/auth/auth.service.spec.ts -->
<g id="node33" class="node">
<title>src/auth/auth.service.spec.ts</title>
<g id="a_node33"><a xlink:href="src/auth/auth.service.spec.ts" xlink:title="auth.service.spec.ts">
<path fill="#ddfeff" stroke="black" d="M535.58,-851.06C535.58,-851.06 451.92,-851.06 451.92,-851.06 448.96,-851.06 446,-848.1 446,-845.14 446,-845.14 446,-839.22 446,-839.22 446,-836.26 448.96,-833.31 451.92,-833.31 451.92,-833.31 535.58,-833.31 535.58,-833.31 538.54,-833.31 541.5,-836.26 541.5,-839.22 541.5,-839.22 541.5,-845.14 541.5,-845.14 541.5,-848.1 538.54,-851.06 535.58,-851.06"/>
<text text-anchor="start" x="454" y="-838.51" font-family="Helvetica,sans-Serif" font-size="9.00">auth.service.spec.ts</text>
</a>
</g>
</g>
<!-- src/auth/auth.service.spec.ts&#45;&gt;node_modules/@nestjs/testing -->
<g id="edge29" class="edge">
<title>src/auth/auth.service.spec.ts&#45;&gt;node_modules/@nestjs/testing</title>
<path fill="none" stroke="#000000" stroke-opacity="0.200000" d="M508.12,-832.84C519.29,-824.22 534.56,-810.32 542,-794.18 559.19,-756.91 535.55,-740.59 550,-702.18 606.68,-551.53 707.35,-560.75 764.25,-410.18 771.27,-391.61 759.44,-336.36 772.25,-321.18 778.05,-314.31 786.6,-310.39 795.31,-308.21"/>
<polygon fill="#000000" fill-opacity="0.200000" stroke="#000000" stroke-opacity="0.200000" points="795.65,-310.28 801.13,-307.05 794.83,-306.16 795.65,-310.28"/>
</g>
<!-- src/auth/auth.service.spec.ts&#45;&gt;src/auth/auth.service.ts -->
<g id="edge28" class="edge">
<title>src/auth/auth.service.spec.ts&#45;&gt;src/auth/auth.service.ts</title>
<path fill="none" stroke="#000000" stroke-width="2" stroke-opacity="0.200000" d="M530.09,-851.44C534.23,-853.09 538.29,-855 542,-857.18 561.29,-868.55 579.41,-886.88 591.1,-900.1"/>
<polygon fill="#000000" fill-opacity="0.200000" stroke="#000000" stroke-width="2" stroke-opacity="0.200000" points="589.42,-901.36 594.92,-904.54 592.6,-898.63 589.42,-901.36"/>
</g>
<!-- src/user/user.service.ts&#45;&gt;node_modules/@nestjs/common -->
<g id="edge81" class="edge">
<title>src/user/user.service.ts&#45;&gt;node_modules/@nestjs/common</title>
<path fill="none" stroke="#000000" stroke-opacity="0.200000" d="M728.49,-1056.83C739.9,-1046.33 757.07,-1028.14 764.25,-1008.18 770.43,-991.01 761.03,-365.57 772.25,-351.18 777.89,-343.95 786.57,-339.95 795.46,-337.8"/>
<polygon fill="#000000" fill-opacity="0.200000" stroke="#000000" stroke-opacity="0.200000" points="795.59,-339.91 801.1,-336.73 794.81,-335.79 795.59,-339.91"/>
</g>
<!-- src/user/user.service.ts&#45;&gt;node_modules/@nestjs/mongoose -->
<g id="edge82" class="edge">
<title>src/user/user.service.ts&#45;&gt;node_modules/@nestjs/mongoose</title>
<path fill="none" stroke="#000000" stroke-opacity="0.200000" d="M728.48,-1056.82C739.89,-1046.32 757.05,-1028.13 764.25,-1008.18 769.61,-993.31 762.31,-451.47 772.25,-439.18 777.36,-432.86 784.85,-429.23 792.74,-427.22"/>
<polygon fill="#000000" fill-opacity="0.200000" stroke="#000000" stroke-opacity="0.200000" points="793.05,-429.3 798.54,-426.09 792.25,-425.17 793.05,-429.3"/>
</g>
<!-- src/user/user.service.ts&#45;&gt;node_modules/mongoose -->
<g id="edge84" class="edge">
<title>src/user/user.service.ts&#45;&gt;node_modules/mongoose</title>
<path fill="none" stroke="#000000" stroke-opacity="0.200000" d="M738.24,-1056.89C747.68,-1051.59 758.09,-1044.02 764.25,-1034.18 809.48,-961.87 825.04,-684.92 828.3,-614.53"/>
<polygon fill="#000000" fill-opacity="0.200000" stroke="#000000" stroke-opacity="0.200000" points="830.39,-614.93 828.56,-608.84 826.19,-614.74 830.39,-614.93"/>
</g>
<!-- src/user/user.service.ts&#45;&gt;src/mongodb/schemas/user.schema.ts -->
<g id="edge83" class="edge">
<title>src/user/user.service.ts&#45;&gt;src/mongodb/schemas/user.schema.ts</title>
<path fill="none" stroke="#000000" stroke-width="2" stroke-opacity="0.200000" d="M727.79,-1075.22C746.94,-1092.06 788.24,-1128.36 811.73,-1149.01"/>
<polygon fill="#000000" fill-opacity="0.200000" stroke="#000000" stroke-width="2" stroke-opacity="0.200000" points="810.24,-1150.49 816.14,-1152.87 813.02,-1147.34 810.24,-1150.49"/>
</g>
<!-- src/image/MulterConfigService.ts&#45;&gt;fs -->
<g id="edge49" class="edge">
<title>src/image/MulterConfigService.ts&#45;&gt;fs</title>
<path fill="none" stroke="#000000" stroke-dasharray="5,2" stroke-opacity="0.200000" d="M380.35,-657.12C381.14,-600.5 388.1,-295.29 446,-227.18 449.65,-222.89 454.53,-219.81 459.76,-217.61"/>
<polygon fill="#000000" fill-opacity="0.200000" stroke="#000000" stroke-opacity="0.200000" points="460.11,-219.71 465.09,-215.76 458.73,-215.75 460.11,-219.71"/>
</g>
<!-- src/image/MulterConfigService.ts&#45;&gt;node_modules/@nestjs/common -->
<g id="edge47" class="edge">
<title>src/image/MulterConfigService.ts&#45;&gt;node_modules/@nestjs/common</title>
<path fill="none" stroke="#000000" stroke-opacity="0.200000" d="M381.08,-656.95C385.2,-613.24 404.93,-427.57 446,-390.18 544.9,-300.15 721.72,-317.52 795.37,-329.67"/>
<polygon fill="#000000" fill-opacity="0.200000" stroke="#000000" stroke-opacity="0.200000" points="794.82,-331.71 801.09,-330.64 795.53,-327.57 794.82,-331.71"/>
</g>
<!-- src/image/MulterConfigService.ts&#45;&gt;node_modules/@nestjs/config -->
<g id="edge48" class="edge">
<title>src/image/MulterConfigService.ts&#45;&gt;node_modules/@nestjs/config</title>
<path fill="none" stroke="#000000" stroke-opacity="0.200000" d="M380.77,-656.89C383.68,-608.23 399.54,-383.16 446,-335.18 470.6,-309.78 706.3,-267.19 795.25,-251.88"/>
<polygon fill="#000000" fill-opacity="0.200000" stroke="#000000" stroke-opacity="0.200000" points="795.59,-253.95 801.15,-250.87 794.88,-249.81 795.59,-253.95"/>
</g>
<!-- src/image/MulterConfigService.ts&#45;&gt;node_modules/multer -->
<g id="edge50" class="edge">
<title>src/image/MulterConfigService.ts&#45;&gt;node_modules/multer</title>
<path fill="none" stroke="#000000" stroke-opacity="0.200000" d="M380.72,-657.08C383.51,-606.25 399.38,-357.75 446,-300.18 452.16,-292.58 762.97,-170.28 772.25,-167.18 779.72,-164.68 787.86,-162.32 795.58,-160.25"/>
<polygon fill="#000000" fill-opacity="0.200000" stroke="#000000" stroke-opacity="0.200000" points="795.78,-162.37 801.05,-158.81 794.71,-158.3 795.78,-162.37"/>
</g>
<!-- src/image/MulterConfigService.ts&#45;&gt;path -->
<g id="edge51" class="edge">
<title>src/image/MulterConfigService.ts&#45;&gt;path</title>
<path fill="none" stroke="#000000" stroke-dasharray="5,2" stroke-opacity="0.200000" d="M380.52,-657.15C382.31,-603.26 394.02,-324.21 446,-260.18 449.62,-255.72 454.49,-252.36 459.72,-249.83"/>
<polygon fill="#000000" fill-opacity="0.200000" stroke="#000000" stroke-opacity="0.200000" points="460.32,-251.86 465.07,-247.63 458.72,-247.97 460.32,-251.86"/>
</g>
<!-- src/image/entities/image.entity.ts -->
<g id="node36" class="node">
<title>src/image/entities/image.entity.ts</title>
<g id="a_node36"><a xlink:href="src/image/entities/image.entity.ts" xlink:title="no&#45;orphans">
<path fill="#ccffcc" stroke="orange" d="M287.83,-739.06C287.83,-739.06 225.92,-739.06 225.92,-739.06 222.96,-739.06 220,-736.1 220,-733.14 220,-733.14 220,-727.22 220,-727.22 220,-724.26 222.96,-721.31 225.92,-721.31 225.92,-721.31 287.83,-721.31 287.83,-721.31 290.79,-721.31 293.75,-724.26 293.75,-727.22 293.75,-727.22 293.75,-733.14 293.75,-733.14 293.75,-736.1 290.79,-739.06 287.83,-739.06"/>
<text text-anchor="start" x="228" y="-726.51" font-family="Helvetica,sans-Serif" font-size="9.00" fill="orange">image.entity.ts</text>
</a>
</g>
</g>
<!-- src/image/image.controller.spec.ts -->
<g id="node37" class="node">
<title>src/image/image.controller.spec.ts</title>
<g id="a_node37"><a xlink:href="src/image/image.controller.spec.ts" xlink:title="image.controller.spec.ts">
<path fill="#ddfeff" stroke="black" d="M306.58,-705.06C306.58,-705.06 207.17,-705.06 207.17,-705.06 204.21,-705.06 201.25,-702.1 201.25,-699.14 201.25,-699.14 201.25,-693.22 201.25,-693.22 201.25,-690.26 204.21,-687.31 207.17,-687.31 207.17,-687.31 306.58,-687.31 306.58,-687.31 309.54,-687.31 312.5,-690.26 312.5,-693.22 312.5,-693.22 312.5,-699.14 312.5,-699.14 312.5,-702.1 309.54,-705.06 306.58,-705.06"/>
<text text-anchor="start" x="209.25" y="-692.51" font-family="Helvetica,sans-Serif" font-size="9.00">image.controller.spec.ts</text>
</a>
</g>
</g>
<!-- src/image/image.controller.spec.ts&#45;&gt;node_modules/@nestjs/testing -->
<g id="edge54" class="edge">
<title>src/image/image.controller.spec.ts&#45;&gt;node_modules/@nestjs/testing</title>
<path fill="none" stroke="#000000" stroke-opacity="0.200000" d="M306.64,-686.84C308.82,-685.22 310.8,-683.35 312.5,-681.18 329.87,-658.99 306.16,-194.79 325.38,-174.18 350.86,-146.85 455.39,-158.18 492.75,-158.18 492.75,-158.18 492.75,-158.18 606.38,-158.18 630,-158.18 751.27,-280.32 772.25,-291.18 779.46,-294.91 787.67,-297.77 795.57,-299.94"/>
<polygon fill="#000000" fill-opacity="0.200000" stroke="#000000" stroke-opacity="0.200000" points="794.89,-301.94 801.23,-301.38 795.93,-297.87 794.89,-301.94"/>
</g>
<!-- src/image/image.controller.spec.ts&#45;&gt;src/image/image.controller.ts -->
<g id="edge52" class="edge">
<title>src/image/image.controller.spec.ts&#45;&gt;src/image/image.controller.ts</title>
<path fill="none" stroke="#000000" stroke-width="2" stroke-opacity="0.200000" d="M312.78,-696.18C316.94,-696.18 321.13,-696.18 325.28,-696.18"/>
<polygon fill="#000000" fill-opacity="0.200000" stroke="#000000" stroke-width="2" stroke-opacity="0.200000" points="325.22,-698.28 331.22,-696.18 325.22,-694.08 325.22,-698.28"/>
</g>
<!-- src/image/image.controller.spec.ts&#45;&gt;src/image/image.service.ts -->
<g id="edge53" class="edge">
<title>src/image/image.controller.spec.ts&#45;&gt;src/image/image.service.ts</title>
<path fill="none" stroke="#000000" stroke-width="2" stroke-opacity="0.200000" d="M306.47,-705.52C308.63,-706.88 310.66,-708.42 312.5,-710.18 326.62,-723.66 309.68,-740.57 325.38,-752.18 368.28,-783.9 434.45,-757.59 469.35,-739.58"/>
<polygon fill="#000000" fill-opacity="0.200000" stroke="#000000" stroke-width="2" stroke-opacity="0.200000" points="470.14,-741.54 474.44,-736.87 468.16,-737.84 470.14,-741.54"/>
</g>
<!-- src/image/image.controller.ts&#45;&gt;node_modules/@nestjs/common -->
<g id="edge56" class="edge">
<title>src/image/image.controller.ts&#45;&gt;node_modules/@nestjs/common</title>
<path fill="none" stroke="#000000" stroke-opacity="0.200000" d="M424.46,-688.52C427.7,-686.57 430.62,-684.16 433,-681.18 466.2,-639.62 412.7,-483.65 446,-442.18 446.74,-441.26 771.12,-351.49 772.25,-351.18 779.85,-349.11 788.04,-346.93 795.77,-344.88"/>
<polygon fill="#000000" fill-opacity="0.200000" stroke="#000000" stroke-opacity="0.200000" points="795.98,-347 801.24,-343.44 794.9,-342.94 795.98,-347"/>
</g>
<!-- src/image/image.controller.ts&#45;&gt;node_modules/@nestjs/platform&#45;express -->
<g id="edge57" class="edge">
<title>src/image/image.controller.ts&#45;&gt;node_modules/@nestjs/platform&#45;express</title>
<path fill="none" stroke="#000000" stroke-opacity="0.200000" d="M424.48,-688.53C427.72,-686.58 430.63,-684.16 433,-681.18 470.21,-634.31 408.25,-458.62 446,-412.18 537.99,-299.01 663.72,-437.84 764.25,-332.18 777.05,-318.73 759.56,-304.73 772.25,-291.18 774.84,-288.42 777.87,-286.14 781.17,-284.26"/>
<polygon fill="#000000" fill-opacity="0.200000" stroke="#000000" stroke-opacity="0.200000" points="781.88,-286.25 786.41,-281.78 780.09,-282.45 781.88,-286.25"/>
</g>
<!-- src/image/image.controller.ts&#45;&gt;node_modules/express -->
<g id="edge58" class="edge">
<title>src/image/image.controller.ts&#45;&gt;node_modules/express</title>
<g id="a_edge58"><a xlink:title="not&#45;to&#45;dev&#45;dep">
<path fill="none" stroke="red" d="M424.02,-688.84C427.44,-686.84 430.53,-684.32 433,-681.18 455.02,-653.23 424.61,-389.62 446,-361.18 473.03,-325.24 500.99,-347.63 542,-329.18 649.77,-280.69 662.63,-240.33 772.25,-196.18 779.6,-193.22 787.75,-190.76 795.52,-188.78"/>
<polygon fill="red" stroke="red" points="795.71,-190.89 801.05,-187.44 794.73,-186.81 795.71,-190.89"/>
</a>
</g>
<text text-anchor="middle" x="527.51" y="-313.58" font-family="Helvetica,sans-Serif" font-size="9.00" fill="red">not&#45;to&#45;dev&#45;dep</text>
</g>
<!-- src/image/image.controller.ts&#45;&gt;src/image/image.service.ts -->
<g id="edge55" class="edge">
<title>src/image/image.controller.ts&#45;&gt;src/image/image.service.ts</title>
<path fill="none" stroke="#000000" stroke-width="2" stroke-opacity="0.200000" d="M415.23,-705.51C426.02,-708.39 438.04,-711.59 449.33,-714.6"/>
<polygon fill="#000000" fill-opacity="0.200000" stroke="#000000" stroke-width="2" stroke-opacity="0.200000" points="448.53,-716.56 454.87,-716.08 449.61,-712.5 448.53,-716.56"/>
</g>
<!-- src/image/image.service.ts&#45;&gt;node_modules/@nestjs/common -->
<g id="edge66" class="edge">
<title>src/image/image.service.ts&#45;&gt;node_modules/@nestjs/common</title>
<path fill="none" stroke="#000000" stroke-opacity="0.200000" d="M515.73,-716.92C573.96,-690.77 735.21,-615.06 764.25,-566.18 776.46,-545.63 757.32,-369.85 772.25,-351.18 777.92,-344.09 786.51,-340.12 795.31,-337.96"/>
<polygon fill="#000000" fill-opacity="0.200000" stroke="#000000" stroke-opacity="0.200000" points="795.71,-340.02 801.2,-336.82 794.91,-335.89 795.71,-340.02"/>
</g>
<!-- src/image/image.service.spec.ts -->
<g id="node40" class="node">
<title>src/image/image.service.spec.ts</title>
<g id="a_node40"><a xlink:href="src/image/image.service.spec.ts" xlink:title="image.service.spec.ts">
<path fill="#ddfeff" stroke="black" d="M424.46,-735.06C424.46,-735.06 334.04,-735.06 334.04,-735.06 331.08,-735.06 328.12,-732.1 328.12,-729.14 328.12,-729.14 328.12,-723.22 328.12,-723.22 328.12,-720.26 331.08,-717.31 334.04,-717.31 334.04,-717.31 424.46,-717.31 424.46,-717.31 427.42,-717.31 430.38,-720.26 430.38,-723.22 430.38,-723.22 430.38,-729.14 430.38,-729.14 430.38,-732.1 427.42,-735.06 424.46,-735.06"/>
<text text-anchor="start" x="336.12" y="-722.51" font-family="Helvetica,sans-Serif" font-size="9.00">image.service.spec.ts</text>
</a>
</g>
</g>
<!-- src/image/image.service.spec.ts&#45;&gt;node_modules/@nestjs/testing -->
<g id="edge65" class="edge">
<title>src/image/image.service.spec.ts&#45;&gt;node_modules/@nestjs/testing</title>
<path fill="none" stroke="#000000" stroke-opacity="0.200000" d="M426.84,-716.98C429.14,-715.34 431.22,-713.42 433,-711.18 470.21,-664.31 408,-488.42 446,-442.18 492.26,-385.88 714.16,-416.11 764.25,-363.18 777.31,-349.38 759.29,-335.08 772.25,-321.18 778.33,-314.66 786.88,-310.84 795.51,-308.64"/>
<polygon fill="#000000" fill-opacity="0.200000" stroke="#000000" stroke-opacity="0.200000" points="795.79,-310.73 801.24,-307.46 794.94,-306.62 795.79,-310.73"/>
</g>
<!-- src/image/image.service.spec.ts&#45;&gt;src/image/image.service.ts -->
<g id="edge64" class="edge">
<title>src/image/image.service.spec.ts&#45;&gt;src/image/image.service.ts</title>
<path fill="none" stroke="#000000" stroke-width="2" stroke-opacity="0.200000" d="M430.58,-726.18C435.21,-726.18 439.9,-726.18 444.52,-726.18"/>
<polygon fill="#000000" fill-opacity="0.200000" stroke="#000000" stroke-width="2" stroke-opacity="0.200000" points="444.24,-728.28 450.24,-726.18 444.24,-724.08 444.24,-728.28"/>
</g>
<!-- src/main.ts -->
<g id="node41" class="node">
<title>src/main.ts</title>
<g id="a_node41"><a xlink:href="src/main.ts" xlink:title="main.ts">
<path fill="#ddfeff" stroke="black" d="M64.08,-759.06C64.08,-759.06 21.92,-759.06 21.92,-759.06 18.96,-759.06 16,-756.1 16,-753.14 16,-753.14 16,-747.22 16,-747.22 16,-744.26 18.96,-741.31 21.92,-741.31 21.92,-741.31 64.08,-741.31 64.08,-741.31 67.04,-741.31 70,-744.26 70,-747.22 70,-747.22 70,-753.14 70,-753.14 70,-756.1 67.04,-759.06 64.08,-759.06"/>
<text text-anchor="start" x="28.38" y="-746.51" font-family="Helvetica,sans-Serif" font-size="9.00">main.ts</text>
</a>
</g>
</g>
<!-- src/main.ts&#45;&gt;node_modules/@nestjs/core -->
<g id="edge68" class="edge">
<title>src/main.ts&#45;&gt;node_modules/@nestjs/core</title>
<path fill="none" stroke="#000000" stroke-opacity="0.200000" d="M44.49,-740.89C48.74,-663.15 82.22,-121.37 193.25,-13.18 213.49,6.54 227.62,-2.18 255.88,-2.18 255.88,-2.18 255.88,-2.18 606.38,-2.18 679.84,-2.18 719.13,6.8 764.25,-51.18 785.02,-77.88 750.48,-177.29 772.25,-203.18 777.99,-210.01 786.52,-213.68 795.24,-215.55"/>
<polygon fill="#000000" fill-opacity="0.200000" stroke="#000000" stroke-opacity="0.200000" points="794.79,-217.6 801.05,-216.49 795.46,-213.46 794.79,-217.6"/>
</g>
<!-- src/main.ts&#45;&gt;src/app.module.ts -->
<g id="edge67" class="edge">
<title>src/main.ts&#45;&gt;src/app.module.ts</title>
<path fill="none" stroke="#000000" stroke-width="2" stroke-opacity="0.200000" d="M46.79,-759.28C51.78,-774.13 63.55,-803.69 83,-821.18 86.29,-824.14 90.06,-826.72 94.02,-828.96"/>
<polygon fill="#000000" fill-opacity="0.200000" stroke="#000000" stroke-width="2" stroke-opacity="0.200000" points="92.79,-830.69 99.09,-831.51 94.67,-826.94 92.79,-830.69"/>
</g>
<!-- src/mongodb/mongodb.service.ts&#45;&gt;node_modules/@nestjs/common -->
<g id="edge73" class="edge">
<title>src/mongodb/mongodb.service.ts&#45;&gt;node_modules/@nestjs/common</title>
<path fill="none" stroke="#000000" stroke-opacity="0.200000" d="M782.6,-1211.53C775.87,-1208.36 770.47,-1203.51 768.25,-1196.18 764.87,-1185.03 764.87,-368.33 768.25,-357.18 771.79,-345.49 783.3,-339.93 795.45,-337.4"/>
<polygon fill="#000000" fill-opacity="0.200000" stroke="#000000" stroke-opacity="0.200000" points="795.53,-339.51 801.12,-336.48 794.86,-335.36 795.53,-339.51"/>
</g>
<!-- src/mongodb/mongodb.service.ts&#45;&gt;node_modules/@nestjs/mongoose -->
<g id="edge74" class="edge">
<title>src/mongodb/mongodb.service.ts&#45;&gt;node_modules/@nestjs/mongoose</title>
<path fill="none" stroke="#000000" stroke-opacity="0.200000" d="M782.6,-1211.53C775.87,-1208.36 770.47,-1203.51 768.25,-1196.18 765.23,-1186.2 765.23,-455.16 768.25,-445.18 771.48,-434.52 781.48,-429.28 792.53,-426.84"/>
<polygon fill="#000000" fill-opacity="0.200000" stroke="#000000" stroke-opacity="0.200000" points="792.81,-428.93 798.38,-425.87 792.12,-424.78 792.81,-428.93"/>
</g>
<!-- src/mongodb/mongodb.service.ts&#45;&gt;node_modules/mongoose -->
<g id="edge75" class="edge">
<title>src/mongodb/mongodb.service.ts&#45;&gt;node_modules/mongoose</title>
<path fill="none" stroke="#000000" stroke-opacity="0.200000" d="M782.68,-1207.9C778.99,-1206.32 775.46,-1204.43 772.25,-1202.18 769.62,-1200.34 769.18,-1199.25 768.25,-1196.18 762.33,-1176.61 767.11,-1170.59 768.25,-1150.18 780.12,-937.38 817.52,-680.58 827.52,-614.37"/>
<polygon fill="#000000" fill-opacity="0.200000" stroke="#000000" stroke-opacity="0.200000" points="829.55,-615 828.37,-608.75 825.4,-614.37 829.55,-615"/>
</g>
<!-- src/mongodb/schemas/user.schema.ts&#45;&gt;node_modules/@nestjs/mongoose -->
<g id="edge76" class="edge">
<title>src/mongodb/schemas/user.schema.ts&#45;&gt;node_modules/@nestjs/mongoose</title>
<path fill="none" stroke="#000000" stroke-opacity="0.200000" d="M828.55,-1155.07C820.43,-1103.62 780.57,-844.01 768.25,-630.18 767.07,-609.66 762.29,-464.85 768.25,-445.18 771.48,-434.52 781.48,-429.28 792.53,-426.84"/>
<polygon fill="#000000" fill-opacity="0.200000" stroke="#000000" stroke-opacity="0.200000" points="792.81,-428.93 798.38,-425.87 792.12,-424.78 792.81,-428.93"/>
</g>
<!-- src/user/user.service.spec.ts -->
<g id="node44" class="node">
<title>src/user/user.service.spec.ts</title>
<g id="a_node44"><a xlink:href="src/user/user.service.spec.ts" xlink:title="user.service.spec.ts">
<path fill="#ddfeff" stroke="black" d="M646.83,-1075.06C646.83,-1075.06 563.92,-1075.06 563.92,-1075.06 560.96,-1075.06 558,-1072.1 558,-1069.14 558,-1069.14 558,-1063.22 558,-1063.22 558,-1060.26 560.96,-1057.31 563.92,-1057.31 563.92,-1057.31 646.83,-1057.31 646.83,-1057.31 649.79,-1057.31 652.75,-1060.26 652.75,-1063.22 652.75,-1063.22 652.75,-1069.14 652.75,-1069.14 652.75,-1072.1 649.79,-1075.06 646.83,-1075.06"/>
<text text-anchor="start" x="566" y="-1062.51" font-family="Helvetica,sans-Serif" font-size="9.00">user.service.spec.ts</text>
</a>
</g>
</g>
<!-- src/user/user.service.spec.ts&#45;&gt;node_modules/@nestjs/testing -->
<g id="edge80" class="edge">
<title>src/user/user.service.spec.ts&#45;&gt;node_modules/@nestjs/testing</title>
<path fill="none" stroke="#000000" stroke-opacity="0.200000" d="M637,-1056.97C643.06,-1053.82 648.76,-1049.66 652.75,-1044.18 668.84,-1022.07 654.3,-1009.75 660.75,-983.18 692.75,-851.41 739.48,-829.49 764.25,-696.18 768.06,-675.69 759.36,-337.55 772.25,-321.18 777.92,-313.98 786.61,-309.98 795.5,-307.83"/>
<polygon fill="#000000" fill-opacity="0.200000" stroke="#000000" stroke-opacity="0.200000" points="795.63,-309.95 801.13,-306.76 794.85,-305.82 795.63,-309.95"/>
</g>
<!-- src/user/user.service.spec.ts&#45;&gt;src/user/user.service.ts -->
<g id="edge79" class="edge">
<title>src/user/user.service.spec.ts&#45;&gt;src/user/user.service.ts</title>
<path fill="none" stroke="#000000" stroke-width="2" stroke-opacity="0.200000" d="M652.97,-1066.18C658.82,-1066.18 664.8,-1066.18 670.63,-1066.18"/>
<polygon fill="#000000" fill-opacity="0.200000" stroke="#000000" stroke-width="2" stroke-opacity="0.200000" points="670.6,-1068.28 676.6,-1066.18 670.6,-1064.08 670.6,-1068.28"/>
</g>
</g>
</svg>
