<?xml version="1.0" encoding="UTF-8" standalone="no"?>
<!DOCTYPE svg PUBLIC "-//W3C//DTD SVG 1.1//EN"
 "http://www.w3.org/Graphics/SVG/1.1/DTD/svg11.dtd">
<!-- Generated by graphviz version 9.0.0 (0)
 -->
<!-- Title: dependency&#45;cruiser output Pages: 1 -->
<svg width="853pt" height="1257pt"
 viewBox="0.00 0.00 852.75 1257.00" xmlns="http://www.w3.org/2000/svg" xmlns:xlink="http://www.w3.org/1999/xlink">
<g id="graph0" class="graph" transform="scale(1 1) rotate(0) translate(4 1253)">
<title>dependency&#45;cruiser output</title>
<polygon fill="white" stroke="none" points="-4,4 -4,-1253 848.75,-1253 848.75,4 -4,4"/>
<g id="clust1" class="cluster">
<title>cluster_node_modules</title>
<path fill="#ffffff" stroke="black" stroke-width="2" d="M725.25,-163C725.25,-163 816.75,-163 816.75,-163 822.75,-163 828.75,-169 828.75,-175 828.75,-175 828.75,-619 828.75,-619 828.75,-625 822.75,-631 816.75,-631 816.75,-631 725.25,-631 725.25,-631 719.25,-631 713.25,-625 713.25,-619 713.25,-619 713.25,-175 713.25,-175 713.25,-169 719.25,-163 725.25,-163"/>
<text text-anchor="middle" x="771" y="-618.45" font-family="Helvetica,sans-Serif" font-weight="bold" font-size="9.00">node_modules</text>
</g>
<g id="clust2" class="cluster">
<title>cluster_node_modules/@nestjs</title>
<path fill="#ffffff" stroke="black" stroke-width="2" d="M733.25,-227C733.25,-227 808.75,-227 808.75,-227 814.75,-227 820.75,-233 820.75,-239 820.75,-239 820.75,-477 820.75,-477 820.75,-483 814.75,-489 808.75,-489 808.75,-489 733.25,-489 733.25,-489 727.25,-489 721.25,-483 721.25,-477 721.25,-477 721.25,-239 721.25,-239 721.25,-233 727.25,-227 733.25,-227"/>
<text text-anchor="middle" x="771" y="-476.45" font-family="Helvetica,sans-Serif" font-weight="bold" font-size="9.00">@nestjs</text>
</g>
<g id="clust3" class="cluster">
<title>cluster_src</title>
<path fill="#ffffff" stroke="black" stroke-width="2" d="M20,-639C20,-639 824.75,-639 824.75,-639 830.75,-639 836.75,-645 836.75,-651 836.75,-651 836.75,-1229 836.75,-1229 836.75,-1235 830.75,-1241 824.75,-1241 824.75,-1241 20,-1241 20,-1241 14,-1241 8,-1235 8,-1229 8,-1229 8,-651 8,-651 8,-645 14,-639 20,-639"/>
<text text-anchor="middle" x="422.38" y="-1228.45" font-family="Helvetica,sans-Serif" font-weight="bold" font-size="9.00">src</text>
</g>
<g id="clust4" class="cluster">
<title>cluster_src/auth</title>
<path fill="#ffffff" stroke="black" stroke-width="2" d="M389.88,-823C389.88,-823 690.75,-823 690.75,-823 696.75,-823 702.75,-829 702.75,-835 702.75,-835 702.75,-937 702.75,-937 702.75,-943 696.75,-949 690.75,-949 690.75,-949 389.88,-949 389.88,-949 383.88,-949 377.88,-943 377.88,-937 377.88,-937 377.88,-835 377.88,-835 377.88,-829 383.88,-823 389.88,-823"/>
<text text-anchor="middle" x="540.31" y="-936.45" font-family="Helvetica,sans-Serif" font-weight="bold" font-size="9.00">auth</text>
</g>
<g id="clust5" class="cluster">
<title>cluster_src/config</title>
<path fill="#ffffff" stroke="black" stroke-width="2" d="M622.75,-957C622.75,-957 693,-957 693,-957 699,-957 705,-963 705,-969 705,-969 705,-1027 705,-1027 705,-1033 699,-1039 693,-1039 693,-1039 622.75,-1039 622.75,-1039 616.75,-1039 610.75,-1033 610.75,-1027 610.75,-1027 610.75,-969 610.75,-969 610.75,-963 616.75,-957 622.75,-957"/>
<text text-anchor="start" x="644.75" y="-1026.45" font-family="Helvetica,sans-Serif" font-weight="bold" font-size="9.00">config</text>
</g>
<g id="clust6" class="cluster">
<title>cluster_src/image</title>
<path fill="#ffffff" stroke="black" stroke-width="2" d="M257.75,-647C257.75,-647 582.5,-647 582.5,-647 588.5,-647 594.5,-653 594.5,-659 594.5,-659 594.5,-777 594.5,-777 594.5,-783 588.5,-789 582.5,-789 582.5,-789 257.75,-789 257.75,-789 251.75,-789 245.75,-783 245.75,-777 245.75,-777 245.75,-659 245.75,-659 245.75,-653 251.75,-647 257.75,-647"/>
<text text-anchor="middle" x="420.12" y="-776.45" font-family="Helvetica,sans-Serif" font-weight="bold" font-size="9.00">image</text>
</g>
<g id="clust7" class="cluster">
<title>cluster_src/image/entities</title>
<path fill="#ffffff" stroke="black" stroke-width="2" d="M276.5,-711C276.5,-711 342.25,-711 342.25,-711 348.25,-711 354.25,-717 354.25,-723 354.25,-723 354.25,-751 354.25,-751 354.25,-757 348.25,-763 342.25,-763 342.25,-763 276.5,-763 276.5,-763 270.5,-763 264.5,-757 264.5,-751 264.5,-751 264.5,-723 264.5,-723 264.5,-717 270.5,-711 276.5,-711"/>
<text text-anchor="middle" x="309.38" y="-750.45" font-family="Helvetica,sans-Serif" font-weight="bold" font-size="9.00">entities</text>
</g>
<g id="clust9" class="cluster">
<title>cluster_src/user</title>
<path fill="#ffffff" stroke="black" stroke-width="2" d="M614.5,-1047C614.5,-1047 816.75,-1047 816.75,-1047 822.75,-1047 828.75,-1053 828.75,-1059 828.75,-1059 828.75,-1203 828.75,-1203 828.75,-1209 822.75,-1215 816.75,-1215 816.75,-1215 614.5,-1215 614.5,-1215 608.5,-1215 602.5,-1209 602.5,-1203 602.5,-1203 602.5,-1059 602.5,-1059 602.5,-1053 608.5,-1047 614.5,-1047"/>
<text text-anchor="middle" x="715.62" y="-1202.45" font-family="Helvetica,sans-Serif" font-weight="bold" font-size="9.00">user</text>
</g>
<g id="clust11" class="cluster">
<title>cluster_src/user/schemas</title>
<path fill="#ffffff" stroke="black" stroke-width="2" d="M623.5,-1111C623.5,-1111 692.25,-1111 692.25,-1111 698.25,-1111 704.25,-1117 704.25,-1123 704.25,-1123 704.25,-1151 704.25,-1151 704.25,-1157 698.25,-1163 692.25,-1163 692.25,-1163 623.5,-1163 623.5,-1163 617.5,-1163 611.5,-1157 611.5,-1151 611.5,-1151 611.5,-1123 611.5,-1123 611.5,-1117 617.5,-1111 623.5,-1111"/>
<text text-anchor="middle" x="657.88" y="-1150.45" font-family="Helvetica,sans-Serif" font-weight="bold" font-size="9.00">schemas</text>
</g>
<g id="clust10" class="cluster">
<title>cluster_src/user/dto</title>
<path fill="#ffffff" stroke="black" stroke-width="2" d="M733.25,-1137C733.25,-1137 808.75,-1137 808.75,-1137 814.75,-1137 820.75,-1143 820.75,-1149 820.75,-1149 820.75,-1177 820.75,-1177 820.75,-1183 814.75,-1189 808.75,-1189 808.75,-1189 733.25,-1189 733.25,-1189 727.25,-1189 721.25,-1183 721.25,-1177 721.25,-1177 721.25,-1149 721.25,-1149 721.25,-1143 727.25,-1137 733.25,-1137"/>
<text text-anchor="middle" x="771" y="-1176.45" font-family="Helvetica,sans-Serif" font-weight="bold" font-size="9.00">dto</text>
</g>
<g id="clust8" class="cluster">
<title>cluster_src/mongodb</title>
<path fill="#ffffff" stroke="black" stroke-width="2" d="M28,-946C28,-946 115.5,-946 115.5,-946 121.5,-946 127.5,-952 127.5,-958 127.5,-958 127.5,-1016 127.5,-1016 127.5,-1022 121.5,-1028 115.5,-1028 115.5,-1028 28,-1028 28,-1028 22,-1028 16,-1022 16,-1016 16,-1016 16,-958 16,-958 16,-952 22,-946 28,-946"/>
<text text-anchor="middle" x="71.75" y="-1015.45" font-family="Helvetica,sans-Serif" font-weight="bold" font-size="9.00">mongodb</text>
</g>
<!-- fs -->
<g id="node1" class="node">
<title>fs</title>
<g id="a_node1"><a xlink:href="https://nodejs.org/api/fs.html" xlink:title="fs">
<path fill="#ffffcc" stroke="grey" d="M567.33,-296.88C567.33,-296.88 525.17,-296.88 525.17,-296.88 522.21,-296.88 519.25,-293.92 519.25,-290.96 519.25,-290.96 519.25,-285.04 519.25,-285.04 519.25,-282.08 522.21,-279.12 525.17,-279.12 525.17,-279.12 567.33,-279.12 567.33,-279.12 570.29,-279.12 573.25,-282.08 573.25,-285.04 573.25,-285.04 573.25,-290.96 573.25,-290.96 573.25,-293.92 570.29,-296.88 567.33,-296.88"/>
<text text-anchor="middle" x="546.25" y="-284.32" font-family="Helvetica,sans-Serif" font-size="9.00" fill="grey">fs</text>
</a>
</g>
</g>
<!-- node_modules/@nestjs/common -->
<g id="node2" class="node">
<title>node_modules/@nestjs/common</title>
<g id="a_node2"><a xlink:href="https://www.npmjs.com/package/@nestjs/common" xlink:title="common">
<polygon fill="#c40b0a" fill-opacity="0.101961" stroke="black" points="798,-372.88 745.97,-372.88 744,-370.9 744,-355.12 796.03,-355.12 798,-357.1 798,-372.88"/>
<polyline fill="none" stroke="black" points="796.03,-370.9 744,-370.9"/>
<polyline fill="none" stroke="black" points="796.03,-370.9 796.03,-355.12"/>
<polyline fill="none" stroke="black" points="796.03,-370.9 798,-372.88"/>
<text text-anchor="start" x="753.38" y="-360.32" font-family="Helvetica,sans-Serif" font-size="9.00" fill="#c40b0a">common</text>
</a>
</g>
</g>
<!-- node_modules/@nestjs/config -->
<g id="node3" class="node">
<title>node_modules/@nestjs/config</title>
<g id="a_node3"><a xlink:href="https://www.npmjs.com/package/@nestjs/config" xlink:title="config">
<polygon fill="#c40b0a" fill-opacity="0.101961" stroke="black" points="798,-282.88 745.97,-282.88 744,-280.9 744,-265.12 796.03,-265.12 798,-267.1 798,-282.88"/>
<polyline fill="none" stroke="black" points="796.03,-280.9 744,-280.9"/>
<polyline fill="none" stroke="black" points="796.03,-280.9 796.03,-265.12"/>
<polyline fill="none" stroke="black" points="796.03,-280.9 798,-282.88"/>
<text text-anchor="start" x="758.62" y="-270.32" font-family="Helvetica,sans-Serif" font-size="9.00" fill="#c40b0a">config</text>
</a>
</g>
</g>
<!-- node_modules/@nestjs/core -->
<g id="node4" class="node">
<title>node_modules/@nestjs/core</title>
<g id="a_node4"><a xlink:href="https://www.npmjs.com/package/@nestjs/core" xlink:title="core">
<polygon fill="#c40b0a" fill-opacity="0.101961" stroke="black" points="798,-252.88 745.97,-252.88 744,-250.9 744,-235.12 796.03,-235.12 798,-237.1 798,-252.88"/>
<polyline fill="none" stroke="black" points="796.03,-250.9 744,-250.9"/>
<polyline fill="none" stroke="black" points="796.03,-250.9 796.03,-235.12"/>
<polyline fill="none" stroke="black" points="796.03,-250.9 798,-252.88"/>
<text text-anchor="start" x="762" y="-240.32" font-family="Helvetica,sans-Serif" font-size="9.00" fill="#c40b0a">core</text>
</a>
</g>
</g>
<!-- node_modules/@nestjs/jwt -->
<g id="node5" class="node">
<title>node_modules/@nestjs/jwt</title>
<g id="a_node5"><a xlink:href="https://www.npmjs.com/package/@nestjs/jwt" xlink:title="jwt">
<polygon fill="#c40b0a" fill-opacity="0.101961" stroke="black" points="798,-432.88 745.97,-432.88 744,-430.9 744,-415.12 796.03,-415.12 798,-417.1 798,-432.88"/>
<polyline fill="none" stroke="black" points="796.03,-430.9 744,-430.9"/>
<polyline fill="none" stroke="black" points="796.03,-430.9 796.03,-415.12"/>
<polyline fill="none" stroke="black" points="796.03,-430.9 798,-432.88"/>
<text text-anchor="start" x="765.38" y="-420.32" font-family="Helvetica,sans-Serif" font-size="9.00" fill="#c40b0a">jwt</text>
</a>
</g>
</g>
<!-- node_modules/@nestjs/mongoose -->
<g id="node6" class="node">
<title>node_modules/@nestjs/mongoose</title>
<g id="a_node6"><a xlink:href="https://www.npmjs.com/package/@nestjs/mongoose" xlink:title="mongoose">
<polygon fill="#c40b0a" fill-opacity="0.101961" stroke="black" points="800.75,-462.88 743.22,-462.88 741.25,-460.9 741.25,-445.12 798.78,-445.12 800.75,-447.1 800.75,-462.88"/>
<polyline fill="none" stroke="black" points="798.78,-460.9 741.25,-460.9"/>
<polyline fill="none" stroke="black" points="798.78,-460.9 798.78,-445.12"/>
<polyline fill="none" stroke="black" points="798.78,-460.9 800.75,-462.88"/>
<text text-anchor="start" x="749.25" y="-450.32" font-family="Helvetica,sans-Serif" font-size="9.00" fill="#c40b0a">mongoose</text>
</a>
</g>
</g>
<!-- node_modules/@nestjs/passport -->
<g id="node7" class="node">
<title>node_modules/@nestjs/passport</title>
<g id="a_node7"><a xlink:href="https://www.npmjs.com/package/@nestjs/passport" xlink:title="passport">
<polygon fill="#c40b0a" fill-opacity="0.101961" stroke="black" points="798,-402.88 745.97,-402.88 744,-400.9 744,-385.12 796.03,-385.12 798,-387.1 798,-402.88"/>
<polyline fill="none" stroke="black" points="796.03,-400.9 744,-400.9"/>
<polyline fill="none" stroke="black" points="796.03,-400.9 796.03,-385.12"/>
<polyline fill="none" stroke="black" points="796.03,-400.9 798,-402.88"/>
<text text-anchor="start" x="753.38" y="-390.32" font-family="Helvetica,sans-Serif" font-size="9.00" fill="#c40b0a">passport</text>
</a>
</g>
</g>
<!-- node_modules/@nestjs/platform&#45;express -->
<g id="node8" class="node">
<title>node_modules/@nestjs/platform&#45;express</title>
<g id="a_node8"><a xlink:href="https://www.npmjs.com/package/@nestjs/platform-express" xlink:title="platform&#45;express">
<polygon fill="#c40b0a" fill-opacity="0.101961" stroke="black" points="812.75,-312.88 731.22,-312.88 729.25,-310.9 729.25,-295.12 810.78,-295.12 812.75,-297.1 812.75,-312.88"/>
<polyline fill="none" stroke="black" points="810.78,-310.9 729.25,-310.9"/>
<polyline fill="none" stroke="black" points="810.78,-310.9 810.78,-295.12"/>
<polyline fill="none" stroke="black" points="810.78,-310.9 812.75,-312.88"/>
<text text-anchor="start" x="737.25" y="-300.32" font-family="Helvetica,sans-Serif" font-size="9.00" fill="#c40b0a">platform&#45;express</text>
</a>
</g>
</g>
<!-- node_modules/@nestjs/testing -->
<g id="node9" class="node">
<title>node_modules/@nestjs/testing</title>
<g id="a_node9"><a xlink:href="https://www.npmjs.com/package/@nestjs/testing" xlink:title="testing">
<polygon fill="#c40b0a" fill-opacity="0.101961" stroke="black" points="798,-342.88 745.97,-342.88 744,-340.9 744,-325.12 796.03,-325.12 798,-327.1 798,-342.88"/>
<polyline fill="none" stroke="black" points="796.03,-340.9 744,-340.9"/>
<polyline fill="none" stroke="black" points="796.03,-340.9 796.03,-325.12"/>
<polyline fill="none" stroke="black" points="796.03,-340.9 798,-342.88"/>
<text text-anchor="start" x="757.5" y="-330.32" font-family="Helvetica,sans-Serif" font-size="9.00" fill="#c40b0a">testing</text>
</a>
</g>
</g>
<!-- node_modules/dotenv -->
<g id="node10" class="node">
<title>node_modules/dotenv</title>
<g id="a_node10"><a xlink:href="https://www.npmjs.com/package/dotenv" xlink:title="dotenv">
<polygon fill="#c40b0a" fill-opacity="0.101961" stroke="black" points="798,-574.88 745.97,-574.88 744,-572.9 744,-557.12 796.03,-557.12 798,-559.1 798,-574.88"/>
<polyline fill="none" stroke="black" points="796.03,-572.9 744,-572.9"/>
<polyline fill="none" stroke="black" points="796.03,-572.9 796.03,-557.12"/>
<polyline fill="none" stroke="black" points="796.03,-572.9 798,-574.88"/>
<text text-anchor="start" x="757.12" y="-562.33" font-family="Helvetica,sans-Serif" font-size="9.00" fill="#c40b0a">dotenv</text>
</a>
</g>
</g>
<!-- node_modules/express -->
<g id="node11" class="node">
<title>node_modules/express</title>
<g id="a_node11"><a xlink:href="https://www.npmjs.com/package/express" xlink:title="express">
<polygon fill="#c40b0a" fill-opacity="0.101961" stroke="black" points="798,-218.88 745.97,-218.88 744,-216.9 744,-201.12 796.03,-201.12 798,-203.1 798,-218.88"/>
<polyline fill="none" stroke="black" points="796.03,-216.9 744,-216.9"/>
<polyline fill="none" stroke="black" points="796.03,-216.9 796.03,-201.12"/>
<polyline fill="none" stroke="black" points="796.03,-216.9 798,-218.88"/>
<text text-anchor="start" x="755.25" y="-206.32" font-family="Helvetica,sans-Serif" font-size="9.00" fill="#c40b0a">express</text>
</a>
</g>
</g>
<!-- node_modules/joi -->
<g id="node12" class="node">
<title>node_modules/joi</title>
<g id="a_node12"><a xlink:href="https://www.npmjs.com/package/joi" xlink:title="joi">
<polygon fill="#c40b0a" fill-opacity="0.101961" stroke="black" points="798,-604.88 745.97,-604.88 744,-602.9 744,-587.12 796.03,-587.12 798,-589.1 798,-604.88"/>
<polyline fill="none" stroke="black" points="796.03,-602.9 744,-602.9"/>
<polyline fill="none" stroke="black" points="796.03,-602.9 796.03,-587.12"/>
<polyline fill="none" stroke="black" points="796.03,-602.9 798,-604.88"/>
<text text-anchor="start" x="766.12" y="-592.33" font-family="Helvetica,sans-Serif" font-size="9.00" fill="#c40b0a">joi</text>
</a>
</g>
</g>
<!-- node_modules/multer -->
<g id="node13" class="node">
<title>node_modules/multer</title>
<g id="a_node13"><a xlink:href="https://www.npmjs.com/package/multer" xlink:title="multer">
<polygon fill="#c40b0a" fill-opacity="0.101961" stroke="black" points="798,-188.88 745.97,-188.88 744,-186.9 744,-171.12 796.03,-171.12 798,-173.1 798,-188.88"/>
<polyline fill="none" stroke="black" points="796.03,-186.9 744,-186.9"/>
<polyline fill="none" stroke="black" points="796.03,-186.9 796.03,-171.12"/>
<polyline fill="none" stroke="black" points="796.03,-186.9 798,-188.88"/>
<text text-anchor="start" x="758.25" y="-176.32" font-family="Helvetica,sans-Serif" font-size="9.00" fill="#c40b0a">multer</text>
</a>
</g>
</g>
<!-- node_modules/passport&#45;jwt -->
<g id="node14" class="node">
<title>node_modules/passport&#45;jwt</title>
<g id="a_node14"><a xlink:href="https://www.npmjs.com/package/passport-jwt" xlink:title="passport&#45;jwt">
<polygon fill="#c40b0a" fill-opacity="0.101961" stroke="black" points="803.75,-544.88 740.22,-544.88 738.25,-542.9 738.25,-527.12 801.78,-527.12 803.75,-529.1 803.75,-544.88"/>
<polyline fill="none" stroke="black" points="801.78,-542.9 738.25,-542.9"/>
<polyline fill="none" stroke="black" points="801.78,-542.9 801.78,-527.12"/>
<polyline fill="none" stroke="black" points="801.78,-542.9 803.75,-544.88"/>
<text text-anchor="start" x="746.25" y="-532.33" font-family="Helvetica,sans-Serif" font-size="9.00" fill="#c40b0a">passport&#45;jwt</text>
</a>
</g>
</g>
<!-- node_modules/passport&#45;local -->
<g id="node15" class="node">
<title>node_modules/passport&#45;local</title>
<g id="a_node15"><a xlink:href="https://www.npmjs.com/package/passport-local" xlink:title="passport&#45;local">
<polygon fill="#c40b0a" fill-opacity="0.101961" stroke="black" points="807.88,-514.88 736.1,-514.88 734.12,-512.9 734.12,-497.12 805.9,-497.12 807.88,-499.1 807.88,-514.88"/>
<polyline fill="none" stroke="black" points="805.9,-512.9 734.12,-512.9"/>
<polyline fill="none" stroke="black" points="805.9,-512.9 805.9,-497.12"/>
<polyline fill="none" stroke="black" points="805.9,-512.9 807.88,-514.88"/>
<text text-anchor="start" x="742.12" y="-502.32" font-family="Helvetica,sans-Serif" font-size="9.00" fill="#c40b0a">passport&#45;local</text>
</a>
</g>
</g>
<!-- path -->
<g id="node16" class="node">
<title>path</title>
<g id="a_node16"><a xlink:href="https://nodejs.org/api/path.html" xlink:title="path">
<path fill="#ffffcc" stroke="grey" d="M567.33,-326.88C567.33,-326.88 525.17,-326.88 525.17,-326.88 522.21,-326.88 519.25,-323.92 519.25,-320.96 519.25,-320.96 519.25,-315.04 519.25,-315.04 519.25,-312.08 522.21,-309.12 525.17,-309.12 525.17,-309.12 567.33,-309.12 567.33,-309.12 570.29,-309.12 573.25,-312.08 573.25,-315.04 573.25,-315.04 573.25,-320.96 573.25,-320.96 573.25,-323.92 570.29,-326.88 567.33,-326.88"/>
<text text-anchor="middle" x="546.25" y="-314.32" font-family="Helvetica,sans-Serif" font-size="9.00" fill="grey">path</text>
</a>
</g>
</g>
<!-- src/app.controller.spec.ts -->
<g id="node17" class="node">
<title>src/app.controller.spec.ts</title>
<g id="a_node17"><a xlink:href="src/app.controller.spec.ts" xlink:title="app.controller.spec.ts">
<path fill="#ddfeff" stroke="black" d="M231.83,-809.88C231.83,-809.88 141.42,-809.88 141.42,-809.88 138.46,-809.88 135.5,-806.92 135.5,-803.96 135.5,-803.96 135.5,-798.04 135.5,-798.04 135.5,-795.08 138.46,-792.12 141.42,-792.12 141.42,-792.12 231.83,-792.12 231.83,-792.12 234.79,-792.12 237.75,-795.08 237.75,-798.04 237.75,-798.04 237.75,-803.96 237.75,-803.96 237.75,-806.92 234.79,-809.88 231.83,-809.88"/>
<text text-anchor="start" x="143.5" y="-797.33" font-family="Helvetica,sans-Serif" font-size="9.00">app.controller.spec.ts</text>
</a>
</g>
</g>
<!-- src/app.controller.spec.ts&#45;&gt;node_modules/@nestjs/testing -->
<g id="edge3" class="edge">
<title>src/app.controller.spec.ts&#45;&gt;node_modules/@nestjs/testing</title>
<path fill="none" stroke="#000000" stroke-opacity="0.200000" d="M187.71,-791.95C188.5,-716.37 195.75,-191.76 245.75,-146 397.4,-7.21 576.96,-38.36 705.25,-199 721.93,-219.88 696.25,-298.38 713.25,-319 718.97,-325.94 727.5,-329.88 736.21,-332.06"/>
<polygon fill="#000000" fill-opacity="0.200000" stroke="#000000" stroke-opacity="0.200000" points="735.74,-334.11 742.03,-333.21 736.55,-329.99 735.74,-334.11"/>
</g>
<!-- src/app.controller.ts -->
<g id="node18" class="node">
<title>src/app.controller.ts</title>
<g id="a_node18"><a xlink:href="src/app.controller.ts" xlink:title="app.controller.ts">
<path fill="#ddfeff" stroke="black" d="M343.71,-845.88C343.71,-845.88 275.04,-845.88 275.04,-845.88 272.08,-845.88 269.12,-842.92 269.12,-839.96 269.12,-839.96 269.12,-834.04 269.12,-834.04 269.12,-831.08 272.08,-828.12 275.04,-828.12 275.04,-828.12 343.71,-828.12 343.71,-828.12 346.67,-828.12 349.62,-831.08 349.62,-834.04 349.62,-834.04 349.62,-839.96 349.62,-839.96 349.62,-842.92 346.67,-845.88 343.71,-845.88"/>
<text text-anchor="start" x="277.12" y="-833.33" font-family="Helvetica,sans-Serif" font-size="9.00">app.controller.ts</text>
</a>
</g>
</g>
<!-- src/app.controller.spec.ts&#45;&gt;src/app.controller.ts -->
<g id="edge1" class="edge">
<title>src/app.controller.spec.ts&#45;&gt;src/app.controller.ts</title>
<path fill="none" stroke="#000000" stroke-width="2" stroke-opacity="0.200000" d="M219.04,-810.36C234.27,-814.91 252.73,-820.41 268.9,-825.23"/>
<polygon fill="#000000" fill-opacity="0.200000" stroke="#000000" stroke-width="2" stroke-opacity="0.200000" points="267.87,-827.12 274.22,-826.82 269.07,-823.09 267.87,-827.12"/>
</g>
<!-- src/app.service.ts -->
<g id="node19" class="node">
<title>src/app.service.ts</title>
<g id="a_node19"><a xlink:href="src/app.service.ts" xlink:title="app.service.ts">
<path fill="#ddfeff" stroke="black" d="M461.58,-814.88C461.58,-814.88 401.92,-814.88 401.92,-814.88 398.96,-814.88 396,-811.92 396,-808.96 396,-808.96 396,-803.04 396,-803.04 396,-800.08 398.96,-797.12 401.92,-797.12 401.92,-797.12 461.58,-797.12 461.58,-797.12 464.54,-797.12 467.5,-800.08 467.5,-803.04 467.5,-803.04 467.5,-808.96 467.5,-808.96 467.5,-811.92 464.54,-814.88 461.58,-814.88"/>
<text text-anchor="start" x="404" y="-802.33" font-family="Helvetica,sans-Serif" font-size="9.00">app.service.ts</text>
</a>
</g>
</g>
<!-- src/app.controller.spec.ts&#45;&gt;src/app.service.ts -->
<g id="edge2" class="edge">
<title>src/app.controller.spec.ts&#45;&gt;src/app.service.ts</title>
<path fill="none" stroke="#000000" stroke-width="2" stroke-opacity="0.200000" d="M238,-802.04C281.93,-802.94 345,-804.24 386.89,-805.1"/>
<polygon fill="#000000" fill-opacity="0.200000" stroke="#000000" stroke-width="2" stroke-opacity="0.200000" points="386.68,-807.19 392.73,-805.22 386.77,-802.99 386.68,-807.19"/>
</g>
<!-- src/app.controller.ts&#45;&gt;node_modules/@nestjs/common -->
<g id="edge5" class="edge">
<title>src/app.controller.ts&#45;&gt;node_modules/@nestjs/common</title>
<path fill="none" stroke="#000000" stroke-opacity="0.200000" d="M320.07,-827.98C332.83,-815.44 354.84,-791.41 365,-766 385.25,-715.38 366.98,-697.42 377.88,-644 414.46,-464.56 351.27,-358.9 498.5,-250 532.8,-224.63 559.17,-226.08 594.5,-250 602.43,-255.37 595.33,-263.66 602.5,-270 637.88,-301.26 673.65,-261.92 705.25,-297 720.9,-314.37 697.61,-331.61 713.25,-349 719.21,-355.63 727.73,-359.48 736.36,-361.68"/>
<polygon fill="#000000" fill-opacity="0.200000" stroke="#000000" stroke-opacity="0.200000" points="735.8,-363.7 742.09,-362.85 736.64,-359.59 735.8,-363.7"/>
</g>
<!-- src/app.controller.ts&#45;&gt;src/app.service.ts -->
<g id="edge4" class="edge">
<title>src/app.controller.ts&#45;&gt;src/app.service.ts</title>
<path fill="none" stroke="#000000" stroke-width="2" stroke-opacity="0.200000" d="M346.49,-827.7C359.33,-824.39 373.92,-820.64 387.31,-817.19"/>
<polygon fill="#000000" fill-opacity="0.200000" stroke="#000000" stroke-width="2" stroke-opacity="0.200000" points="387.68,-819.26 392.97,-815.73 386.63,-815.19 387.68,-819.26"/>
</g>
<!-- src/auth/auth.service.ts -->
<g id="node20" class="node">
<title>src/auth/auth.service.ts</title>
<g id="a_node20"><a xlink:href="src/auth/auth.service.ts" xlink:title="auth.service.ts">
<path fill="#ddfeff" stroke="black" d="M688.83,-878.88C688.83,-878.88 626.92,-878.88 626.92,-878.88 623.96,-878.88 621,-875.92 621,-872.96 621,-872.96 621,-867.04 621,-867.04 621,-864.08 623.96,-861.12 626.92,-861.12 626.92,-861.12 688.83,-861.12 688.83,-861.12 691.79,-861.12 694.75,-864.08 694.75,-867.04 694.75,-867.04 694.75,-872.96 694.75,-872.96 694.75,-875.92 691.79,-878.88 688.83,-878.88"/>
<text text-anchor="start" x="629" y="-866.33" font-family="Helvetica,sans-Serif" font-size="9.00">auth.service.ts</text>
</a>
</g>
</g>
<!-- src/app.controller.ts&#45;&gt;src/auth/auth.service.ts -->
<g id="edge6" class="edge">
<title>src/app.controller.ts&#45;&gt;src/auth/auth.service.ts</title>
<path fill="none" stroke="#000000" stroke-width="2" stroke-opacity="0.200000" d="M315.14,-846.34C324.48,-863.53 347.03,-899.81 377.88,-915 464.29,-957.57 503.93,-954.8 594.5,-922 614.41,-914.79 632.43,-898.14 643.92,-885.61"/>
<polygon fill="#000000" fill-opacity="0.200000" stroke="#000000" stroke-width="2" stroke-opacity="0.200000" points="645.21,-887.32 647.6,-881.43 642.06,-884.55 645.21,-887.32"/>
</g>
<!-- src/auth/jwt&#45;auth.guard.ts -->
<g id="node21" class="node">
<title>src/auth/jwt&#45;auth.guard.ts</title>
<g id="a_node21"><a xlink:href="src/auth/jwt-auth.guard.ts" xlink:title="jwt&#45;auth.guard.ts">
<path fill="#ddfeff" stroke="black" d="M467.58,-848.88C467.58,-848.88 395.92,-848.88 395.92,-848.88 392.96,-848.88 390,-845.92 390,-842.96 390,-842.96 390,-837.04 390,-837.04 390,-834.08 392.96,-831.12 395.92,-831.12 395.92,-831.12 467.58,-831.12 467.58,-831.12 470.54,-831.12 473.5,-834.08 473.5,-837.04 473.5,-837.04 473.5,-842.96 473.5,-842.96 473.5,-845.92 470.54,-848.88 467.58,-848.88"/>
<text text-anchor="start" x="398" y="-836.33" font-family="Helvetica,sans-Serif" font-size="9.00">jwt&#45;auth.guard.ts</text>
</a>
</g>
</g>
<!-- src/app.controller.ts&#45;&gt;src/auth/jwt&#45;auth.guard.ts -->
<g id="edge7" class="edge">
<title>src/app.controller.ts&#45;&gt;src/auth/jwt&#45;auth.guard.ts</title>
<path fill="none" stroke="#000000" stroke-width="2" stroke-opacity="0.200000" d="M350.12,-837.99C359.98,-838.24 370.66,-838.5 380.92,-838.76"/>
<polygon fill="#000000" fill-opacity="0.200000" stroke="#000000" stroke-width="2" stroke-opacity="0.200000" points="380.73,-840.85 386.78,-838.9 380.83,-836.66 380.73,-840.85"/>
</g>
<!-- src/auth/local&#45;auth.guard.ts -->
<g id="node22" class="node">
<title>src/auth/local&#45;auth.guard.ts</title>
<g id="a_node22"><a xlink:href="src/auth/local-auth.guard.ts" xlink:title="local&#45;auth.guard.ts">
<path fill="#ddfeff" stroke="black" d="M471.71,-878.88C471.71,-878.88 391.79,-878.88 391.79,-878.88 388.83,-878.88 385.88,-875.92 385.88,-872.96 385.88,-872.96 385.88,-867.04 385.88,-867.04 385.88,-864.08 388.83,-861.12 391.79,-861.12 391.79,-861.12 471.71,-861.12 471.71,-861.12 474.67,-861.12 477.62,-864.08 477.62,-867.04 477.62,-867.04 477.62,-872.96 477.62,-872.96 477.62,-875.92 474.67,-878.88 471.71,-878.88"/>
<text text-anchor="start" x="393.88" y="-866.33" font-family="Helvetica,sans-Serif" font-size="9.00">local&#45;auth.guard.ts</text>
</a>
</g>
</g>
<!-- src/app.controller.ts&#45;&gt;src/auth/local&#45;auth.guard.ts -->
<g id="edge8" class="edge">
<title>src/app.controller.ts&#45;&gt;src/auth/local&#45;auth.guard.ts</title>
<path fill="none" stroke="#000000" stroke-width="2" stroke-opacity="0.200000" d="M344.55,-846.37C358.13,-850.09 373.91,-854.42 388.22,-858.34"/>
<polygon fill="#000000" fill-opacity="0.200000" stroke="#000000" stroke-width="2" stroke-opacity="0.200000" points="387.65,-860.36 393.99,-859.92 388.76,-856.31 387.65,-860.36"/>
</g>
<!-- src/app.service.ts&#45;&gt;node_modules/@nestjs/common -->
<g id="edge18" class="edge">
<title>src/app.service.ts&#45;&gt;node_modules/@nestjs/common</title>
<path fill="none" stroke="#000000" stroke-opacity="0.200000" d="M467.91,-803.22C474.69,-801.04 481.06,-797.55 485.5,-792 508.17,-763.71 478.45,-496.2 498.5,-466 524.57,-426.74 564.68,-457.49 594.5,-421 604.05,-409.31 591.33,-398.15 602.5,-388 621.57,-370.67 693.19,-365.82 736.36,-364.48"/>
<polygon fill="#000000" fill-opacity="0.200000" stroke="#000000" stroke-opacity="0.200000" points="736.36,-366.59 742.3,-364.32 736.24,-362.39 736.36,-366.59"/>
</g>
<!-- src/auth/auth.service.ts&#45;&gt;node_modules/@nestjs/common -->
<g id="edge30" class="edge">
<title>src/auth/auth.service.ts&#45;&gt;node_modules/@nestjs/common</title>
<path fill="none" stroke="#000000" stroke-opacity="0.200000" d="M661.66,-860.86C670.13,-832.54 695.61,-743.67 705.25,-668 707.28,-652.07 703.28,-391.59 713.25,-379 718.94,-371.81 727.64,-367.83 736.53,-365.68"/>
<polygon fill="#000000" fill-opacity="0.200000" stroke="#000000" stroke-opacity="0.200000" points="736.66,-367.79 742.16,-364.6 735.87,-363.66 736.66,-367.79"/>
</g>
<!-- src/auth/auth.service.ts&#45;&gt;node_modules/@nestjs/jwt -->
<g id="edge31" class="edge">
<title>src/auth/auth.service.ts&#45;&gt;node_modules/@nestjs/jwt</title>
<path fill="none" stroke="#000000" stroke-opacity="0.200000" d="M668.54,-860.67C679.8,-849.08 697.81,-828.11 705.25,-806 711.75,-786.67 700.63,-455.02 713.25,-439 718.92,-431.8 727.61,-427.81 736.5,-425.66"/>
<polygon fill="#000000" fill-opacity="0.200000" stroke="#000000" stroke-opacity="0.200000" points="736.63,-427.77 742.14,-424.58 735.85,-423.64 736.63,-427.77"/>
</g>
<!-- src/user/user.service.ts -->
<g id="node32" class="node">
<title>src/user/user.service.ts</title>
<g id="a_node32"><a xlink:href="src/user/user.service.ts" xlink:title="user.service.ts">
<path fill="#ddfeff" stroke="black" d="M801.58,-1072.88C801.58,-1072.88 740.42,-1072.88 740.42,-1072.88 737.46,-1072.88 734.5,-1069.92 734.5,-1066.96 734.5,-1066.96 734.5,-1061.04 734.5,-1061.04 734.5,-1058.08 737.46,-1055.12 740.42,-1055.12 740.42,-1055.12 801.58,-1055.12 801.58,-1055.12 804.54,-1055.12 807.5,-1058.08 807.5,-1061.04 807.5,-1061.04 807.5,-1066.96 807.5,-1066.96 807.5,-1069.92 804.54,-1072.88 801.58,-1072.88"/>
<text text-anchor="start" x="742.5" y="-1060.33" font-family="Helvetica,sans-Serif" font-size="9.00">user.service.ts</text>
</a>
</g>
</g>
<!-- src/auth/auth.service.ts&#45;&gt;src/user/user.service.ts -->
<g id="edge29" class="edge">
<title>src/auth/auth.service.ts&#45;&gt;src/user/user.service.ts</title>
<path fill="none" stroke="#000000" stroke-width="2" stroke-opacity="0.200000" d="M664.23,-879.36C681.8,-910.02 737.8,-1007.79 760.4,-1047.25"/>
<polygon fill="#000000" fill-opacity="0.200000" stroke="#000000" stroke-width="2" stroke-opacity="0.200000" points="758.38,-1047.95 763.19,-1052.11 762.03,-1045.86 758.38,-1047.95"/>
</g>
<!-- src/auth/jwt&#45;auth.guard.ts&#45;&gt;node_modules/@nestjs/common -->
<g id="edge32" class="edge">
<title>src/auth/jwt&#45;auth.guard.ts&#45;&gt;node_modules/@nestjs/common</title>
<path fill="none" stroke="#000000" stroke-opacity="0.200000" d="M473.95,-835.63C478.38,-833.59 482.4,-830.8 485.5,-827 509.04,-798.13 477.1,-522.49 498.5,-492 524.95,-454.3 565.06,-488.41 594.5,-453 605.81,-439.39 590.33,-426.85 602.5,-414 634.96,-379.71 664.3,-410.51 705.25,-387 709.61,-384.5 708.89,-381.51 713.25,-379 720.35,-374.92 728.59,-371.92 736.55,-369.73"/>
<polygon fill="#000000" fill-opacity="0.200000" stroke="#000000" stroke-opacity="0.200000" points="736.96,-371.79 742.27,-368.3 735.94,-367.71 736.96,-371.79"/>
</g>
<!-- src/auth/jwt&#45;auth.guard.ts&#45;&gt;node_modules/@nestjs/passport -->
<g id="edge33" class="edge">
<title>src/auth/jwt&#45;auth.guard.ts&#45;&gt;node_modules/@nestjs/passport</title>
<path fill="none" stroke="#000000" stroke-opacity="0.200000" d="M473.91,-835.6C478.35,-833.57 482.38,-830.78 485.5,-827 503.7,-804.95 485.07,-595.24 498.5,-570 512.51,-543.67 686.41,-421.99 713.25,-409 720.48,-405.5 728.65,-402.73 736.48,-400.58"/>
<polygon fill="#000000" fill-opacity="0.200000" stroke="#000000" stroke-opacity="0.200000" points="736.78,-402.67 742.08,-399.14 735.74,-398.6 736.78,-402.67"/>
</g>
<!-- src/auth/local&#45;auth.guard.ts&#45;&gt;node_modules/@nestjs/common -->
<g id="edge38" class="edge">
<title>src/auth/local&#45;auth.guard.ts&#45;&gt;node_modules/@nestjs/common</title>
<path fill="none" stroke="#000000" stroke-opacity="0.200000" d="M477.96,-861.77C480.81,-859.92 483.38,-857.69 485.5,-855 506.92,-827.84 481.33,-574.02 498.5,-544 523.72,-499.91 566.12,-524.13 594.5,-482 605.12,-466.24 589.72,-454.06 602.5,-440 634.49,-404.79 672.14,-444.17 705.25,-410 715.15,-399.78 703.22,-389.09 713.25,-379 719.48,-372.73 728,-368.99 736.55,-366.78"/>
<polygon fill="#000000" fill-opacity="0.200000" stroke="#000000" stroke-opacity="0.200000" points="736.77,-368.88 742.2,-365.58 735.9,-364.77 736.77,-368.88"/>
</g>
<!-- src/auth/local&#45;auth.guard.ts&#45;&gt;node_modules/@nestjs/passport -->
<g id="edge39" class="edge">
<title>src/auth/local&#45;auth.guard.ts&#45;&gt;node_modules/@nestjs/passport</title>
<path fill="none" stroke="#000000" stroke-opacity="0.200000" d="M477.94,-861.75C480.79,-859.91 483.37,-857.68 485.5,-855 503.44,-832.45 483.53,-620.62 498.5,-596 524.17,-553.8 553.26,-567.18 594.5,-540 645.64,-506.3 673.36,-510.29 705.25,-458 716.74,-439.16 698.42,-425.34 713.25,-409 719.24,-402.4 727.77,-398.56 736.4,-396.36"/>
<polygon fill="#000000" fill-opacity="0.200000" stroke="#000000" stroke-opacity="0.200000" points="736.68,-398.45 742.13,-395.18 735.83,-394.33 736.68,-398.45"/>
</g>
<!-- src/app.module.ts -->
<g id="node23" class="node">
<title>src/app.module.ts</title>
<g id="a_node23"><a xlink:href="src/app.module.ts" xlink:title="app.module.ts">
<path fill="#ddfeff" stroke="black" d="M217.21,-842.88C217.21,-842.88 156.04,-842.88 156.04,-842.88 153.08,-842.88 150.12,-839.92 150.12,-836.96 150.12,-836.96 150.12,-831.04 150.12,-831.04 150.12,-828.08 153.08,-825.12 156.04,-825.12 156.04,-825.12 217.21,-825.12 217.21,-825.12 220.17,-825.12 223.12,-828.08 223.12,-831.04 223.12,-831.04 223.12,-836.96 223.12,-836.96 223.12,-839.92 220.17,-842.88 217.21,-842.88"/>
<text text-anchor="start" x="158.12" y="-830.33" font-family="Helvetica,sans-Serif" font-size="9.00">app.module.ts</text>
</a>
</g>
</g>
<!-- src/app.module.ts&#45;&gt;node_modules/@nestjs/common -->
<g id="edge13" class="edge">
<title>src/app.module.ts&#45;&gt;node_modules/@nestjs/common</title>
<path fill="none" stroke="#000000" stroke-opacity="0.200000" d="M223.48,-827.08C229.04,-824.48 234.12,-820.91 237.75,-816 249.12,-800.61 242.65,-662.88 245.75,-644 280.3,-433.68 209.27,-313.39 377.88,-183 454.04,-124.1 501.58,-154.75 594.5,-180 649.58,-194.97 675.01,-196.6 705.25,-245 717.53,-264.66 698.41,-331.19 713.25,-349 719.01,-355.91 727.54,-359.84 736.26,-362.02"/>
<polygon fill="#000000" fill-opacity="0.200000" stroke="#000000" stroke-opacity="0.200000" points="735.78,-364.07 742.07,-363.18 736.6,-359.95 735.78,-364.07"/>
</g>
<!-- src/app.module.ts&#45;&gt;node_modules/@nestjs/config -->
<g id="edge14" class="edge">
<title>src/app.module.ts&#45;&gt;node_modules/@nestjs/config</title>
<path fill="none" stroke="#000000" stroke-opacity="0.200000" d="M223.62,-827.18C229.16,-824.57 234.21,-820.97 237.75,-816 257.94,-787.68 228.14,-220 245.75,-190 326.46,-52.5 436.83,-82.34 594.5,-106 645.42,-113.64 673.27,-99.64 705.25,-140 721.71,-160.77 696.38,-238.55 713.25,-259 718.97,-265.94 727.5,-269.88 736.21,-272.06"/>
<polygon fill="#000000" fill-opacity="0.200000" stroke="#000000" stroke-opacity="0.200000" points="735.74,-274.1 742.03,-273.21 736.56,-269.98 735.74,-274.1"/>
</g>
<!-- src/app.module.ts&#45;&gt;src/app.controller.ts -->
<g id="edge9" class="edge">
<title>src/app.module.ts&#45;&gt;src/app.controller.ts</title>
<path fill="none" stroke="#000000" stroke-width="2" stroke-opacity="0.200000" d="M223.53,-834.89C235.05,-835.18 248.01,-835.5 260.26,-835.8"/>
<polygon fill="#000000" fill-opacity="0.200000" stroke="#000000" stroke-width="2" stroke-opacity="0.200000" points="259.95,-837.9 266,-835.95 260.05,-833.7 259.95,-837.9"/>
</g>
<!-- src/app.module.ts&#45;&gt;src/app.service.ts -->
<g id="edge10" class="edge">
<title>src/app.module.ts&#45;&gt;src/app.service.ts</title>
<path fill="none" stroke="#000000" stroke-width="2" stroke-opacity="0.200000" d="M223.48,-825.91C230.82,-824.45 238.51,-823.06 245.75,-822 293.89,-814.97 349.56,-810.67 387.15,-808.32"/>
<polygon fill="#000000" fill-opacity="0.200000" stroke="#000000" stroke-width="2" stroke-opacity="0.200000" points="386.95,-810.44 392.81,-807.98 386.69,-806.25 386.95,-810.44"/>
</g>
<!-- src/auth/auth.module.ts -->
<g id="node24" class="node">
<title>src/auth/auth.module.ts</title>
<g id="a_node24"><a xlink:href="src/auth/auth.module.ts" xlink:title="auth.module.ts">
<path fill="#ddfeff" stroke="black" d="M463.46,-908.88C463.46,-908.88 400.04,-908.88 400.04,-908.88 397.08,-908.88 394.12,-905.92 394.12,-902.96 394.12,-902.96 394.12,-897.04 394.12,-897.04 394.12,-894.08 397.08,-891.12 400.04,-891.12 400.04,-891.12 463.46,-891.12 463.46,-891.12 466.42,-891.12 469.38,-894.08 469.38,-897.04 469.38,-897.04 469.38,-902.96 469.38,-902.96 469.38,-905.92 466.42,-908.88 463.46,-908.88"/>
<text text-anchor="start" x="402.12" y="-896.33" font-family="Helvetica,sans-Serif" font-size="9.00">auth.module.ts</text>
</a>
</g>
</g>
<!-- src/app.module.ts&#45;&gt;src/auth/auth.module.ts -->
<g id="edge11" class="edge">
<title>src/app.module.ts&#45;&gt;src/auth/auth.module.ts</title>
<path fill="none" stroke="#000000" stroke-width="2" stroke-opacity="0.200000" d="M216.82,-843.33C226.05,-846.2 236.3,-849.31 245.75,-852 293.03,-865.45 347.53,-879.4 385.07,-888.78"/>
<polygon fill="#000000" fill-opacity="0.200000" stroke="#000000" stroke-width="2" stroke-opacity="0.200000" points="384.49,-890.8 390.82,-890.21 385.51,-886.72 384.49,-890.8"/>
</g>
<!-- src/user/user.module.ts -->
<g id="node25" class="node">
<title>src/user/user.module.ts</title>
<g id="a_node25"><a xlink:href="src/user/user.module.ts" xlink:title="user.module.ts">
<path fill="#ddfeff" stroke="black" d="M689.21,-1102.88C689.21,-1102.88 626.54,-1102.88 626.54,-1102.88 623.58,-1102.88 620.62,-1099.92 620.62,-1096.96 620.62,-1096.96 620.62,-1091.04 620.62,-1091.04 620.62,-1088.08 623.58,-1085.12 626.54,-1085.12 626.54,-1085.12 689.21,-1085.12 689.21,-1085.12 692.17,-1085.12 695.12,-1088.08 695.12,-1091.04 695.12,-1091.04 695.12,-1096.96 695.12,-1096.96 695.12,-1099.92 692.17,-1102.88 689.21,-1102.88"/>
<text text-anchor="start" x="628.62" y="-1090.33" font-family="Helvetica,sans-Serif" font-size="9.00">user.module.ts</text>
</a>
</g>
</g>
<!-- src/app.module.ts&#45;&gt;src/user/user.module.ts -->
<g id="edge12" class="edge">
<title>src/app.module.ts&#45;&gt;src/user/user.module.ts</title>
<path fill="none" stroke="#000000" stroke-width="2" stroke-opacity="0.200000" d="M189.75,-843.27C195.21,-865.02 211.74,-919.77 245.75,-950 353.63,-1045.89 529.15,-1078.84 611.5,-1089.4"/>
<polygon fill="#000000" fill-opacity="0.200000" stroke="#000000" stroke-width="2" stroke-opacity="0.200000" points="611.15,-1091.47 617.36,-1090.12 611.66,-1087.3 611.15,-1091.47"/>
</g>
<!-- src/config/configuration.ts -->
<g id="node26" class="node">
<title>src/config/configuration.ts</title>
<g id="a_node26"><a xlink:href="src/config/configuration.ts" xlink:title="configuration.ts">
<path fill="#ddfeff" stroke="black" d="M691.08,-982.88C691.08,-982.88 624.67,-982.88 624.67,-982.88 621.71,-982.88 618.75,-979.92 618.75,-976.96 618.75,-976.96 618.75,-971.04 618.75,-971.04 618.75,-968.08 621.71,-965.12 624.67,-965.12 624.67,-965.12 691.08,-965.12 691.08,-965.12 694.04,-965.12 697,-968.08 697,-971.04 697,-971.04 697,-976.96 697,-976.96 697,-979.92 694.04,-982.88 691.08,-982.88"/>
<text text-anchor="start" x="626.75" y="-970.33" font-family="Helvetica,sans-Serif" font-size="9.00">configuration.ts</text>
</a>
</g>
</g>
<!-- src/app.module.ts&#45;&gt;src/config/configuration.ts -->
<g id="edge15" class="edge">
<title>src/app.module.ts&#45;&gt;src/config/configuration.ts</title>
<path fill="none" stroke="#000000" stroke-width="2" stroke-opacity="0.200000" d="M198.25,-843.25C225.69,-866.52 302.1,-927.37 377.88,-952 456.17,-977.45 553.04,-978.85 609.6,-976.89"/>
<polygon fill="#000000" fill-opacity="0.200000" stroke="#000000" stroke-width="2" stroke-opacity="0.200000" points="609.39,-979 615.3,-976.66 609.22,-974.8 609.39,-979"/>
</g>
<!-- src/config/validation.ts -->
<g id="node27" class="node">
<title>src/config/validation.ts</title>
<g id="a_node27"><a xlink:href="src/config/validation.ts" xlink:title="validation.ts">
<path fill="#ddfeff" stroke="black" d="M684.33,-1012.88C684.33,-1012.88 631.42,-1012.88 631.42,-1012.88 628.46,-1012.88 625.5,-1009.92 625.5,-1006.96 625.5,-1006.96 625.5,-1001.04 625.5,-1001.04 625.5,-998.08 628.46,-995.12 631.42,-995.12 631.42,-995.12 684.33,-995.12 684.33,-995.12 687.29,-995.12 690.25,-998.08 690.25,-1001.04 690.25,-1001.04 690.25,-1006.96 690.25,-1006.96 690.25,-1009.92 687.29,-1012.88 684.33,-1012.88"/>
<text text-anchor="start" x="633.5" y="-1000.33" font-family="Helvetica,sans-Serif" font-size="9.00">validation.ts</text>
</a>
</g>
</g>
<!-- src/app.module.ts&#45;&gt;src/config/validation.ts -->
<g id="edge16" class="edge">
<title>src/app.module.ts&#45;&gt;src/config/validation.ts</title>
<path fill="none" stroke="#000000" stroke-width="2" stroke-opacity="0.200000" d="M191.82,-843.36C199.89,-860.37 219.15,-896.47 245.75,-917 357.93,-1003.62 536.6,-1008.87 616.25,-1006.37"/>
<polygon fill="#000000" fill-opacity="0.200000" stroke="#000000" stroke-width="2" stroke-opacity="0.200000" points="616.06,-1008.48 621.98,-1006.16 615.91,-1004.28 616.06,-1008.48"/>
</g>
<!-- src/image/image.module.ts -->
<g id="node28" class="node">
<title>src/image/image.module.ts</title>
<g id="a_node28"><a xlink:href="src/image/image.module.ts" xlink:title="image.module.ts">
<path fill="#ddfeff" stroke="black" d="M344.46,-672.88C344.46,-672.88 274.29,-672.88 274.29,-672.88 271.33,-672.88 268.38,-669.92 268.38,-666.96 268.38,-666.96 268.38,-661.04 268.38,-661.04 268.38,-658.08 271.33,-655.12 274.29,-655.12 274.29,-655.12 344.46,-655.12 344.46,-655.12 347.42,-655.12 350.38,-658.08 350.38,-661.04 350.38,-661.04 350.38,-666.96 350.38,-666.96 350.38,-669.92 347.42,-672.88 344.46,-672.88"/>
<text text-anchor="start" x="276.38" y="-660.33" font-family="Helvetica,sans-Serif" font-size="9.00">image.module.ts</text>
</a>
</g>
</g>
<!-- src/app.module.ts&#45;&gt;src/image/image.module.ts -->
<g id="edge17" class="edge">
<title>src/app.module.ts&#45;&gt;src/image/image.module.ts</title>
<path fill="none" stroke="#000000" stroke-width="2" stroke-opacity="0.200000" d="M223.43,-827.05C228.99,-824.45 234.09,-820.89 237.75,-816 256.02,-791.58 226.17,-702.38 245.75,-679 249.56,-674.45 254.48,-671.14 259.89,-668.76"/>
<polygon fill="#000000" fill-opacity="0.200000" stroke="#000000" stroke-width="2" stroke-opacity="0.200000" points="260.27,-670.85 265.23,-666.88 258.88,-666.89 260.27,-670.85"/>
</g>
<!-- src/auth/auth.module.ts&#45;&gt;node_modules/@nestjs/common -->
<g id="edge22" class="edge">
<title>src/auth/auth.module.ts&#45;&gt;node_modules/@nestjs/common</title>
<path fill="none" stroke="#000000" stroke-opacity="0.200000" d="M469.82,-895.84C475.89,-893.52 481.49,-890.08 485.5,-885 506.85,-857.93 480.24,-604.24 498.5,-575 524.2,-533.84 567.05,-563.01 594.5,-523 610.22,-500.09 584.06,-481.78 602.5,-461 633.76,-425.76 673.75,-470.03 705.25,-435 722.06,-416.31 696.54,-397.78 713.25,-379 719.18,-372.34 727.68,-368.48 736.31,-366.28"/>
<polygon fill="#000000" fill-opacity="0.200000" stroke="#000000" stroke-opacity="0.200000" points="736.59,-368.37 742.05,-365.11 735.75,-364.25 736.59,-368.37"/>
</g>
<!-- src/auth/auth.module.ts&#45;&gt;node_modules/@nestjs/jwt -->
<g id="edge23" class="edge">
<title>src/auth/auth.module.ts&#45;&gt;node_modules/@nestjs/jwt</title>
<path fill="none" stroke="#000000" stroke-opacity="0.200000" d="M469.78,-895.8C475.84,-893.49 481.46,-890.06 485.5,-885 518.97,-843.09 462.14,-683.42 498.5,-644 561.37,-575.84 642.68,-684.43 705.25,-616 718.53,-601.47 700.89,-454.32 713.25,-439 718.95,-431.94 727.55,-427.97 736.35,-425.8"/>
<polygon fill="#000000" fill-opacity="0.200000" stroke="#000000" stroke-opacity="0.200000" points="736.74,-427.87 742.23,-424.67 735.95,-423.74 736.74,-427.87"/>
</g>
<!-- src/auth/auth.module.ts&#45;&gt;node_modules/@nestjs/passport -->
<g id="edge24" class="edge">
<title>src/auth/auth.module.ts&#45;&gt;node_modules/@nestjs/passport</title>
<path fill="none" stroke="#000000" stroke-opacity="0.200000" d="M469.8,-895.82C475.86,-893.51 481.47,-890.07 485.5,-885 522.58,-838.31 464.02,-665.64 498.5,-617 525.13,-579.43 553.68,-599.31 594.5,-578 646.54,-550.83 675.15,-556.41 705.25,-506 716.34,-487.43 699.36,-425.58 713.25,-409 719.03,-402.1 727.57,-398.18 736.28,-396"/>
<polygon fill="#000000" fill-opacity="0.200000" stroke="#000000" stroke-opacity="0.200000" points="736.62,-398.07 742.1,-394.84 735.8,-393.95 736.62,-398.07"/>
</g>
<!-- src/auth/auth.module.ts&#45;&gt;src/auth/auth.service.ts -->
<g id="edge19" class="edge">
<title>src/auth/auth.module.ts&#45;&gt;src/auth/auth.service.ts</title>
<path fill="none" stroke="#000000" stroke-width="2" stroke-opacity="0.200000" d="M469.76,-909.19C481.38,-911.91 492.68,-914.34 498.5,-915 540.9,-919.78 553.9,-928.12 594.5,-915 612.6,-909.15 629.87,-895.88 641.63,-885.26"/>
<polygon fill="#000000" fill-opacity="0.200000" stroke="#000000" stroke-width="2" stroke-opacity="0.200000" points="643.06,-886.79 645.99,-881.15 640.18,-883.73 643.06,-886.79"/>
</g>
<!-- src/auth/auth.module.ts&#45;&gt;src/user/user.module.ts -->
<g id="edge26" class="edge">
<title>src/auth/auth.module.ts&#45;&gt;src/user/user.module.ts</title>
<path fill="none" stroke="#000000" stroke-width="2" stroke-opacity="0.200000" d="M469.75,-904.48C475.46,-906.43 480.96,-909.16 485.5,-913 496.6,-922.38 490.74,-930.71 498.5,-943 533.15,-997.87 562.93,-996.31 594.5,-1053 600.38,-1063.56 593.83,-1070.58 602.5,-1079 605.34,-1081.76 608.65,-1084.02 612.19,-1085.88"/>
<polygon fill="#000000" fill-opacity="0.200000" stroke="#000000" stroke-width="2" stroke-opacity="0.200000" points="611.13,-1087.71 617.48,-1088.13 612.78,-1083.84 611.13,-1087.71"/>
</g>
<!-- src/auth/auth.module.ts&#45;&gt;src/config/configuration.ts -->
<g id="edge25" class="edge">
<title>src/auth/auth.module.ts&#45;&gt;src/config/configuration.ts</title>
<path fill="none" stroke="#000000" stroke-width="2" stroke-opacity="0.200000" d="M469.65,-907.27C475.08,-908.85 480.51,-910.75 485.5,-913 491.91,-915.89 492.21,-918.87 498.5,-922 534.42,-939.86 577.87,-953.62 610.17,-962.49"/>
<polygon fill="#000000" fill-opacity="0.200000" stroke="#000000" stroke-width="2" stroke-opacity="0.200000" points="609.29,-964.43 615.63,-963.96 610.38,-960.37 609.29,-964.43"/>
</g>
<!-- src/auth/jwt.strategy.ts -->
<g id="node29" class="node">
<title>src/auth/jwt.strategy.ts</title>
<g id="a_node29"><a xlink:href="src/auth/jwt.strategy.ts" xlink:title="jwt.strategy.ts">
<path fill="#ddfeff" stroke="black" d="M575.33,-908.88C575.33,-908.88 517.17,-908.88 517.17,-908.88 514.21,-908.88 511.25,-905.92 511.25,-902.96 511.25,-902.96 511.25,-897.04 511.25,-897.04 511.25,-894.08 514.21,-891.12 517.17,-891.12 517.17,-891.12 575.33,-891.12 575.33,-891.12 578.29,-891.12 581.25,-894.08 581.25,-897.04 581.25,-897.04 581.25,-902.96 581.25,-902.96 581.25,-905.92 578.29,-908.88 575.33,-908.88"/>
<text text-anchor="start" x="519.25" y="-896.33" font-family="Helvetica,sans-Serif" font-size="9.00">jwt.strategy.ts</text>
</a>
</g>
</g>
<!-- src/auth/auth.module.ts&#45;&gt;src/auth/jwt.strategy.ts -->
<g id="edge20" class="edge">
<title>src/auth/auth.module.ts&#45;&gt;src/auth/jwt.strategy.ts</title>
<path fill="none" stroke="#000000" stroke-width="2" stroke-opacity="0.200000" d="M469.59,-900C480,-900 491.42,-900 502.17,-900"/>
<polygon fill="#000000" fill-opacity="0.200000" stroke="#000000" stroke-width="2" stroke-opacity="0.200000" points="501.97,-902.1 507.97,-900 501.97,-897.9 501.97,-902.1"/>
</g>
<!-- src/auth/local.strategy.ts -->
<g id="node30" class="node">
<title>src/auth/local.strategy.ts</title>
<g id="a_node30"><a xlink:href="src/auth/local.strategy.ts" xlink:title="local.strategy.ts">
<path fill="#ddfeff" stroke="black" d="M579.08,-878.88C579.08,-878.88 513.42,-878.88 513.42,-878.88 510.46,-878.88 507.5,-875.92 507.5,-872.96 507.5,-872.96 507.5,-867.04 507.5,-867.04 507.5,-864.08 510.46,-861.12 513.42,-861.12 513.42,-861.12 579.08,-861.12 579.08,-861.12 582.04,-861.12 585,-864.08 585,-867.04 585,-867.04 585,-872.96 585,-872.96 585,-875.92 582.04,-878.88 579.08,-878.88"/>
<text text-anchor="start" x="515.5" y="-866.33" font-family="Helvetica,sans-Serif" font-size="9.00">local.strategy.ts</text>
</a>
</g>
</g>
<!-- src/auth/auth.module.ts&#45;&gt;src/auth/local.strategy.ts -->
<g id="edge21" class="edge">
<title>src/auth/auth.module.ts&#45;&gt;src/auth/local.strategy.ts</title>
<path fill="none" stroke="#000000" stroke-width="2" stroke-opacity="0.200000" d="M467.73,-890.67C478.52,-887.79 490.54,-884.59 501.83,-881.58"/>
<polygon fill="#000000" fill-opacity="0.200000" stroke="#000000" stroke-width="2" stroke-opacity="0.200000" points="502.11,-883.68 507.37,-880.1 501.03,-879.62 502.11,-883.68"/>
</g>
<!-- src/user/user.module.ts&#45;&gt;node_modules/@nestjs/common -->
<g id="edge73" class="edge">
<title>src/user/user.module.ts&#45;&gt;node_modules/@nestjs/common</title>
<path fill="none" stroke="#000000" stroke-opacity="0.200000" d="M695.32,-1087.36C699.18,-1085.27 702.64,-1082.54 705.25,-1079 716.78,-1063.34 701.3,-394.34 713.25,-379 718.88,-371.77 727.57,-367.77 736.46,-365.62"/>
<polygon fill="#000000" fill-opacity="0.200000" stroke="#000000" stroke-opacity="0.200000" points="736.59,-367.73 742.09,-364.55 735.81,-363.61 736.59,-367.73"/>
</g>
<!-- src/user/user.module.ts&#45;&gt;src/user/user.service.ts -->
<g id="edge72" class="edge">
<title>src/user/user.module.ts&#45;&gt;src/user/user.service.ts</title>
<path fill="none" stroke="#000000" stroke-width="2" stroke-opacity="0.200000" d="M693.43,-1084.67C703.98,-1081.82 715.73,-1078.65 726.79,-1075.67"/>
<polygon fill="#000000" fill-opacity="0.200000" stroke="#000000" stroke-width="2" stroke-opacity="0.200000" points="727.3,-1077.7 732.55,-1074.11 726.21,-1073.65 727.3,-1077.7"/>
</g>
<!-- src/config/configuration.ts&#45;&gt;node_modules/dotenv -->
<g id="edge44" class="edge">
<title>src/config/configuration.ts&#45;&gt;node_modules/dotenv</title>
<path fill="none" stroke="#000000" stroke-opacity="0.200000" d="M690.43,-964.84C696.28,-961.71 701.67,-957.53 705.25,-952 716.46,-934.7 700.5,-597.2 713.25,-581 718.92,-573.8 727.61,-569.8 736.5,-567.66"/>
<polygon fill="#000000" fill-opacity="0.200000" stroke="#000000" stroke-opacity="0.200000" points="736.63,-569.77 742.14,-566.58 735.85,-565.64 736.63,-569.77"/>
</g>
<!-- src/config/validation.ts&#45;&gt;node_modules/joi -->
<g id="edge45" class="edge">
<title>src/config/validation.ts&#45;&gt;node_modules/joi</title>
<path fill="none" stroke="#000000" stroke-opacity="0.200000" d="M690.63,-998.86C696.17,-996.65 701.39,-993.49 705.25,-989 755.2,-930.96 767.19,-679.15 769.51,-612.33"/>
<polygon fill="#000000" fill-opacity="0.200000" stroke="#000000" stroke-opacity="0.200000" points="771.6,-612.7 769.7,-606.64 767.4,-612.56 771.6,-612.7"/>
</g>
<!-- src/image/image.module.ts&#45;&gt;node_modules/@nestjs/common -->
<g id="edge61" class="edge">
<title>src/image/image.module.ts&#45;&gt;node_modules/@nestjs/common</title>
<path fill="none" stroke="#000000" stroke-opacity="0.200000" d="M310.42,-654.84C310.91,-597.6 316.42,-289.27 377.88,-224 411.11,-188.7 557.4,-166.79 594.5,-198 610.38,-211.36 588.81,-228.41 602.5,-244 634.06,-279.94 674.84,-239.08 705.25,-276 726,-301.19 691.96,-324.26 713.25,-349 719.12,-355.82 727.69,-359.72 736.4,-361.9"/>
<polygon fill="#000000" fill-opacity="0.200000" stroke="#000000" stroke-opacity="0.200000" points="735.91,-363.94 742.21,-363.06 736.74,-359.83 735.91,-363.94"/>
</g>
<!-- src/image/image.module.ts&#45;&gt;node_modules/@nestjs/platform&#45;express -->
<g id="edge62" class="edge">
<title>src/image/image.module.ts&#45;&gt;node_modules/@nestjs/platform&#45;express</title>
<path fill="none" stroke="#000000" stroke-opacity="0.200000" d="M310.23,-654.73C309.48,-593.94 308.43,-252.49 377.88,-183 480.85,-79.96 613.09,-86.18 705.25,-199 717.95,-214.55 700.31,-273.65 713.25,-289 715.77,-291.99 718.81,-294.42 722.16,-296.39"/>
<polygon fill="#000000" fill-opacity="0.200000" stroke="#000000" stroke-opacity="0.200000" points="721.24,-298.28 727.56,-298.99 723.07,-294.5 721.24,-298.28"/>
</g>
<!-- src/image/MulterConfigService.ts -->
<g id="node33" class="node">
<title>src/image/MulterConfigService.ts</title>
<g id="a_node33"><a xlink:href="src/image/MulterConfigService.ts" xlink:title="MulterConfigService.ts">
<path fill="#ddfeff" stroke="black" d="M479.58,-672.88C479.58,-672.88 383.92,-672.88 383.92,-672.88 380.96,-672.88 378,-669.92 378,-666.96 378,-666.96 378,-661.04 378,-661.04 378,-658.08 380.96,-655.12 383.92,-655.12 383.92,-655.12 479.58,-655.12 479.58,-655.12 482.54,-655.12 485.5,-658.08 485.5,-661.04 485.5,-661.04 485.5,-666.96 485.5,-666.96 485.5,-669.92 482.54,-672.88 479.58,-672.88"/>
<text text-anchor="start" x="386" y="-660.33" font-family="Helvetica,sans-Serif" font-size="9.00">MulterConfigService.ts</text>
</a>
</g>
</g>
<!-- src/image/image.module.ts&#45;&gt;src/image/MulterConfigService.ts -->
<g id="edge60" class="edge">
<title>src/image/image.module.ts&#45;&gt;src/image/MulterConfigService.ts</title>
<path fill="none" stroke="#000000" stroke-width="2" stroke-opacity="0.200000" d="M350.79,-664C356.58,-664 362.63,-664 368.71,-664"/>
<polygon fill="#000000" fill-opacity="0.200000" stroke="#000000" stroke-width="2" stroke-opacity="0.200000" points="368.58,-666.1 374.58,-664 368.58,-661.9 368.58,-666.1"/>
</g>
<!-- src/image/image.controller.ts -->
<g id="node36" class="node">
<title>src/image/image.controller.ts</title>
<g id="a_node36"><a xlink:href="src/image/image.controller.ts" xlink:title="image.controller.ts">
<path fill="#ddfeff" stroke="black" d="M470.58,-702.88C470.58,-702.88 392.92,-702.88 392.92,-702.88 389.96,-702.88 387,-699.92 387,-696.96 387,-696.96 387,-691.04 387,-691.04 387,-688.08 389.96,-685.12 392.92,-685.12 392.92,-685.12 470.58,-685.12 470.58,-685.12 473.54,-685.12 476.5,-688.08 476.5,-691.04 476.5,-691.04 476.5,-696.96 476.5,-696.96 476.5,-699.92 473.54,-702.88 470.58,-702.88"/>
<text text-anchor="start" x="395" y="-690.33" font-family="Helvetica,sans-Serif" font-size="9.00">image.controller.ts</text>
</a>
</g>
</g>
<!-- src/image/image.module.ts&#45;&gt;src/image/image.controller.ts -->
<g id="edge58" class="edge">
<title>src/image/image.module.ts&#45;&gt;src/image/image.controller.ts</title>
<path fill="none" stroke="#000000" stroke-width="2" stroke-opacity="0.200000" d="M347.8,-673.33C359.47,-676.23 372.47,-679.47 384.65,-682.51"/>
<polygon fill="#000000" fill-opacity="0.200000" stroke="#000000" stroke-width="2" stroke-opacity="0.200000" points="384.08,-684.53 390.41,-683.95 385.09,-680.46 384.08,-684.53"/>
</g>
<!-- src/image/image.service.ts -->
<g id="node37" class="node">
<title>src/image/image.service.ts</title>
<g id="a_node37"><a xlink:href="src/image/image.service.ts" xlink:title="image.service.ts">
<path fill="#ddfeff" stroke="black" d="M580.58,-732.88C580.58,-732.88 511.92,-732.88 511.92,-732.88 508.96,-732.88 506,-729.92 506,-726.96 506,-726.96 506,-721.04 506,-721.04 506,-718.08 508.96,-715.12 511.92,-715.12 511.92,-715.12 580.58,-715.12 580.58,-715.12 583.54,-715.12 586.5,-718.08 586.5,-721.04 586.5,-721.04 586.5,-726.96 586.5,-726.96 586.5,-729.92 583.54,-732.88 580.58,-732.88"/>
<text text-anchor="start" x="514" y="-720.33" font-family="Helvetica,sans-Serif" font-size="9.00">image.service.ts</text>
</a>
</g>
</g>
<!-- src/image/image.module.ts&#45;&gt;src/image/image.service.ts -->
<g id="edge59" class="edge">
<title>src/image/image.module.ts&#45;&gt;src/image/image.service.ts</title>
<path fill="none" stroke="#000000" stroke-width="2" stroke-opacity="0.200000" d="M350.83,-669.6C356.14,-671.82 361.08,-674.85 365,-679 383.73,-698.82 356.66,-721.86 377.88,-739 396.48,-754.03 461.76,-741.93 485.5,-739 492.14,-738.18 499.11,-736.86 505.84,-735.34"/>
<polygon fill="#000000" fill-opacity="0.200000" stroke="#000000" stroke-width="2" stroke-opacity="0.200000" points="505.92,-737.48 511.26,-734.04 504.94,-733.4 505.92,-737.48"/>
</g>
<!-- src/auth/jwt.strategy.ts&#45;&gt;node_modules/@nestjs/common -->
<g id="edge34" class="edge">
<title>src/auth/jwt.strategy.ts&#45;&gt;node_modules/@nestjs/common</title>
<path fill="none" stroke="#000000" stroke-opacity="0.200000" d="M581.49,-894.74C586.55,-892.51 591.17,-889.38 594.5,-885 609.04,-865.88 594.2,-691.54 602.5,-669 627.96,-599.89 679.35,-607.94 705.25,-539 711.51,-522.34 702.04,-392.83 713.25,-379 718.97,-371.95 727.57,-367.99 736.37,-365.82"/>
<polygon fill="#000000" fill-opacity="0.200000" stroke="#000000" stroke-opacity="0.200000" points="736.76,-367.88 742.25,-364.68 735.97,-363.76 736.76,-367.88"/>
</g>
<!-- src/auth/jwt.strategy.ts&#45;&gt;node_modules/@nestjs/passport -->
<g id="edge35" class="edge">
<title>src/auth/jwt.strategy.ts&#45;&gt;node_modules/@nestjs/passport</title>
<path fill="none" stroke="#000000" stroke-opacity="0.200000" d="M581.73,-894.35C586.63,-892.15 591.13,-889.14 594.5,-885 605.49,-871.48 596.21,-823.25 602.5,-807 630.24,-735.36 680.09,-740.59 705.25,-668 714.68,-640.8 695.33,-431.54 713.25,-409 718.95,-401.82 727.66,-397.84 736.55,-395.69"/>
<polygon fill="#000000" fill-opacity="0.200000" stroke="#000000" stroke-opacity="0.200000" points="736.67,-397.8 742.17,-394.61 735.89,-393.68 736.67,-397.8"/>
</g>
<!-- src/auth/jwt.strategy.ts&#45;&gt;node_modules/passport&#45;jwt -->
<g id="edge37" class="edge">
<title>src/auth/jwt.strategy.ts&#45;&gt;node_modules/passport&#45;jwt</title>
<path fill="none" stroke="#000000" stroke-opacity="0.200000" d="M581.66,-893.66C586.45,-891.54 590.93,-888.74 594.5,-885 604.03,-875.02 593.68,-865.61 602.5,-855 634.83,-816.08 677.58,-848.36 705.25,-806 720.75,-782.27 695.61,-573.19 713.25,-551 717.77,-545.32 724.17,-541.64 731.05,-539.28"/>
<polygon fill="#000000" fill-opacity="0.200000" stroke="#000000" stroke-opacity="0.200000" points="731.36,-541.37 736.59,-537.75 730.24,-537.33 731.36,-541.37"/>
</g>
<!-- src/auth/jwt.strategy.ts&#45;&gt;src/config/configuration.ts -->
<g id="edge36" class="edge">
<title>src/auth/jwt.strategy.ts&#45;&gt;src/config/configuration.ts</title>
<path fill="none" stroke="#000000" stroke-width="2" stroke-opacity="0.200000" d="M555.03,-909.17C565.04,-920.51 583.42,-939.78 602.5,-952 607.92,-955.47 613.99,-958.58 620.04,-961.27"/>
<polygon fill="#000000" fill-opacity="0.200000" stroke="#000000" stroke-width="2" stroke-opacity="0.200000" points="619.1,-963.15 625.44,-963.54 620.72,-959.28 619.1,-963.15"/>
</g>
<!-- src/auth/local.strategy.ts&#45;&gt;node_modules/@nestjs/common -->
<g id="edge41" class="edge">
<title>src/auth/local.strategy.ts&#45;&gt;node_modules/@nestjs/common</title>
<path fill="none" stroke="#000000" stroke-opacity="0.200000" d="M585.2,-862.91C588.79,-860.88 592.01,-858.29 594.5,-855 610.74,-833.55 594.75,-638.76 602.5,-613 627.61,-529.55 676.58,-528.3 705.25,-446 710.18,-431.84 703.41,-390.32 713.25,-379 719.15,-372.21 727.73,-368.32 736.44,-366.14"/>
<polygon fill="#000000" fill-opacity="0.200000" stroke="#000000" stroke-opacity="0.200000" points="736.78,-368.21 742.25,-364.97 735.95,-364.09 736.78,-368.21"/>
</g>
<!-- src/auth/local.strategy.ts&#45;&gt;node_modules/@nestjs/passport -->
<g id="edge42" class="edge">
<title>src/auth/local.strategy.ts&#45;&gt;node_modules/@nestjs/passport</title>
<path fill="none" stroke="#000000" stroke-opacity="0.200000" d="M585.15,-862.87C588.74,-860.85 591.98,-858.27 594.5,-855 605.63,-840.54 593.84,-707.06 602.5,-691 629.33,-641.23 678.67,-665.9 705.25,-616 716.07,-595.69 698.86,-426.96 713.25,-409 718.93,-401.92 727.52,-397.95 736.32,-395.78"/>
<polygon fill="#000000" fill-opacity="0.200000" stroke="#000000" stroke-opacity="0.200000" points="736.71,-397.84 742.21,-394.64 735.92,-393.72 736.71,-397.84"/>
</g>
<!-- src/auth/local.strategy.ts&#45;&gt;node_modules/passport&#45;local -->
<g id="edge43" class="edge">
<title>src/auth/local.strategy.ts&#45;&gt;node_modules/passport&#45;local</title>
<path fill="none" stroke="#000000" stroke-opacity="0.200000" d="M585.27,-862.35C588.75,-860.42 591.93,-858.01 594.5,-855 609.71,-837.24 592.24,-824.01 602.5,-803 631.71,-743.18 679.26,-755.29 705.25,-694 712.76,-676.28 701.16,-535.97 713.25,-521 716.85,-516.54 721.61,-513.32 726.84,-511"/>
<polygon fill="#000000" fill-opacity="0.200000" stroke="#000000" stroke-opacity="0.200000" points="727.32,-513.06 732.25,-509.04 725.9,-509.11 727.32,-513.06"/>
</g>
<!-- src/auth/local.strategy.ts&#45;&gt;src/auth/auth.service.ts -->
<g id="edge40" class="edge">
<title>src/auth/local.strategy.ts&#45;&gt;src/auth/auth.service.ts</title>
<path fill="none" stroke="#000000" stroke-width="2" stroke-opacity="0.200000" d="M585.28,-870C593.82,-870 602.96,-870 611.75,-870"/>
<polygon fill="#000000" fill-opacity="0.200000" stroke="#000000" stroke-width="2" stroke-opacity="0.200000" points="611.73,-872.1 617.73,-870 611.73,-867.9 611.73,-872.1"/>
</g>
<!-- src/auth/auth.service.spec.ts -->
<g id="node31" class="node">
<title>src/auth/auth.service.spec.ts</title>
<g id="a_node31"><a xlink:href="src/auth/auth.service.spec.ts" xlink:title="auth.service.spec.ts">
<path fill="#ddfeff" stroke="black" d="M588.08,-848.88C588.08,-848.88 504.42,-848.88 504.42,-848.88 501.46,-848.88 498.5,-845.92 498.5,-842.96 498.5,-842.96 498.5,-837.04 498.5,-837.04 498.5,-834.08 501.46,-831.12 504.42,-831.12 504.42,-831.12 588.08,-831.12 588.08,-831.12 591.04,-831.12 594,-834.08 594,-837.04 594,-837.04 594,-842.96 594,-842.96 594,-845.92 591.04,-848.88 588.08,-848.88"/>
<text text-anchor="start" x="506.5" y="-836.33" font-family="Helvetica,sans-Serif" font-size="9.00">auth.service.spec.ts</text>
</a>
</g>
</g>
<!-- src/auth/auth.service.spec.ts&#45;&gt;node_modules/@nestjs/testing -->
<g id="edge28" class="edge">
<title>src/auth/auth.service.spec.ts&#45;&gt;node_modules/@nestjs/testing</title>
<path fill="none" stroke="#000000" stroke-opacity="0.200000" d="M560.85,-830.76C572.17,-822.2 587.52,-808.35 594.5,-792 606.45,-763.99 593.36,-547.05 602.5,-518 629.44,-432.33 640.4,-401.51 713.25,-349 720.16,-344.02 728.61,-340.69 736.85,-338.47"/>
<polygon fill="#000000" fill-opacity="0.200000" stroke="#000000" stroke-opacity="0.200000" points="736.87,-340.62 742.22,-337.2 735.9,-336.54 736.87,-340.62"/>
</g>
<!-- src/auth/auth.service.spec.ts&#45;&gt;src/auth/auth.service.ts -->
<g id="edge27" class="edge">
<title>src/auth/auth.service.spec.ts&#45;&gt;src/auth/auth.service.ts</title>
<path fill="none" stroke="#000000" stroke-width="2" stroke-opacity="0.200000" d="M581.34,-849.33C591.75,-852.18 603.34,-855.35 614.24,-858.33"/>
<polygon fill="#000000" fill-opacity="0.200000" stroke="#000000" stroke-width="2" stroke-opacity="0.200000" points="613.55,-860.32 619.89,-859.88 614.66,-856.27 613.55,-860.32"/>
</g>
<!-- src/user/user.service.ts&#45;&gt;node_modules/@nestjs/common -->
<g id="edge76" class="edge">
<title>src/user/user.service.ts&#45;&gt;node_modules/@nestjs/common</title>
<path fill="none" stroke="#000000" stroke-opacity="0.200000" d="M769.21,-1054.85C760.39,-1009.11 721.42,-800.73 709.25,-628 707.35,-601.07 701.43,-410.84 709.25,-385 712.79,-373.31 724.3,-367.75 736.45,-365.22"/>
<polygon fill="#000000" fill-opacity="0.200000" stroke="#000000" stroke-opacity="0.200000" points="736.53,-367.33 742.12,-364.3 735.86,-363.18 736.53,-367.33"/>
</g>
<!-- src/image/MulterConfigService.ts&#45;&gt;fs -->
<g id="edge48" class="edge">
<title>src/image/MulterConfigService.ts&#45;&gt;fs</title>
<path fill="none" stroke="#000000" stroke-dasharray="5,2" stroke-opacity="0.200000" d="M433.18,-654.63C435.74,-603.43 450.39,-357.83 498.5,-303 502.22,-298.77 507.13,-295.72 512.37,-293.53"/>
<polygon fill="#000000" fill-opacity="0.200000" stroke="#000000" stroke-opacity="0.200000" points="512.72,-295.63 517.7,-291.68 511.34,-291.66 512.72,-295.63"/>
</g>
<!-- src/image/MulterConfigService.ts&#45;&gt;node_modules/@nestjs/common -->
<g id="edge46" class="edge">
<title>src/image/MulterConfigService.ts&#45;&gt;node_modules/@nestjs/common</title>
<path fill="none" stroke="#000000" stroke-opacity="0.200000" d="M432.77,-654.66C433.13,-600.19 437.93,-324.23 498.5,-273 531.08,-245.44 559.73,-248.28 594.5,-273 603.32,-279.27 594.99,-288.21 602.5,-296 636.51,-331.28 667.62,-304.61 705.25,-336 710.46,-340.35 707.8,-344.96 713.25,-349 720.09,-354.08 728.51,-357.44 736.76,-359.66"/>
<polygon fill="#000000" fill-opacity="0.200000" stroke="#000000" stroke-opacity="0.200000" points="735.81,-361.6 742.13,-360.93 736.77,-357.51 735.81,-361.6"/>
</g>
<!-- src/image/MulterConfigService.ts&#45;&gt;node_modules/@nestjs/config -->
<g id="edge47" class="edge">
<title>src/image/MulterConfigService.ts&#45;&gt;node_modules/@nestjs/config</title>
<path fill="none" stroke="#000000" stroke-opacity="0.200000" d="M433.29,-654.63C436.57,-599.94 455.2,-321.84 498.5,-250 549.2,-165.89 632.69,-105.81 705.25,-172 719.59,-185.08 700.71,-244.18 713.25,-259 719.06,-265.87 727.61,-269.78 736.32,-271.97"/>
<polygon fill="#000000" fill-opacity="0.200000" stroke="#000000" stroke-opacity="0.200000" points="735.84,-274.01 742.14,-273.12 736.66,-269.89 735.84,-274.01"/>
</g>
<!-- src/image/MulterConfigService.ts&#45;&gt;node_modules/multer -->
<g id="edge49" class="edge">
<title>src/image/MulterConfigService.ts&#45;&gt;node_modules/multer</title>
<path fill="none" stroke="#000000" stroke-opacity="0.200000" d="M433.24,-654.95C436.91,-589.34 460.79,-187.89 498.5,-151 564.28,-86.66 616.73,-114.86 705.25,-140 723.38,-145.15 741.41,-156.98 753.82,-166.45"/>
<polygon fill="#000000" fill-opacity="0.200000" stroke="#000000" stroke-opacity="0.200000" points="752.24,-167.87 758.25,-169.93 754.83,-164.57 752.24,-167.87"/>
</g>
<!-- src/image/MulterConfigService.ts&#45;&gt;path -->
<g id="edge50" class="edge">
<title>src/image/MulterConfigService.ts&#45;&gt;path</title>
<path fill="none" stroke="#000000" stroke-dasharray="5,2" stroke-opacity="0.200000" d="M433.41,-654.9C437.01,-607.25 455.82,-386.62 498.5,-336 502.21,-331.61 507.11,-328.28 512.36,-325.77"/>
<polygon fill="#000000" fill-opacity="0.200000" stroke="#000000" stroke-opacity="0.200000" points="512.96,-327.79 517.71,-323.57 511.36,-323.9 512.96,-327.79"/>
</g>
<!-- src/image/entities/image.entity.ts -->
<g id="node34" class="node">
<title>src/image/entities/image.entity.ts</title>
<g id="a_node34"><a xlink:href="src/image/entities/image.entity.ts" xlink:title="no&#45;orphans">
<path fill="#ccffcc" stroke="orange" d="M340.33,-736.88C340.33,-736.88 278.42,-736.88 278.42,-736.88 275.46,-736.88 272.5,-733.92 272.5,-730.96 272.5,-730.96 272.5,-725.04 272.5,-725.04 272.5,-722.08 275.46,-719.12 278.42,-719.12 278.42,-719.12 340.33,-719.12 340.33,-719.12 343.29,-719.12 346.25,-722.08 346.25,-725.04 346.25,-725.04 346.25,-730.96 346.25,-730.96 346.25,-733.92 343.29,-736.88 340.33,-736.88"/>
<text text-anchor="start" x="280.5" y="-724.33" font-family="Helvetica,sans-Serif" font-size="9.00" fill="orange">image.entity.ts</text>
</a>
</g>
</g>
<!-- src/image/image.controller.spec.ts -->
<g id="node35" class="node">
<title>src/image/image.controller.spec.ts</title>
<g id="a_node35"><a xlink:href="src/image/image.controller.spec.ts" xlink:title="image.controller.spec.ts">
<path fill="#ddfeff" stroke="black" d="M359.08,-702.88C359.08,-702.88 259.67,-702.88 259.67,-702.88 256.71,-702.88 253.75,-699.92 253.75,-696.96 253.75,-696.96 253.75,-691.04 253.75,-691.04 253.75,-688.08 256.71,-685.12 259.67,-685.12 259.67,-685.12 359.08,-685.12 359.08,-685.12 362.04,-685.12 365,-688.08 365,-691.04 365,-691.04 365,-696.96 365,-696.96 365,-699.92 362.04,-702.88 359.08,-702.88"/>
<text text-anchor="start" x="261.75" y="-690.33" font-family="Helvetica,sans-Serif" font-size="9.00">image.controller.spec.ts</text>
</a>
</g>
</g>
<!-- src/image/image.controller.spec.ts&#45;&gt;node_modules/@nestjs/testing -->
<g id="edge53" class="edge">
<title>src/image/image.controller.spec.ts&#45;&gt;node_modules/@nestjs/testing</title>
<path fill="none" stroke="#000000" stroke-opacity="0.200000" d="M359.14,-684.65C361.32,-683.04 363.3,-681.17 365,-679 396.23,-639.22 345.55,-262.9 377.88,-224 439.85,-149.42 505.09,-160.47 594.5,-198 663.98,-227.16 648.11,-281.13 713.25,-319 720.33,-323.12 728.56,-326.13 736.52,-328.32"/>
<polygon fill="#000000" fill-opacity="0.200000" stroke="#000000" stroke-opacity="0.200000" points="735.92,-330.33 742.25,-329.75 736.93,-326.26 735.92,-330.33"/>
</g>
<!-- src/image/image.controller.spec.ts&#45;&gt;src/image/image.controller.ts -->
<g id="edge51" class="edge">
<title>src/image/image.controller.spec.ts&#45;&gt;src/image/image.controller.ts</title>
<path fill="none" stroke="#000000" stroke-width="2" stroke-opacity="0.200000" d="M365.28,-694C369.44,-694 373.63,-694 377.78,-694"/>
<polygon fill="#000000" fill-opacity="0.200000" stroke="#000000" stroke-width="2" stroke-opacity="0.200000" points="377.72,-696.1 383.72,-694 377.72,-691.9 377.72,-696.1"/>
</g>
<!-- src/image/image.controller.spec.ts&#45;&gt;src/image/image.service.ts -->
<g id="edge52" class="edge">
<title>src/image/image.controller.spec.ts&#45;&gt;src/image/image.service.ts</title>
<path fill="none" stroke="#000000" stroke-width="2" stroke-opacity="0.200000" d="M358.97,-703.34C361.13,-704.7 363.16,-706.24 365,-708 379.12,-721.48 362.18,-738.39 377.88,-750 420.78,-781.72 486.95,-755.41 521.85,-737.4"/>
<polygon fill="#000000" fill-opacity="0.200000" stroke="#000000" stroke-width="2" stroke-opacity="0.200000" points="522.64,-739.36 526.94,-734.69 520.66,-735.66 522.64,-739.36"/>
</g>
<!-- src/image/image.controller.ts&#45;&gt;node_modules/@nestjs/common -->
<g id="edge55" class="edge">
<title>src/image/image.controller.ts&#45;&gt;node_modules/@nestjs/common</title>
<path fill="none" stroke="#000000" stroke-opacity="0.200000" d="M476.96,-686.34C480.2,-684.39 483.12,-681.98 485.5,-679 518.7,-637.44 471.12,-485.6 498.5,-440 524.16,-397.27 562.24,-420 594.5,-382 600.7,-374.7 594.57,-367.37 602.5,-362 623.51,-347.77 693.72,-353.87 736.28,-359.2"/>
<polygon fill="#000000" fill-opacity="0.200000" stroke="#000000" stroke-opacity="0.200000" points="735.91,-361.27 742.13,-359.95 736.45,-357.1 735.91,-361.27"/>
</g>
<!-- src/image/image.controller.ts&#45;&gt;node_modules/@nestjs/platform&#45;express -->
<g id="edge56" class="edge">
<title>src/image/image.controller.ts&#45;&gt;node_modules/@nestjs/platform&#45;express</title>
<path fill="none" stroke="#000000" stroke-opacity="0.200000" d="M476.99,-686.36C480.23,-684.41 483.14,-681.99 485.5,-679 505.58,-653.62 478.99,-413.83 498.5,-388 525.6,-352.11 567.29,-391.81 594.5,-356 605.14,-342 589.76,-210.11 602.5,-198 635.6,-166.54 671.57,-167.16 705.25,-198 720.22,-211.71 700.17,-273.47 713.25,-289 715.77,-291.99 718.81,-294.42 722.16,-296.4"/>
<polygon fill="#000000" fill-opacity="0.200000" stroke="#000000" stroke-opacity="0.200000" points="721.24,-298.29 727.56,-298.99 723.06,-294.5 721.24,-298.29"/>
</g>
<!-- src/image/image.controller.ts&#45;&gt;node_modules/express -->
<g id="edge57" class="edge">
<title>src/image/image.controller.ts&#45;&gt;node_modules/express</title>
<g id="a_edge57"><a xlink:title="not&#45;to&#45;dev&#45;dep">
<path fill="none" stroke="red" d="M476.52,-686.66C479.94,-684.66 483.03,-682.14 485.5,-679 507.65,-650.87 475.9,-384.77 498.5,-357 526.26,-322.89 566.59,-366.99 594.5,-333 605.94,-319.07 589.45,-183.43 602.5,-171 635.58,-139.52 668.2,-144.3 705.25,-171 714.37,-177.57 705.05,-187.31 713.25,-195 719.57,-200.93 727.96,-204.58 736.34,-206.8"/>
<polygon fill="red" stroke="red" points="735.87,-208.85 742.18,-208.09 736.77,-204.75 735.87,-208.85"/>
</a>
</g>
<text text-anchor="middle" x="547.84" y="-336.42" font-family="Helvetica,sans-Serif" font-size="9.00" fill="red">not&#45;to&#45;dev&#45;dep</text>
</g>
<!-- src/image/image.controller.ts&#45;&gt;src/image/image.service.ts -->
<g id="edge54" class="edge">
<title>src/image/image.controller.ts&#45;&gt;src/image/image.service.ts</title>
<path fill="none" stroke="#000000" stroke-width="2" stroke-opacity="0.200000" d="M467.73,-703.33C478.52,-706.21 490.54,-709.41 501.83,-712.42"/>
<polygon fill="#000000" fill-opacity="0.200000" stroke="#000000" stroke-width="2" stroke-opacity="0.200000" points="501.03,-714.38 507.37,-713.9 502.11,-710.32 501.03,-714.38"/>
</g>
<!-- src/image/image.service.ts&#45;&gt;node_modules/@nestjs/common -->
<g id="edge65" class="edge">
<title>src/image/image.service.ts&#45;&gt;node_modules/@nestjs/common</title>
<path fill="none" stroke="#000000" stroke-opacity="0.200000" d="M550.4,-714.72C558.6,-690.3 580.92,-622.1 594.5,-564 599.22,-543.79 590.54,-534.95 602.5,-518 632.74,-475.15 676.61,-503.93 705.25,-460 715.13,-444.85 701.52,-392.77 713.25,-379 719.08,-372.15 727.64,-368.24 736.35,-366.06"/>
<polygon fill="#000000" fill-opacity="0.200000" stroke="#000000" stroke-opacity="0.200000" points="736.69,-368.13 742.16,-364.9 735.87,-364.01 736.69,-368.13"/>
</g>
<!-- src/image/image.service.spec.ts -->
<g id="node38" class="node">
<title>src/image/image.service.spec.ts</title>
<g id="a_node38"><a xlink:href="src/image/image.service.spec.ts" xlink:title="image.service.spec.ts">
<path fill="#ddfeff" stroke="black" d="M476.96,-732.88C476.96,-732.88 386.54,-732.88 386.54,-732.88 383.58,-732.88 380.62,-729.92 380.62,-726.96 380.62,-726.96 380.62,-721.04 380.62,-721.04 380.62,-718.08 383.58,-715.12 386.54,-715.12 386.54,-715.12 476.96,-715.12 476.96,-715.12 479.92,-715.12 482.88,-718.08 482.88,-721.04 482.88,-721.04 482.88,-726.96 482.88,-726.96 482.88,-729.92 479.92,-732.88 476.96,-732.88"/>
<text text-anchor="start" x="388.62" y="-720.33" font-family="Helvetica,sans-Serif" font-size="9.00">image.service.spec.ts</text>
</a>
</g>
</g>
<!-- src/image/image.service.spec.ts&#45;&gt;node_modules/@nestjs/testing -->
<g id="edge64" class="edge">
<title>src/image/image.service.spec.ts&#45;&gt;node_modules/@nestjs/testing</title>
<path fill="none" stroke="#000000" stroke-opacity="0.200000" d="M479.34,-714.8C481.64,-713.16 483.72,-711.24 485.5,-709 504.11,-685.56 483.17,-465.7 498.5,-440 524.04,-397.19 562.24,-420 594.5,-382 600.7,-374.7 595.04,-368 602.5,-362 640.6,-331.31 699.69,-328.64 736.54,-330.56"/>
<polygon fill="#000000" fill-opacity="0.200000" stroke="#000000" stroke-opacity="0.200000" points="735.97,-332.63 742.09,-330.91 736.23,-328.44 735.97,-332.63"/>
</g>
<!-- src/image/image.service.spec.ts&#45;&gt;src/image/image.service.ts -->
<g id="edge63" class="edge">
<title>src/image/image.service.spec.ts&#45;&gt;src/image/image.service.ts</title>
<path fill="none" stroke="#000000" stroke-width="2" stroke-opacity="0.200000" d="M483.08,-724C487.71,-724 492.4,-724 497.02,-724"/>
<polygon fill="#000000" fill-opacity="0.200000" stroke="#000000" stroke-width="2" stroke-opacity="0.200000" points="496.74,-726.1 502.74,-724 496.74,-721.9 496.74,-726.1"/>
</g>
<!-- src/main.ts -->
<g id="node39" class="node">
<title>src/main.ts</title>
<g id="a_node39"><a xlink:href="src/main.ts" xlink:title="main.ts">
<path fill="#ddfeff" stroke="black" d="M92.83,-751.88C92.83,-751.88 50.67,-751.88 50.67,-751.88 47.71,-751.88 44.75,-748.92 44.75,-745.96 44.75,-745.96 44.75,-740.04 44.75,-740.04 44.75,-737.08 47.71,-734.12 50.67,-734.12 50.67,-734.12 92.83,-734.12 92.83,-734.12 95.79,-734.12 98.75,-737.08 98.75,-740.04 98.75,-740.04 98.75,-745.96 98.75,-745.96 98.75,-748.92 95.79,-751.88 92.83,-751.88"/>
<text text-anchor="start" x="57.12" y="-739.33" font-family="Helvetica,sans-Serif" font-size="9.00">main.ts</text>
</a>
</g>
</g>
<!-- src/main.ts&#45;&gt;node_modules/@nestjs/core -->
<g id="edge67" class="edge">
<title>src/main.ts&#45;&gt;node_modules/@nestjs/core</title>
<path fill="none" stroke="#000000" stroke-opacity="0.200000" d="M73.57,-733.87C81.39,-648.95 146.49,0 308.38,0 308.38,0 308.38,0 547.25,0 631.32,0 663.06,-31.29 705.25,-104 719.44,-128.46 694.94,-209.45 713.25,-231 719.03,-237.8 727.57,-241.46 736.28,-243.33"/>
<polygon fill="#000000" fill-opacity="0.200000" stroke="#000000" stroke-opacity="0.200000" points="735.83,-245.38 742.09,-244.27 736.5,-241.24 735.83,-245.38"/>
</g>
<!-- src/main.ts&#45;&gt;src/app.module.ts -->
<g id="edge66" class="edge">
<title>src/main.ts&#45;&gt;src/app.module.ts</title>
<path fill="none" stroke="#000000" stroke-width="2" stroke-opacity="0.200000" d="M78.2,-751.95C87.91,-767.17 109.62,-798.19 135.5,-816 138.17,-817.84 141.05,-819.51 144.03,-821.03"/>
<polygon fill="#000000" fill-opacity="0.200000" stroke="#000000" stroke-width="2" stroke-opacity="0.200000" points="143,-822.86 149.33,-823.44 144.74,-819.04 143,-822.86"/>
</g>
<!-- src/mongodb/mongodb.module.ts -->
<g id="node40" class="node">
<title>src/mongodb/mongodb.module.ts</title>
<g id="a_node40"><a xlink:href="src/mongodb/mongodb.module.ts" xlink:title="no&#45;orphans">
<path fill="#ccffcc" stroke="orange" d="M113.58,-1001.88C113.58,-1001.88 29.92,-1001.88 29.92,-1001.88 26.96,-1001.88 24,-998.92 24,-995.96 24,-995.96 24,-990.04 24,-990.04 24,-987.08 26.96,-984.12 29.92,-984.12 29.92,-984.12 113.58,-984.12 113.58,-984.12 116.54,-984.12 119.5,-987.08 119.5,-990.04 119.5,-990.04 119.5,-995.96 119.5,-995.96 119.5,-998.92 116.54,-1001.88 113.58,-1001.88"/>
<text text-anchor="start" x="32" y="-989.33" font-family="Helvetica,sans-Serif" font-size="9.00" fill="orange">mongodb.module.ts</text>
</a>
</g>
</g>
<!-- src/mongodb/mongodb.service.ts -->
<g id="node41" class="node">
<title>src/mongodb/mongodb.service.ts</title>
<g id="a_node41"><a xlink:href="src/mongodb/mongodb.service.ts" xlink:title="no&#45;orphans">
<path fill="#ccffcc" stroke="orange" d="M112.83,-971.88C112.83,-971.88 30.67,-971.88 30.67,-971.88 27.71,-971.88 24.75,-968.92 24.75,-965.96 24.75,-965.96 24.75,-960.04 24.75,-960.04 24.75,-957.08 27.71,-954.12 30.67,-954.12 30.67,-954.12 112.83,-954.12 112.83,-954.12 115.79,-954.12 118.75,-957.08 118.75,-960.04 118.75,-960.04 118.75,-965.96 118.75,-965.96 118.75,-968.92 115.79,-971.88 112.83,-971.88"/>
<text text-anchor="start" x="32.75" y="-959.33" font-family="Helvetica,sans-Serif" font-size="9.00" fill="orange">mongodb.service.ts</text>
</a>
</g>
</g>
<!-- src/user/dto/createUserDto.ts -->
<g id="node42" class="node">
<title>src/user/dto/createUserDto.ts</title>
<g id="a_node42"><a xlink:href="src/user/dto/createUserDto.ts" xlink:title="createUserDto.ts">
<path fill="#ddfeff" stroke="black" d="M806.83,-1162.88C806.83,-1162.88 735.17,-1162.88 735.17,-1162.88 732.21,-1162.88 729.25,-1159.92 729.25,-1156.96 729.25,-1156.96 729.25,-1151.04 729.25,-1151.04 729.25,-1148.08 732.21,-1145.12 735.17,-1145.12 735.17,-1145.12 806.83,-1145.12 806.83,-1145.12 809.79,-1145.12 812.75,-1148.08 812.75,-1151.04 812.75,-1151.04 812.75,-1156.96 812.75,-1156.96 812.75,-1159.92 809.79,-1162.88 806.83,-1162.88"/>
<text text-anchor="start" x="737.25" y="-1150.33" font-family="Helvetica,sans-Serif" font-size="9.00">createUserDto.ts</text>
</a>
</g>
</g>
<!-- src/user/schemas/user.schema.ts -->
<g id="node43" class="node">
<title>src/user/schemas/user.schema.ts</title>
<g id="a_node43"><a xlink:href="src/user/schemas/user.schema.ts" xlink:title="user.schema.ts">
<path fill="#ddfeff" stroke="black" d="M690.33,-1136.88C690.33,-1136.88 625.42,-1136.88 625.42,-1136.88 622.46,-1136.88 619.5,-1133.92 619.5,-1130.96 619.5,-1130.96 619.5,-1125.04 619.5,-1125.04 619.5,-1122.08 622.46,-1119.12 625.42,-1119.12 625.42,-1119.12 690.33,-1119.12 690.33,-1119.12 693.29,-1119.12 696.25,-1122.08 696.25,-1125.04 696.25,-1125.04 696.25,-1130.96 696.25,-1130.96 696.25,-1133.92 693.29,-1136.88 690.33,-1136.88"/>
<text text-anchor="start" x="627.5" y="-1124.33" font-family="Helvetica,sans-Serif" font-size="9.00">user.schema.ts</text>
</a>
</g>
</g>
<!-- src/user/schemas/user.schema.ts&#45;&gt;node_modules/@nestjs/mongoose -->
<g id="edge68" class="edge">
<title>src/user/schemas/user.schema.ts&#45;&gt;node_modules/@nestjs/mongoose</title>
<g id="a_edge68"><a xlink:title="no&#45;non&#45;package&#45;json">
<path fill="none" stroke="red" d="M696.57,-1122.27C699.91,-1120.42 702.91,-1118.05 705.25,-1115 727.18,-1086.45 690.64,-495.02 713.25,-467 718.35,-460.68 725.85,-457.04 733.73,-455.03"/>
<polygon fill="red" stroke="red" points="734.04,-457.11 739.53,-453.9 733.24,-452.99 734.04,-457.11"/>
</a>
</g>
<text text-anchor="middle" x="665.06" y="-779.53" font-family="Helvetica,sans-Serif" font-size="9.00" fill="red">no&#45;non&#45;package&#45;json</text>
</g>
<!-- src/user/user.controller.ts -->
<g id="node44" class="node">
<title>src/user/user.controller.ts</title>
<g id="a_node44"><a xlink:href="src/user/user.controller.ts" xlink:title="user.controller.ts">
<path fill="#ddfeff" stroke="black" d="M692.96,-1188.88C692.96,-1188.88 622.79,-1188.88 622.79,-1188.88 619.83,-1188.88 616.88,-1185.92 616.88,-1182.96 616.88,-1182.96 616.88,-1177.04 616.88,-1177.04 616.88,-1174.08 619.83,-1171.12 622.79,-1171.12 622.79,-1171.12 692.96,-1171.12 692.96,-1171.12 695.92,-1171.12 698.88,-1174.08 698.88,-1177.04 698.88,-1177.04 698.88,-1182.96 698.88,-1182.96 698.88,-1185.92 695.92,-1188.88 692.96,-1188.88"/>
<text text-anchor="start" x="624.88" y="-1176.33" font-family="Helvetica,sans-Serif" font-size="9.00">user.controller.ts</text>
</a>
</g>
</g>
<!-- src/user/user.controller.ts&#45;&gt;node_modules/@nestjs/common -->
<g id="edge71" class="edge">
<title>src/user/user.controller.ts&#45;&gt;node_modules/@nestjs/common</title>
<path fill="none" stroke="#000000" stroke-opacity="0.200000" d="M699.14,-1171.83C701.45,-1170.21 703.53,-1168.29 705.25,-1166 718.37,-1148.52 699.82,-396.25 713.25,-379 718.88,-371.77 727.56,-367.76 736.45,-365.61"/>
<polygon fill="#000000" fill-opacity="0.200000" stroke="#000000" stroke-opacity="0.200000" points="736.58,-367.73 742.09,-364.54 735.8,-363.6 736.58,-367.73"/>
</g>
<!-- src/user/user.controller.ts&#45;&gt;src/user/user.service.ts -->
<g id="edge70" class="edge">
<title>src/user/user.controller.ts&#45;&gt;src/user/user.service.ts</title>
<path fill="none" stroke="#000000" stroke-width="2" stroke-opacity="0.200000" d="M698.99,-1171.08C701.28,-1169.63 703.39,-1167.95 705.25,-1166 715.36,-1155.39 706.7,-1147.12 713.25,-1134 723.72,-1113.02 741.39,-1092.61 754.23,-1079.3"/>
<polygon fill="#000000" fill-opacity="0.200000" stroke="#000000" stroke-width="2" stroke-opacity="0.200000" points="755.59,-1080.91 758.31,-1075.17 752.6,-1077.96 755.59,-1080.91"/>
</g>
<!-- src/user/user.controller.ts&#45;&gt;src/user/dto/createUserDto.ts -->
<g id="edge69" class="edge">
<title>src/user/user.controller.ts&#45;&gt;src/user/dto/createUserDto.ts</title>
<path fill="none" stroke="#000000" stroke-width="2" stroke-opacity="0.200000" d="M698.68,-1170.69C706.02,-1168.97 713.76,-1167.16 721.33,-1165.39"/>
<polygon fill="#000000" fill-opacity="0.200000" stroke="#000000" stroke-width="2" stroke-opacity="0.200000" points="721.79,-1167.44 727.15,-1164.03 720.83,-1163.35 721.79,-1167.44"/>
</g>
<!-- src/user/user.service.spec.ts -->
<g id="node45" class="node">
<title>src/user/user.service.spec.ts</title>
<g id="a_node45"><a xlink:href="src/user/user.service.spec.ts" xlink:title="user.service.spec.ts">
<path fill="#ddfeff" stroke="black" d="M699.33,-1072.88C699.33,-1072.88 616.42,-1072.88 616.42,-1072.88 613.46,-1072.88 610.5,-1069.92 610.5,-1066.96 610.5,-1066.96 610.5,-1061.04 610.5,-1061.04 610.5,-1058.08 613.46,-1055.12 616.42,-1055.12 616.42,-1055.12 699.33,-1055.12 699.33,-1055.12 702.29,-1055.12 705.25,-1058.08 705.25,-1061.04 705.25,-1061.04 705.25,-1066.96 705.25,-1066.96 705.25,-1069.92 702.29,-1072.88 699.33,-1072.88"/>
<text text-anchor="start" x="618.5" y="-1060.33" font-family="Helvetica,sans-Serif" font-size="9.00">user.service.spec.ts</text>
</a>
</g>
</g>
<!-- src/user/user.service.spec.ts&#45;&gt;node_modules/@nestjs/testing -->
<g id="edge75" class="edge">
<title>src/user/user.service.spec.ts&#45;&gt;node_modules/@nestjs/testing</title>
<path fill="none" stroke="#000000" stroke-opacity="0.200000" d="M690.47,-1054.87C696.32,-1051.73 701.69,-1047.55 705.25,-1042 715.63,-1025.79 701.42,-364.19 713.25,-349 718.88,-341.77 727.57,-337.77 736.46,-335.62"/>
<polygon fill="#000000" fill-opacity="0.200000" stroke="#000000" stroke-opacity="0.200000" points="736.59,-337.73 742.09,-334.55 735.81,-333.61 736.59,-337.73"/>
</g>
<!-- src/user/user.service.spec.ts&#45;&gt;src/user/user.service.ts -->
<g id="edge74" class="edge">
<title>src/user/user.service.spec.ts&#45;&gt;src/user/user.service.ts</title>
<path fill="none" stroke="#000000" stroke-width="2" stroke-opacity="0.200000" d="M705.68,-1064C712.2,-1064 718.89,-1064 725.38,-1064"/>
<polygon fill="#000000" fill-opacity="0.200000" stroke="#000000" stroke-width="2" stroke-opacity="0.200000" points="725.03,-1066.1 731.03,-1064 725.03,-1061.9 725.03,-1066.1"/>
</g>
</g>
</svg>
